<svg width="40" height="40" fill="none" xmlns="http://www.w3.org/2000/svg"><circle cx="20" cy="20" r="20" fill="#477EAE"/><path fill-rule="evenodd" clip-rule="evenodd" d="M13.856 11.073c-.95.272-1.656 1.087-1.823 2.106-.166 1.017.303 2.074 1.16 2.614 1.388.875 3.185.134 3.638-1.499.151-.546.1-1.262-.129-1.773-.21-.472-.64-.97-1.023-1.19-.55-.314-1.27-.415-1.823-.258zm10.96 6.04c-1.131.128-2.07.619-2.613 1.369l-.218.3-.03-.553c-.032-.575-.096-.776-.28-.88-.066-.037-.712-.06-1.666-.06H18.45l-.159.143-.159.144-.015 5.96c-.01 4.407.002 6.002.05 6.125.13.327.244.346 1.92.327 1.502-.017 1.528-.02 1.655-.153l.13-.135.03-3.429c.035-3.749.03-3.696.39-4.505.216-.486.508-.812.924-1.03.304-.16.402-.18.835-.18.603 0 .93.108 1.27.422.276.255.485.652.637 1.211.086.315.1.766.116 3.831.01 1.912.032 3.536.048 3.61.016.075.111.189.212.253.17.108.291.117 1.732.117h1.549l.192-.202.193-.202V26.16c-.001-3.554-.04-4.45-.232-5.448-.42-2.177-1.602-3.366-3.579-3.597-.597-.07-.777-.07-1.372-.003zm-12.054.32a.72.72 0 00-.18.282c-.018.076-.025 2.79-.017 6.032l.016 5.894.157.165.157.164 1.482.018c1.593.02 1.718 0 1.898-.276.096-.148.103-.485.118-5.86.01-3.136.001-5.82-.019-5.964a.753.753 0 00-.196-.43l-.161-.17h-3.108l-.147.144z" fill="#fff"/></svg>