<svg width="40" height="40" fill="none" xmlns="http://www.w3.org/2000/svg"><circle cx="20" cy="20" r="20" fill="#3B5998"/><path fill-rule="evenodd" clip-rule="evenodd" d="M20.636 10.088c-1.457.245-2.4.884-2.989 2.027-.4.778-.47 1.169-.503 2.855l-.03 1.477H15v3.522h2.128l.017 5 .016 5 2.242.015 2.242.016V19.969h1.484c1.454 0 1.484-.002 1.484-.122 0-.159.312-3.02.353-3.236l.03-.164h-3.36l.02-1.238c.03-1.783-.011-1.747 2.015-1.747H25V10l-1.952.005c-1.293.004-2.106.032-2.412.083z" fill="#fff"/></svg>