<svg width="36" height="36" fill="none" xmlns="http://www.w3.org/2000/svg"><path fill-rule="evenodd" clip-rule="evenodd" d="M13.121.057c-.16.037-.65.137-1.09.222-1.304.253-2.608.718-3.92 1.398C1.225 5.247-1.785 13.4 1.078 20.726c.73 1.87 1.641 3.237 3.257 4.89 2.31 2.362 4.563 3.611 7.697 4.268 2 .419 5.053.313 6.898-.24 1.413-.423 2.794-1.027 3.86-1.69l.673-.416 3.905 3.943c2.439 2.461 4.128 4.052 4.497 4.233 1.133.555 2.046.314 3.14-.83 1.002-1.046 1.218-1.853.779-2.913-.131-.316-1.725-2.016-4.235-4.519l-4.026-4.011.75-1.518c.413-.834.926-2.11 1.14-2.835.364-1.225.392-1.51.392-4.028 0-2.535-.026-2.793-.397-4.013-.826-2.716-1.873-4.516-3.786-6.509A14.837 14.837 0 0018.494.394C17.38.114 13.835-.11 13.121.057zM18.06 3.55c2.183.614 4.577 2.174 6.008 3.916.906 1.104 2.073 3.453 2.425 4.884.336 1.364.342 4.036.012 5.4-1.06 4.378-4.32 7.746-8.608 8.895-1.614.433-4.187.432-5.792 0-5.34-1.44-8.926-6.05-8.93-11.482-.002-3.289 1.081-6.012 3.324-8.355 1.59-1.66 3.46-2.756 5.68-3.327 1.368-.352 4.513-.315 5.88.07zm-4.14 1.54c-1.129.347-2.113 1.277-2.537 2.398-.312.822-.255 2.263.12 3.047.595 1.244 2.039 2.177 3.372 2.18 2.258.004 3.887-1.62 3.898-3.884.004-.881-.06-1.145-.439-1.831-.86-1.554-2.816-2.4-4.414-1.91zm-4.527 8.134c-.34.234-.61.585-.76.989-.224.6-.21.809.324 4.874.369 2.807.643 4.412.81 4.734.437.846.773.904 5.202.904 4.392 0 4.716-.06 5.214-.952.228-.407 1.29-7.778 1.289-8.94 0-.575-.467-1.32-1.051-1.679-.364-.224-.732-.29-1.594-.291h-1.122l-1.332 1.574c-.733.865-1.348 1.594-1.368 1.618-.02.025-.647-.681-1.395-1.57l-1.36-1.614-1.164-.004c-1.003-.004-1.237.045-1.693.357z" fill="#1169B0"/></svg>