<svg width="84" height="84" fill="none" xmlns="http://www.w3.org/2000/svg"><rect width="83.102" height="83.1" rx="7" fill="#fff"/><g clip-path="url(#clip0)"><path d="M60.088 68h-37.12C20.233 68 18 65.799 18 63.102V19.898C18 17.201 20.233 15 22.968 15h37.12c2.735 0 4.968 2.201 4.968 4.898v43.204C65 65.799 62.823 68 60.088 68z" fill="#02577A"/><path d="M58.078 23.586v5.008H34.634c-1.005 0-2.177.826-2.177 1.816v23.941h22.718c2.01 0 2.903 1.156 2.903 3.137v4.183H24.754V25.29c0-2.256 1.842-4.072 4.13-4.072h26.291c1.34 0 2.903 1.046 2.903 2.367z" fill="#fff"/><path d="M50.711 43.178l-8.652 4.899c-1.34.77-3.014-.165-3.014-1.706v-9.797c0-1.54 1.674-2.477 3.014-1.706l8.652 4.898a1.95 1.95 0 010 3.413z" fill="#EB7260"/></g><defs><clipPath id="clip0"><path fill="#fff" transform="translate(18 15)" d="M0 0h47v53H0z"/></clipPath></defs></svg>