<svg width="84" height="84" fill="none" xmlns="http://www.w3.org/2000/svg"><rect width="83.102" height="83.1" rx="7" fill="#fff"/><g clip-path="url(#clip0)"><path fill-rule="evenodd" clip-rule="evenodd" d="M17 17.045C17 15.375 18.388 14 20.074 14h43.383c1.686 0 3.074 1.375 3.074 3.045V65.91c0 1.67-1.388 3.044-3.074 3.044H20.074C18.388 68.954 17 67.58 17 65.91V17.045z" fill="#A11F4F"/><path d="M60.483 51.52h-23.6v-3.634H47.74c.942 0 1.735-.786 1.735-1.719V35.756c0-.933-.793-1.719-1.735-1.719H36.883v-3.585h23.203c.942 0 1.736-.786 1.736-1.719v-8.692c0-.933-.794-1.72-1.736-1.72h-36.64c-.942 0-1.735.787-1.735 1.72v42.726c0 .933.793 1.718 1.735 1.718h37.037c.942 0 1.735-.785 1.735-1.718V53.19c0-.933-.793-1.67-1.735-1.67z" fill="#fff"/><path fill-rule="evenodd" clip-rule="evenodd" d="M33.858 44.89v9.675H59.64v7.465H24.437V20.974h34.856v6.482H33.858v9.233H46.65v8.202H33.858z" fill="#9F224E"/></g><defs><clipPath id="clip0"><path fill="#fff" transform="translate(17 14)" d="M0 0h49.581v55.004H0z"/></clipPath></defs></svg>