<svg width="84" height="84" fill="none" xmlns="http://www.w3.org/2000/svg"><rect width="83.102" height="83.1" rx="7" fill="#fff"/><g clip-path="url(#clip0)"><path d="M24.145 36.794s2.17 7.56 12.872 10.672C47.502 50.802 52.709 58.806 44.176 74c1.952-7.115 4.122-17.64-7.883-20.53-11.064-3.335-12.8-6.893-12.148-16.676z" fill="#DA5213"/><path d="M47.213 32.495c-11.136-6.448-11.136-10.45-10.485-13.786C39.62 7.962 50.25 9.52 50.25 9.52c-17.645-2.89-22.635 6.3-23.502 11.414-1.736 8.227 7.592 14.749 7.592 14.749s9.835 6.448 13.523 9.783c5.64 6.004-.868 22.087-3.47 28.09.65-1.111 2.82-4.002 9.183-12.748 10.413-14.008 4.556-21.79-6.364-28.312z" fill="#EE740E"/></g><defs><clipPath id="clip0"><path fill="#fff" transform="translate(24 9)" d="M0 0h35v65H0z"/></clipPath></defs></svg>