<svg width="84" height="84" fill="none" xmlns="http://www.w3.org/2000/svg"><rect width="83.102" height="83.1" rx="7" fill="#fff"/><path d="M24.573 71h-2.74C16.973 71 13 67.097 13 62.235V21.834C13 16.971 16.903 13 21.765 13h14.38c6.574 0 13.01 1.712 18.557 5.204.343.206.617.411.96.616C65.315 25.463 71 36.694 71 48.403v13.764C71 67.028 67.097 71 62.235 71h-.616l-6.711-10.408-5.204-8.423a12.613 12.613 0 006.779-4.451c2.397-2.945 3.698-6.642 3.56-10.409 0-2.67-.616-5.272-1.78-7.6-1.985-4.11-5.683-7.19-10.134-8.218-2.055-.48-4.246-.616-6.369-.616H24.504L24.573 71zm27.596 0H32.242V28.544h8.834c1.848 0 3.629.206 5.478.548.958.274 1.917.753 2.67 1.438.959.822 1.644 1.849 2.123 3.013.548 1.301.753 2.602.753 3.972a7.388 7.388 0 01-2.26 5.546c-.753.754-1.711 1.301-2.67 1.644a12.227 12.227 0 01-3.15.616h-7.738L52.17 71zM71 29.229l-.616-1.643A26.843 26.843 0 0056.14 13.342c-.274-.137-.617-.205-.822-.342h6.847C67.096 13 71 16.903 71 21.765v7.464z" fill="#40A590"/></svg>