<svg width="84" height="84" fill="none" xmlns="http://www.w3.org/2000/svg"><rect width="83.102" height="83.1" rx="7" fill="#fff"/><path fill-rule="evenodd" clip-rule="evenodd" d="M9.076 32.797l.668.111 10.715 5.568 8.416-11.136s2.15-2.913 2.781.922l6.6 36.248 5.97 6.49-5.562-28.357L76 23.136l-41.118 4.425L32.138 12l-9.01 16.852L7 30.548" fill="url(#paint0_radial)"/><path fill-rule="evenodd" clip-rule="evenodd" d="M11.709 35.563l7.638 8.186-7.712 11.432h4.671l5.6-8.703 14.088 15.119-6.154-32.635-8.454 11.8-9.677-5.199zm15.795 2.286v6.675l-3.152-1.807 3.152-4.868z" fill="url(#paint1_radial)"/><defs><radialGradient id="paint0_radial" cx="0" cy="0" r="1" gradientUnits="userSpaceOnUse" gradientTransform="matrix(21.076 0 0 20.9612 31.755 38.058)"><stop stop-color="#428DCC"/><stop offset="1" stop-color="#324CA0"/></radialGradient><radialGradient id="paint1_radial" cx="0" cy="0" r="1" gradientUnits="userSpaceOnUse" gradientTransform="matrix(11.8865 0 0 11.8218 26.812 42.606)"><stop stop-color="#428DCC"/><stop offset="1" stop-color="#324CA0"/></radialGradient></defs></svg>