<svg width="84" height="84" fill="none" xmlns="http://www.w3.org/2000/svg"><rect width="83.102" height="83.1" rx="7" fill="#fff"/><g clip-path="url(#clip0)" fill="#26B6E8"><path d="M12.621 34.487h1.543l2.276 4.084 2.2-4.084h1.315l-3.136 5.698h-.91l-3.288-5.698zm7.815 1.16h.86l3.666 3v-3h1.087v4.538h-.86l-3.666-3.025v3.025h-1.087v-4.538zm7.054-1.16h5.842v1.286H28.83v.857h2.63v1.185h-2.63v1.11h4.552v1.26H27.49v-5.698zm8.573 3.403l-2.2-2.243h1.441l1.492 1.513 1.568-1.513h1.24l-2.175 2.168 2.3 2.37h-1.466l-1.593-1.639-1.644 1.639h-1.264l2.3-2.294zm4.173-2.243h3.945c.177 0 .304 0 .405.025.1.025.202.05.278.101a.59.59 0 01.253.302c.05.127.076.303.076.58v.832c0 .152 0 .278-.026.353a.562.562 0 01-.075.252.455.455 0 01-.304.303c-.152.05-.354.1-.632.1h-2.858v1.715h-1.087v-4.563h.025zm1.088 1.815h2.528c.102 0 .177-.025.203-.05.025-.026.05-.101.05-.202v-.252c0-.1-.025-.177-.05-.202-.026-.025-.101-.05-.203-.05h-2.528v.756zm5.006 2.723v-4.538h3.945c.177 0 .303 0 .405.025.1.025.202.05.278.101a.59.59 0 01.253.302c.05.127.075.303.075.58v.832c0 .152 0 .278-.025.353a.562.562 0 01-.076.252.455.455 0 01-.303.303c-.152.05-.354.1-.632.1h-.557l2.049 1.715h-1.568l-1.871-1.714h-.91v1.714H46.33v-.025zm3.591-2.723c.101 0 .177-.025.202-.05.026-.026.05-.101.05-.202v-.252c0-.1-.024-.177-.05-.202-.05-.025-.1-.05-.202-.05h-2.529v.781h2.529v-.025zm2.554-1.815h4.703v1.034h-3.616v.63h2.099v.983h-2.099v.832h3.642v1.059h-4.73v-4.538zm9.61 3.529v-.832h-2.908c-.38 0-.632-.075-.784-.226-.152-.152-.227-.404-.227-.782v-.706c0-.176.025-.353.05-.479a.604.604 0 01.177-.302.877.877 0 01.304-.177c.126-.025.278-.05.455-.05h2.933c.38 0 .632.075.784.227.152.151.228.403.228.781v.252l-1.088.227v-.479h-2.756v.807h2.908c.38 0 .632.076.784.227.152.151.227.403.227.756v.756c0 .379-.075.63-.227.782-.152.151-.405.227-.784.227h-3.11c-.177 0-.354-.025-.48-.05a.607.607 0 01-.304-.177.872.872 0 01-.177-.303 2.253 2.253 0 01-.05-.453v-.278l1.086-.277v.53h2.96zm6.018 0v-.832h-2.908c-.38 0-.633-.075-.784-.226-.152-.152-.228-.404-.228-.782v-.706c0-.176.025-.353.05-.479a.604.604 0 01.178-.302.876.876 0 01.303-.177c.127-.025.278-.05.455-.05h2.934c.38 0 .632.075.784.227.151.151.227.403.227.781v.252l-1.087.227v-.479H65.27v.807h2.909c.379 0 .632.076.784.227.151.151.227.403.227.756v.756c0 .379-.076.63-.227.782-.152.151-.405.227-.784.227h-3.11c-.178 0-.355-.025-.481-.05a.608.608 0 01-.304-.177.873.873 0 01-.177-.303 2.253 2.253 0 01-.05-.453v-.278l1.087-.277v.53h2.959zm8.751.303c.126-.958.202-1.69.202-1.69 1.264-.882 2.478-1.94 2.858-2.545.379-.605.1-1.06-.102-1.21-.202-.177-.328 0-.606.302-.279.303-.709.756-.784.504-.076-.227.076-1.538-.456.227-.202.807-.657 1.185-.657 1.185.126-1.992-.986-3.277-.784-3.807.202-.504.582-1.059.582-1.059 1.062 0 1.011-.302 1.011-.781 0-.48.025-.706.025-.706.127 0 .48.025.279-.277-.203-.303-.506-.429-.506-.958 0-.504-.329-1.009-.329-1.009.304-.655-.733-.706-1.214-.68-1.163-.076-2.427.68-2.175 1.865.228 1.185.76 1.891.683 2.194-1.188-.127-1.77.403-2.276.605-.505.201-.809-.101-1.643.378-.81.479-1.568.504-1.998.68-.43.177.177.807.329 1.26.177.43 1.163 2.547 1.643 3.329.33.529.557 1.184.885 1.764 3.237-.479 4.704.227 5.033.429zm-4.3-2.017l-.379.076s-.96-2.698-.834-3.807c0 0 1.012.202 1.694 0-.354.227-.278 1.664-.48 3.731zM51.387 48.655l.733 3.53c.86-.328 1.619-.656 2.25-.958l-.657-2.597h-2.326v.025zm-25.97-3.605H23.37l-1.062 2.748h2.2l.91-2.748zm-3.767 4.513l-.709 1.84a32.44 32.44 0 012.251.303l.733-2.168H21.65v.025zm35.883-4.513l2.074 5.799h2.453l-1.492-3.656c-1.062.832-1.72 1.412-1.72 1.412s.607-.731 1.593-1.765l-.733-1.79h-2.175z"/><path d="M80.52 48.353c.606-.857.556-.555.227-1.16-.303-.605-2.63-4.008-4.501-4.815.076-.227.152-.479.202-.756-.278-.151-1.82-.908-4.628-.68-.227.402-.48.831-.581 1.688-.026.328-.127.656-.253 1.008l-1.442-2.142c-1.567.63-3.363 1.689-5.032 2.798L68.28 48l-2.453-4.412h1.82l5.514 9.252.025.025h-2.402l-5.109-5.269 2.681 5.27h-2.225l-3.414-7.286c-.228.176-.48.353-.708.504l2.15 4.815c.227.53.227.983-.051 1.387-.279.403-.709.605-1.29.605h-2.554c-.582 0-1.189-.202-1.77-.605-.557-.404-.936-.858-1.088-1.362l-.38-1.16s-.252.328-.758.832l.683 2.295h-2.225l-.203-.757a18.687 18.687 0 01-7.662 3.505c-9.028 1.915-16.589-1.664-16.589-1.664s-6.828-1.26-13.529-.429c-4.425.555-8.295 2.395-8.295 2.395s2.125-3.05 6.904-4.185l2.175-4.487-3.389 3.252-.025-3.277-3.136 5.647H8.752l5.513-9.252h1.846l.151 2.773 3.06-2.799h1.846l-3.413 7.74c.354-.025.707-.05 1.062-.05l2.63-6.253c.177-.403.505-.73 1.011-1.033.48-.278.986-.429 1.467-.429h1.972c.48 0 .885.151 1.164.429.303.302.379.63.252 1.033l-2.098 7.11c.328.075.657.176.986.277l2.427-8.824h3.718c.48 0 .885.152 1.239.429.329.302.48.63.404 1.033l-.278 1.891c-.05.353-.227.68-.53.958a2.626 2.626 0 01-1.088.63l1.188 4.311h-2.377l-.96-4.184h-.633l-.986 4.184h-.759c1.695.58 2.757 1.084 2.757 1.084s6.044 1.362 14.186.177a38.82 38.82 0 005.64-1.235h-.127l-1.542-9.252h1.846l.708 3.352h2.25l-.86-3.352h1.846l1.973 6.655c.556-.328.86-.555.86-.555L55.61 45.05c-.127-.403-.05-.73.227-1.033.279-.278.658-.429 1.164-.429H59.1c.481 0 .987.151 1.492.429.506.302.86.63 1.037 1.033l.177.404c.203-.202.43-.404.633-.605l-.582-1.236h1.947a31.816 31.816 0 013.262-2.495h-54.42L2 57h77.963l-2.529-3.782c.102-.353.33-.806.734-1.361.91-1.26 1.745-2.647 2.351-3.504zm-32.926-4.765l.228 1.462h-1.897l.835 7.79h-2.225l-.506-7.79h-1.897l-.025-1.462h5.487zm-12.29 1.462c.051-.403.279-.73.683-1.033.405-.278.86-.429 1.34-.429H39.3c.48 0 .91.151 1.29.429.379.302.581.63.581 1.033l.026 7.79H38.97l.127-3.302h-2.276l-.279 3.302H34.37l.935-7.79zm41.726 5.345c-.127.63-.253 1.16-.405 1.613l-3.49-5.193c.405-.454.784-.882 1.012-1.21 2.048 1.286 3.16 1.361 3.667 1.664.506.302.48 1.059.48 1.059s-1.062.932-1.264 2.067z"/><path d="M39.274 45.05h-2.048l-.228 2.748h2.175l.101-2.748zm-7.18 0h-1.922l-.455 1.916h2.023l.354-1.916z"/></g><defs><clipPath id="clip0"><path fill="#fff" transform="translate(2 27)" d="M0 0h79v30H0z"/></clipPath></defs></svg>