<svg width="84" height="84" fill="none" xmlns="http://www.w3.org/2000/svg"><rect width="83.102" height="83.1" rx="7" fill="#fff"/><path d="M63.544 22.355v-.043c0-5.71-4.672-10.312-10.426-10.312H30.882c-5.754 0-10.426 4.602-10.426 10.27v.043H16v34.644c0 8.31 6.835 15 15.228 15h21.544c8.436 0 15.228-6.733 15.228-15V22.355h-4.456z" fill="#D32027"/><path d="M60.387 27.64v-3.325c0-5.07-4.24-9.204-9.43-9.204H32.96c-5.148 0-9.345 4.133-9.345 9.204v4.176c0 3.026 1.817 5.839 4.889 7.586L49.96 48.179c1.212.81 2.423 1.832 2.423 3.707v1.577c0 2.13-1.774 3.878-3.937 3.878H35.21c-2.163 0-4.023-1.79-4.023-3.878v-1.406h-7.57v3.324c0 5.07 4.196 9.204 9.344 9.204H51c5.19 0 9.43-4.133 9.43-9.204v-4.176c0-3.026-1.816-5.839-4.888-7.586l-21.5-12.23c-1.472-.767-2.467-2.173-2.467-3.622V26.19c0-2.173 1.774-3.878 4.024-3.878h13.108c2.206 0 4.023 1.748 4.023 3.878v1.406h7.657v.043z" fill="#fff"/></svg>