<svg width="84" height="84" fill="none" xmlns="http://www.w3.org/2000/svg"><rect width="83.102" height="83.1" rx="7" fill="#fff"/><path d="M7.614 49.328v4.115H3V33.616h4.614v9.228l4.333-5.144h5.674l-5.923 7.326c1.246.343 2.338 1.029 3.335 1.995 1.528 1.527 2.307 3.647 2.307 6.36h-4.645c0-1.434-.312-2.463-.966-3.118a3.13 3.13 0 00-2.276-.935h-1.84zM20.8 36.515a2.213 2.213 0 01-1.651-.685 2.283 2.283 0 01-.686-1.653c0-.623.218-1.184.686-1.62a2.282 2.282 0 011.652-.687c.623 0 1.184.219 1.621.686.436.437.686.998.686 1.621 0 .655-.218 1.185-.686 1.653-.437.467-.998.685-1.621.685zm2.308 1.154v15.774h-4.645V37.669h4.645zm16.832 7.887c0 2.182-.78 4.053-2.307 5.58-1.527 1.527-3.398 2.307-5.58 2.307s-4.053-.78-5.611-2.307c-1.528-1.528-2.307-3.398-2.307-5.58s.78-4.053 2.307-5.58c1.527-1.528 3.398-2.307 5.61-2.307 1.684 0 2.775.156 3.243.499v-4.552h4.614v11.94h.03zm-5.58 2.307c.654-.655.966-1.403.966-2.307 0-.904-.312-1.683-.966-2.307-.655-.624-1.403-.966-2.307-.966-.904 0-1.683.311-2.307.966-.655.623-.966 1.403-.966 2.307 0 .904.311 1.683.966 2.307.655.654 1.403.966 2.307.966.904 0 1.652-.312 2.307-.966zm24.318 5.642v-7.887c0-.904-.312-1.683-.966-2.306-.655-.655-1.403-.967-2.307-.967-.904 0-1.684.312-2.307.967-.624.654-.935 1.402-.935 2.306 0 .873.311 1.653.935 2.307.623.655 1.403.967 2.307.967h2.182v4.613h-2.182c-2.183 0-4.053-.779-5.58-2.306-1.528-1.528-2.307-3.398-2.307-5.58 0-2.214.779-4.053 2.306-5.612 1.528-1.527 3.398-2.307 5.58-2.307 2.183 0 4.053.78 5.58 2.307 1.528 1.528 2.308 3.398 2.308 5.611v7.887h-4.614zM68.84 38.168c.468-.343 1.559-.5 3.273-.5 2.183 0 4.053.78 5.58 2.308 1.528 1.527 2.308 3.398 2.308 5.58s-.78 4.053-2.308 5.58c-1.527 1.527-3.397 2.307-5.58 2.307-2.213 0-4.052-.78-5.61-2.307-1.528-1.528-2.308-3.398-2.308-5.58v-11.94h4.614v4.552h.031zm5.58 9.695c.655-.655.967-1.403.967-2.307 0-.904-.312-1.683-.967-2.307-.654-.624-1.402-.966-2.306-.966-.904 0-1.684.311-2.307.966-.655.623-.967 1.403-.967 2.307 0 .904.312 1.683.967 2.307.654.654 1.403.966 2.306.966.905 0 1.653-.312 2.307-.966zM46.332 30h-5.549v2.4h.935v19.297c0 .966.811 1.777 1.777 1.777h1.091c.967 0 1.777-.81 1.777-1.777V44.06h-2.307v-1.154h2.307v-1.434h-2.307v-1.185h2.307v-1.434h-2.307V37.7h2.307v-5.3h.904V30h-.935z" fill="#EB673B"/></svg>