<svg width="84" height="84" fill="none" xmlns="http://www.w3.org/2000/svg"><rect width="83.102" height="83.1" rx="7" fill="#fff"/><path d="M38.012 35.24H50V32H34v19h16v-3.24H38.012v-4.433H43.6v-3.654h-5.588V35.24z" fill="#A11F4F"/><path d="M20.556 32.349c.633-.578.575-1.445-.086-1.974l-.029-.024c-.661-.506-1.725-.457-2.33.096-6.815 6.258-6.815 15.838 0 22.096A1.8 1.8 0 0019.32 53c.402 0 .805-.12 1.121-.361.662-.53.72-1.396.087-1.974-5.608-5.199-5.608-13.142.028-18.316z" fill="#9E9E9E"/><path d="M14.607 25.31c.56-.572.51-1.43-.076-1.954h-.025c-.586-.5-1.527-.477-2.062.095-9.925 10.221-9.925 25.851 0 36.096.28.286.662.453 1.069.453.356 0 .713-.12.993-.357.585-.525.636-1.382.076-1.954-8.882-9.22-8.882-23.23.025-32.38z" fill="#9E9E9E"/><path d="M42 24c-9.398 0-17 8.046-17 18s7.602 18 17 18 17-8.046 17-18c0-9.93-7.602-18-17-18zm1.796 14.6c.653 0 1.049.587 1.049 1.272v3.742c0 .611-.49 1.076-1.05 1.076h-4.407v2.03h10.657c.653 0 1.05.587 1.05 1.272v3.35c0 .612-.49 1.077-1.05 1.077H34.421c-.653 0-1.282-.514-1.282-1.174V32.169c0-.66.63-1.272 1.282-1.272h15.624c.653 0 1.05.587 1.05 1.272v3.35c0 .611-.49 1.076-1.05 1.076H39.388v2.03h4.408V38.6z" fill="#A11F4F"/><path d="M65.897 30.447c-.606-.553-1.644-.602-2.337-.096l-.028.024c-.664.53-.722 1.396-.087 1.974 5.655 5.199 5.655 13.117 0 18.316-.635.578-.577 1.444.087 1.974.317.24.72.361 1.125.361.461 0 .923-.169 1.211-.457 6.838-6.258 6.838-15.838.03-22.096z" fill="#9E9E9E"/><path d="M71.552 23.443c-.534-.549-1.449-.596-2.058-.095h-.026c-.584.525-.635 1.384-.076 1.957 8.893 9.186 8.893 23.194 0 32.38-.559.573-.508 1.432.076 1.957.28.239.635.358.991.358.407 0 .813-.167 1.067-.453 9.961-10.213 9.961-25.867.026-36.104z" fill="#9E9E9E"/></svg>