<svg width="84" height="84" fill="none" xmlns="http://www.w3.org/2000/svg"><rect width="83.102" height="83.1" rx="7" fill="#fff"/><path fill-rule="evenodd" clip-rule="evenodd" d="M30.068 56.874c0 7.287 5.44 10.674 10.982 10.777 5.645.102 11.392-3.593 11.392-11.085v-6.979c0-7.39-5.747-11.187-11.392-11.084-5.542.205-10.982 3.592-10.982 10.879v7.492zM41.153 15c-2.053 0-3.797.308-5.234 1.026-2.566 1.232-4.516 3.387-5.337 6.158-.821 2.566-.821 5.44.308 7.903 1.847 3.9 5.85 6.158 10.16 6.158h.308c4.208 0 8.108-2.463 10.058-6.158 1.335-2.668 1.335-6.26.103-8.929-1.232-2.566-3.387-4.516-6.055-5.542-1.335-.41-2.771-.616-4.311-.616z" fill="#EC018C"/></svg>