<svg width="84" height="84" fill="none" xmlns="http://www.w3.org/2000/svg"><rect width="83.102" height="83.1" rx="7" fill="#fff"/><g clip-path="url(#clip0)" fill="#FACA31"><path d="M24.676 23.863l23.184-9.722-.862-.305A5216.013 5216.013 0 0034.822 9.61c-.253-.153-1.725-.967-3.348-.51-1.116.306-2.029 1.07-2.689 2.342-.963 1.782-4.717 9.06-6.848 13.234l-.609 1.222 1.116-.764c.71-.509 1.471-.916 2.232-1.272zM29.394 11.8c.609-1.07 1.37-1.782 2.283-1.986.254-.05.558-.101.812-.101 1.116 0 2.08.56 2.08.56l.05.05s5.023 1.731 11.364 3.92l-21.154 8.806-.457.203a9.957 9.957 0 00-1.268.662c3.348-6.515 5.63-10.893 6.29-12.114zm12.632 54.26c10.806 3.664 20.597 6.922 21.256 7.126.254.152 1.472.865 2.841.865a3.33 3.33 0 001.522-.356c1.32-.662 2.08-2.19 2.283-4.632.152-1.986.609-5.854 1.42-12.624l.051-.56-30.387 9.824 1.014.356zm28.612-9.163c-.812 6.414-1.217 10.18-1.37 12.115-.203 2.138-.811 3.512-1.877 4.072-1.623.814-3.703-.458-3.754-.51l-.05-.05s-9.487-3.156-20.292-6.82l27.343-8.807zm.861-34.154c-1.319-.61-5.733-2.24-13.443-4.988l-.102-.05-26.38 10.586c-.101.051-.456.255-.66.357-1.014.865-1.369 1.832-1.065 2.646.102.306.254.611.406.866.355.61.66 1.018.914 1.323.152.153.304.306.507.408.203.101.456.152.811.254h.863c.406-.05.812-.153 1.217-.305 1.015-.306 2.131-.713 3.45-1.222l9.537-3.767c1.928-.763 4.008-1.374 6.24-1.934a31.147 31.147 0 017.61-.814c1.674 0 3.297.203 4.82.61 1.521.357 2.992.866 4.413 1.477a24.47 24.47 0 013.601 1.934l.457.305.203-1.476c0-.05.913-4.276-3.399-6.21zm2.74 6.057l-.051.459c-1.015-.611-2.131-1.222-3.247-1.68a31.383 31.383 0 00-4.515-1.527 20.564 20.564 0 00-5.022-.611 30.267 30.267 0 00-7.762.865c-2.283.56-4.414 1.171-6.341 1.934l-9.436 3.665c-1.32.51-2.435.917-3.45 1.222-.406.153-.76.204-1.116.255-.203.05-.609 0-.71 0a5.252 5.252 0 01-.609-.153c-.152-.051-.203-.153-.304-.204a7.817 7.817 0 01-.863-1.221c-.101-.204-.203-.459-.355-.713-.203-.56.102-1.222.863-1.883.05-.051.304-.204.456-.255l26.126-10.485c7.61 2.697 11.973 4.326 13.24 4.886 3.856 1.73 3.146 5.294 3.095 5.446zm-14.66 16.39a1.71 1.71 0 00.71-.458c.203-.203.355-.458.457-.814.304-.967.355-1.578.304-1.934v-.051c0-.407-.101-.764-.304-1.12a16.24 16.24 0 00-.812-1.17c-.152-.154-.304-.357-.457-.51l-1.217-1.221c-.254-.204-.457-.357-.812-.51a3.27 3.27 0 00-1.065-.305h-.102c-.456-.05-1.319-.102-2.536.153-1.218.254-2.587.662-4.11 1.221l-10.5 3.869a51.049 51.049 0 01-6.443 1.832c-2.384.51-4.667.611-6.849.408-1.319-.153-2.485-.51-3.5-1.018-.964-.459-1.826-1.018-2.537-1.68a11.424 11.424 0 01-1.826-2.036 10.268 10.268 0 01-.913-1.629c-.102-.153-.152-.356-.203-.56l-.254-.814c-.05-.102-.05-.204-.101-.306l-.203-.916-6.493 12.725c-.051.102-1.32 2.138-.61 4.276.508 1.476 1.776 2.647 3.856 3.461 1.218.458 3.805 1.374 8.219 2.901l.101.051 37.997-13.794.203-.05zm-38.15 13.133c-4.311-1.476-6.95-2.444-8.116-2.85-1.877-.713-3.044-1.731-3.45-3.055-.608-1.883.508-3.715.558-3.766l5.733-11.148.152.408c.05.203.152.407.254.56.253.61.608 1.17.964 1.73.507.764 1.166 1.476 1.927 2.138.812.713 1.674 1.272 2.689 1.781 1.065.51 2.334.866 3.703 1.07 2.232.254 4.617.101 7.052-.408 2.333-.509 4.566-1.12 6.544-1.832l10.501-3.869a26.12 26.12 0 014.008-1.17c1.217-.255 1.978-.204 2.283-.153h.05c.356.05.66.153.964.305.254.102.457.204.61.357.456.407.81.763 1.166 1.17.152.153.304.357.456.51.305.356.559.712.761 1.068.102.204.203.458.203.866 0 .254 0 .814-.304 1.73a.741.741 0 01-.304.458c-.153.153-.305.204-.508.306L21.43 58.323z"/><path d="M72.059 31.396a21.36 21.36 0 00-3.348-1.934 26.464 26.464 0 00-3.704-1.323c-1.167-.306-2.435-.51-3.754-.51-2.333-.05-4.515.153-6.696.662-2.13.51-4.059 1.07-5.834 1.782l-9.69 3.767c-1.42.508-2.638.967-3.754 1.323-.66.204-1.268.356-1.877.407a10.31 10.31 0 01-1.775 0 5.177 5.177 0 01-1.42-.458 2.92 2.92 0 01-.965-.764c-.253-.356-.507-.661-.76-1.068-.102-.153-.153-.306-.254-.408-.152-.356-.305-.661-.406-.967-.101-.356-.101-.763 0-1.272.102-.458.355-.967.812-1.629.203-.305.507-.61.811-.916a5.05 5.05 0 011.167-.713l24.706-10.333-6.088-2.341-23.64 9.824-.305.152c-.913.408-1.724.917-2.587 1.578-.964.764-1.775 1.477-2.333 2.138-.305.357-.61.713-.863 1.018l-1.217 2.392c-.355 1.12-.355 2.291-.051 3.513v.101c0 .255.05.51.152.713l.406.967c.05.153.101.255.203.407.203.459.507.968.862 1.477.457.61 1.015 1.221 1.675 1.781.659.56 1.42 1.018 2.232 1.425.811.357 1.724.611 2.79.764 1.826.152 3.805.05 5.783-.407 2.13-.459 4.11-1.018 5.834-1.68l10.248-3.818c1.623-.61 3.094-1.069 4.515-1.374 1.521-.305 2.891-.407 4.109-.204h.101c.761.153 1.42.306 2.03.56a5.469 5.469 0 011.673 1.018c.558.51 1.015.916 1.42 1.375.204.203.356.407.559.61.406.459.76.917 1.065 1.375.355.509.558 1.12.609 1.883.05.713-.05 1.476-.355 2.494a3.48 3.48 0 01-.862 1.425c-.406.408-.964.764-1.624 1.018l-37.033 13.03 11.922 3.971 34.851-11.605.457-.153.05-.203c.66-5.345 1.472-11.657 2.436-18.885v-.254l-.203-.102c-.609-.56-1.32-1.069-2.08-1.629z"/></g><defs><clipPath id="clip0"><path fill="#fff" transform="translate(9 9)" d="M0 0h66v65H0z"/></clipPath></defs></svg>