<svg width="84" height="84" fill="none" xmlns="http://www.w3.org/2000/svg"><rect width="83.102" height="83.1" rx="7" fill="#fff"/><path d="M76 23.133l-40.533 4.41L32.8 12l-8.907 16.834L8 30.555 44.747 71l-5.494-28.344L76 23.133zm-65.973 9.681l.693.108 10.56 5.593 8.267-11.133s2.133-2.904 2.773.914l6.507 36.25-28.8-31.732z" fill="url(#paint0_linear)"/><path d="M12.64 35.557l7.52 8.175-7.627 11.456h4.587l5.546-8.713 13.867 15.113-6.027-32.646-8.32 11.832-9.546-5.217zm15.573 2.313v6.669l-3.093-1.775 3.093-4.894z" fill="url(#paint1_linear)"/><defs><linearGradient id="paint0_linear" x1="59.623" y1="22.023" x2="15.435" y2="59.582" gradientUnits="userSpaceOnUse"><stop stop-color="#E3B14B"/><stop offset=".828" stop-color="#FAF3A2"/><stop offset="1" stop-color="#E7B650"/></linearGradient><linearGradient id="paint1_linear" x1="57.812" y1="19.893" x2="13.624" y2="57.451" gradientUnits="userSpaceOnUse"><stop stop-color="#E3B14B"/><stop offset=".828" stop-color="#FAF3A2"/><stop offset="1" stop-color="#E7B650"/></linearGradient></defs></svg>