<svg width="84" height="84" fill="none" xmlns="http://www.w3.org/2000/svg"><rect width="83.102" height="83.1" rx="7" fill="#fff"/><g clip-path="url(#clip0)" fill="#648CFF"><path d="M8.78 49a2.898 2.898 0 01-2.103-.84c-.59-.552-.921-1.32-.968-2.136L5 34h3.708l.378 10.584L13.81 34h4.11l-7.04 15h-2.1zm17.69-4.848h-2.244c0 .024-.047.24-.142.624-.094.456-.236.984-.378 1.584-.142.624-.283 1.176-.401 1.68-.118.504-.19.816-.213.936h-3.59l2.952-12.504C23.021 34.816 24.061 34 25.55 34h7.085c1.725-.024 3.118 1.392 3.142 3.12 0 .24-.024.48-.071.72-.213.864-.378 1.608-.52 2.184-.141.576-.26 1.128-.378 1.632a3.253 3.253 0 01-1.133 1.776 3.13 3.13 0 01-1.984.696h-1.323L33.177 49h-3.873l-2.834-4.848zm5.81-6.192a.406.406 0 00-.094-.36.411.411 0 00-.331-.168h-5.574a.49.49 0 00-.26.096.457.457 0 00-.165.264l-.638 2.88h6c.212.024.377-.12.448-.312l.614-2.4zm5.102-1.488C37.95 34.816 38.965 34 40.406 34h10.628l-3.542 15h-3.449l.992-4.128 1.748-7.44h-5.881c-.095 0-.166.048-.237.096a.457.457 0 00-.165.264l-.874 3.648h5.197l-.827 3.456h-5.173L37.831 49h-3.425l2.976-12.528zm14.622 0c.59-1.656 1.63-2.472 3.118-2.472h10.061l-.803 3.432h-8.668a.49.49 0 00-.26.096c-.094.072-.141.168-.189.264l-1.677 7.248c-.023.12 0 .264.095.36.07.096.212.168.33.144h8.48c-.236 1.056-.52 2.184-.803 3.432H53.09a2.969 2.969 0 01-2.503-1.272 3.371 3.371 0 01-.59-2.592l2.007-8.64zm13.816 0C66.41 34.816 67.45 34 68.962 34H79l-.803 3.432H69.53a.49.49 0 00-.26.096.503.503 0 00-.19.264l-.471 1.968h5.904l-.779 3.432h-5.905l-.425 1.824a.492.492 0 00.094.36.34.34 0 00.331.144h8.456a163.459 163.459 0 01-.803 3.432h-8.598a2.982 2.982 0 01-2.456-1.176 3.054 3.054 0 01-.614-2.688l2.007-8.616zm-46.86 7.752l.78-3.48h-3.402l-.78 3.48h3.402z"/></g><defs><clipPath id="clip0"><path fill="#fff" transform="translate(5 34)" d="M0 0h74v15H0z"/></clipPath></defs></svg>