<svg width="120" height="84" fill="none" xmlns="http://www.w3.org/2000/svg"><mask id="a" maskUnits="userSpaceOnUse" x="18" y="0" width="84" height="84"><rect x="18" width="83.102" height="83.1" rx="7" fill="#fff"/></mask><g mask="url(#a)"><mask id="b" maskUnits="userSpaceOnUse" x="-5" y="15" width="129" height="53"><path d="M81.844 68a4.809 4.809 0 01-3.32-1.304c-.845-.85-1.351-1.984-1.351-3.174V44.816c0-.453-.17-.85-.507-1.19-.337-.284-.731-.51-1.182-.51H67.38V21.801c0-.793-.338-1.53-.9-2.04-.564-.567-1.352-.85-2.14-.85l-4.784-.057H59.5v33.84H45.148V33.593H39.97c-.45 0-.844.17-1.182.453-.281.283-.507.68-.507 1.134v28.285c0 .567-.112 1.19-.337 1.7-.225.568-.563 1.021-1.013 1.475a5.33 5.33 0 01-1.52.963 4.845 4.845 0 01-1.801.34H-4.662c-.057 0-.17 0-.225-.056-.057 0-.113-.114-.113-.17 0-.057 0-.17.056-.227.057-.057.113-.114.225-.114l37.485-2.154c.394 0 .788-.17 1.07-.453.28-.283.45-.68.45-1.077v-29.25c0-1.19.506-2.323 1.35-3.174.9-.85 2.083-1.303 3.264-1.36h10.075v19.046h6.529V15H66.14a5.1 5.1 0 013.546 1.417 4.699 4.699 0 011.463 3.401v19.556h5.91a4.11 4.11 0 012.758 1.077c.732.68 1.126 1.644 1.126 2.664v20.577c0 .397.169.794.45 1.077.281.283.675.453 1.07.453 13.789.737 27.522 1.474 41.311 2.268-13.846.17-27.86.34-41.93.51z" fill="#939598"/></mask><g mask="url(#b)"><rect x="18" y="4" width="83" height="75" rx="10" fill="#9F224E"/></g></g></svg>