<svg width="110" height="111" fill="none" xmlns="http://www.w3.org/2000/svg"><path d="M70.021 66.987L56.032 43.104l-.682-.796L23.392 66.76l-4.322 5.345 8.075 11.714 13.875-5.573 29.001-11.259zM2.352 19.561h21.381v29.527H2.352zm12.507 57.434h6.71v4.89h-6.71zm28.493-64.03h6.085v6.596h-6.085z" fill="#43D3E8"/><circle cx="93.107" cy="74.607" r="5.232" fill="#43D3E8"/><path d="M44.318 86.207l-5.004-7.279-4.322 3.298 3.753 6.71 2.844 1.138 2.729-1.138v-2.73z" fill="#43D3E8"/><path d="M63.993 96.442h-3.639V78.61a1.82 1.82 0 00-3.64 0v17.832H9.405V60.05h15.139a1.82 1.82 0 000-3.64H7.583a1.82 1.82 0 00-1.82 1.82v38.213H2.125a1.82 1.82 0 00-1.82 1.82v3.64a9.097 9.097 0 009.1 9.098h47.31a9.1 9.1 0 009.099-9.098v-3.64a1.82 1.82 0 00-1.82-1.82zm-1.82 5.46a5.46 5.46 0 01-5.458 5.459h-3.64v-1.82a1.82 1.82 0 10-3.64 0v1.82H16.683v-1.82a1.82 1.82 0 10-3.64 0v1.82h-3.64a5.462 5.462 0 01-5.459-5.459v-1.82h58.23v1.82zM94.93 12.738h3.64a1.82 1.82 0 000-3.64h-3.64a5.46 5.46 0 00-5.459 5.46v1.82h-1.82a1.82 1.82 0 000 3.639h1.82v5.459a1.82 1.82 0 103.64 0v-5.46h1.82a1.82 1.82 0 100-3.639h-1.82v-1.82a1.82 1.82 0 011.82-1.819z" fill="#707070"/><path d="M104.026 1.82H82.189a5.459 5.459 0 00-5.458 5.458v3.64a1.82 1.82 0 103.639 0v-3.64a1.82 1.82 0 011.82-1.82h21.836a1.819 1.819 0 011.819 1.82v21.837a1.817 1.817 0 01-1.819 1.82H82.189a1.82 1.82 0 01-1.82-1.82v-10.92a1.82 1.82 0 00-3.638 0v10.918a5.459 5.459 0 005.459 5.46h21.836a5.46 5.46 0 005.459-5.46V7.279a5.462 5.462 0 00-5.459-5.459zM85.832 74.607a7.279 7.279 0 1014.558 0 7.279 7.279 0 00-14.558 0zm10.918 0a3.64 3.64 0 11-7.278 0 3.64 3.64 0 017.278 0z" fill="#707070"/><path d="M104.026 58.23H82.189a5.459 5.459 0 00-5.458 5.459v21.836a5.459 5.459 0 005.459 5.459h21.836a5.46 5.46 0 005.459-5.46v-3.639a1.82 1.82 0 00-3.64 0v3.64a1.816 1.816 0 01-1.819 1.82H82.189a1.82 1.82 0 01-1.82-1.82V63.688a1.82 1.82 0 011.82-1.82h21.837a1.819 1.819 0 011.819 1.82v10.919a1.82 1.82 0 003.64 0V63.688a5.462 5.462 0 00-5.459-5.459zM41.195 23.383a1.82 1.82 0 001.783.073l10.918-5.46a1.82 1.82 0 000-3.238l-10.918-5.46a1.82 1.82 0 00-2.638 1.62v10.918a1.82 1.82 0 00.855 1.547zm2.784-9.517l5.023 2.511-5.023 2.511v-5.022z" fill="#707070"/><path d="M45.795 32.754a16.377 16.377 0 100-32.754 16.377 16.377 0 000 32.754zm0-29.115a12.738 12.738 0 110 25.477 12.738 12.738 0 010-25.477zm18.2 36.394a1.82 1.82 0 001.456-.728l5.46-7.279a1.82 1.82 0 10-2.912-2.183l-5.46 7.278a1.82 1.82 0 001.456 2.912zm4.002 6.551a1.82 1.82 0 002.547.364l7.279-5.46a1.82 1.82 0 00-2.184-2.91l-7.278 5.458a1.82 1.82 0 00-.364 2.548zm17.83 4.003a1.82 1.82 0 00-2.183-1.456l-9.099 1.82a1.83 1.83 0 10.364 3.64h.364l9.099-1.82a1.82 1.82 0 001.455-2.184zm-83.703.363h21.837a1.82 1.82 0 001.82-1.82V20.017a1.82 1.82 0 00-1.82-1.82H2.123a1.82 1.82 0 00-1.82 1.82v29.115a1.82 1.82 0 001.82 1.82zm1.82-29.114h18.197V47.31H3.944V21.836z" fill="#707070"/><path d="M16.682 25.476h-3.64a1.82 1.82 0 000 3.639h3.64a1.82 1.82 0 000-3.64zm.002 7.278H9.406a1.82 1.82 0 100 3.64h7.278a1.82 1.82 0 000-3.64zm0 7.279H9.406a1.82 1.82 0 100 3.64h7.278a1.82 1.82 0 100-3.64zm45.709 10.372a1.826 1.826 0 00-3.166 1.82l8.025 13.884-29.115 10.918h-.273l-4.731 2.73-3.148 1.819a3.639 3.639 0 01-2.766.364 3.64 3.64 0 01-2.202-1.692l-3.64-6.297a3.639 3.639 0 011.366-4.803l6.296-3.64 4.549 7.88a1.82 1.82 0 001.583.91 1.82 1.82 0 001.583-2.73l-4.695-8.116 22.837-18.834.746 1.292a1.825 1.825 0 103.166-1.82l-1.82-3.148a1.82 1.82 0 00-1.255-.873 1.82 1.82 0 00-1.492.382l-25.475 21-7.752 4.476a7.278 7.278 0 00-3.348 8.243l-1.82 1.037a5.459 5.459 0 001.31 10.008c.463.123.94.184 1.42.182a5.568 5.568 0 002.729-.728l1.82-1.037a7.06 7.06 0 003.184 1.893c.622.173 1.265.26 1.91.254a7.169 7.169 0 003.64-.982l1.583-.91 3.64 6.314a5.46 5.46 0 007.442 2.002 5.458 5.458 0 002.002-7.46l-3.312-5.77L70.509 68.73a1.82 1.82 0 001.175-1.86 1.82 1.82 0 00-.229-.742l-9.062-15.722zm-42.98 31.098a1.82 1.82 0 01-1.383.182 1.82 1.82 0 01-1.11-.837 1.82 1.82 0 01.673-2.493l1.583-.91 1.82 3.148-1.583.91zm23.946 5.095a1.819 1.819 0 01.182 1.383 1.82 1.82 0 01-.855 1.092 1.82 1.82 0 01-2.475-.655l-3.639-6.314 3.02-1.73h.146l3.621 6.224z" fill="#707070"/></svg>