<svg width="103" height="103" fill="none" xmlns="http://www.w3.org/2000/svg"><path d="M15.44 10.299a5.144 5.144 0 11-10.289 0 5.144 5.144 0 0110.29 0zm0 82.304a5.144 5.144 0 11-10.289 0 5.144 5.144 0 0110.29 0zm82.305-82.304a5.144 5.144 0 11-10.289 0 5.144 5.144 0 0110.29 0zm3.429 41.151a8.573 8.573 0 11-8.573-8.573 8.573 8.573 0 018.573 8.574zm-3.429 41.153a5.144 5.144 0 11-10.289 0 5.144 5.144 0 0110.29 0zm-37.723 0a8.574 8.574 0 11-17.147 0 8.574 8.574 0 0117.147 0zM18.87 51.45a8.573 8.573 0 01-8.574 8.574 8.573 8.573 0 110-17.147 8.573 8.573 0 018.574 8.574zm44.482 5.3c.068.517.103 1.038.102 1.56h.171l-.273-1.56zm-6.105-8.951l-1.166-.635-.017.018 1.183.634c.086.035.166.081.24.138a1.127 1.127 0 00-.24-.155zm-10.425-.635l-1.166.635a1.156 1.156 0 00-.24.155 1.06 1.06 0 01.24-.138l1.183-.634-.017-.018zM39.277 58.31h.171c0-.521.035-1.042.103-1.56l-.274 1.56zm20.745-48.011a8.573 8.573 0 11-17.147 0 8.573 8.573 0 0117.147 0z" fill="#43D3E8"/><path d="M68.516 62.94c.28-.417.53-.846.777-1.278.09-.16.193-.313.28-.475.186-.343.343-.701.515-1.052.127-.271.26-.538.376-.813.115-.277.192-.515.288-.782.14-.384.286-.767.404-1.161.046-.156.079-.314.12-.47.139-.5.271-1.003.37-1.517l.01-.057c.132-.718.228-1.442.284-2.17h10.53a10.287 10.287 0 0011.005 8.538A10.289 10.289 0 1082.47 49.736H71.94a20.505 20.505 0 00-.291-2.165l-.009-.057a19.62 19.62 0 00-.37-1.517c-.042-.157-.074-.314-.12-.47-.119-.394-.265-.775-.405-1.16-.096-.261-.182-.526-.289-.785-.105-.258-.248-.54-.375-.809-.163-.353-.322-.708-.514-1.055-.088-.161-.19-.315-.281-.474a21.916 21.916 0 00-.777-1.278c-.028-.04-.06-.08-.09-.121a20.051 20.051 0 00-1.275-1.669l21.998-21.991a6.762 6.762 0 003.461.972 6.859 6.859 0 10-6.859-6.859 6.774 6.774 0 00.973 3.462l-21.99 21.99a20.49 20.49 0 00-1.75-1.334l-.032-.024a20.351 20.351 0 00-1.358-.827c-.133-.073-.258-.158-.392-.23-.375-.202-.759-.375-1.143-.552-.24-.11-.473-.23-.717-.332-.295-.122-.595-.22-.895-.328-.343-.125-.686-.257-1.044-.365-.204-.062-.413-.105-.619-.16a19.504 19.504 0 00-1.372-.332c-.092-.019-.187-.026-.28-.043a20.094 20.094 0 00-1.963-.26v-10.53A10.288 10.288 0 0051.447 0a10.289 10.289 0 00-1.714 20.432v10.53c-.67.055-1.33.144-1.982.262-.086.018-.172.025-.259.041-.472.092-.93.215-1.39.344-.198.052-.398.094-.594.152-.363.111-.715.245-1.07.374-.291.107-.583.2-.87.32-.253.106-.495.229-.742.342-.376.171-.75.343-1.117.54-.145.078-.28.171-.42.247a18.38 18.38 0 00-1.331.81l-.067.049c-.595.406-1.167.844-1.715 1.31L16.185 13.76a6.763 6.763 0 00.972-3.462 6.859 6.859 0 10-6.859 6.859 6.763 6.763 0 003.462-.972l21.992 21.991c-.454.533-.88 1.09-1.277 1.669-.029.04-.06.08-.088.121-.28.417-.53.846-.777 1.278-.091.159-.194.313-.282.474-.185.344-.342.7-.514 1.053-.125.271-.26.535-.376.813-.114.278-.191.515-.286.78-.142.385-.286.767-.406 1.163-.046.156-.079.313-.12.47-.139.5-.27 1.003-.37 1.517v.057c-.137.716-.234 1.44-.294 2.165h-10.53a10.29 10.29 0 100 3.43h10.53c.059.726.156 1.45.292 2.165v.057c.1.514.232 1.017.37 1.517.042.157.074.314.12.47.12.396.264.779.406 1.165.097.258.18.514.287.778.106.264.25.544.377.814.172.343.323.707.514 1.052.088.16.19.315.282.474.247.432.497.858.777 1.278.027.041.06.08.088.122a20.43 20.43 0 001.276 1.668l-21.99 21.991a6.774 6.774 0 00-3.463-.972 6.86 6.86 0 106.859 6.858 6.762 6.762 0 00-.972-3.46l21.99-21.99c.548.463 1.12.898 1.714 1.302l.079.059c.427.286.857.543 1.308.795.15.087.293.18.444.263.355.19.72.353 1.084.514.26.123.514.252.78.362.266.11.542.2.815.299.373.136.746.279 1.128.394.171.05.343.084.503.13.49.134.982.263 1.486.362l.086.012c.706.136 1.418.235 2.134.295v10.53a10.289 10.289 0 103.43 0V71.94a20.418 20.418 0 002.14-.288l.086-.012a20.3 20.3 0 001.486-.362c.171-.046.343-.08.502-.13.383-.115.755-.257 1.129-.394.273-.098.547-.187.814-.3.267-.11.514-.239.78-.361.364-.17.73-.33 1.084-.514.15-.082.293-.172.442-.262a22.13 22.13 0 001.31-.798l.074-.053a20.575 20.575 0 001.715-1.307l21.99 21.983a6.773 6.773 0 00-.973 3.461 6.859 6.859 0 106.858-6.858 6.773 6.773 0 00-3.46.972L67.15 64.727c.454-.534.88-1.092 1.276-1.67.028-.04.061-.08.089-.117zm24.087-18.348a6.859 6.859 0 110 13.717 6.859 6.859 0 010-13.717zM10.298 58.31a6.859 6.859 0 110-13.718 6.859 6.859 0 010 13.718zm57.977-3.576c-.082.417-.191.831-.303 1.244-.037.137-.065.278-.106.413-.096.321-.216.633-.33.948-.084.224-.157.451-.248.67-.091.22-.202.438-.304.657-.14.302-.275.606-.433.9-.067.124-.148.244-.218.368-.211.37-.425.74-.664 1.092l-.04.053a17.317 17.317 0 01-4.524 4.532l-.081.06c-.343.231-.706.44-1.068.648-.132.076-.26.161-.397.233-.282.153-.579.285-.872.422-.226.107-.451.221-.686.316-.235.094-.43.157-.646.236-.322.119-.645.242-.973.343-.126.038-.258.066-.385.1a17.78 17.78 0 01-1.27.31h-.039c-2.12.404-4.296.407-6.418.01l-.111-.017c-.408-.079-.81-.187-1.214-.295-.148-.04-.298-.07-.444-.115-.309-.092-.61-.209-.916-.318-.235-.086-.473-.172-.704-.26-.232-.087-.414-.192-.621-.287-.314-.146-.63-.287-.931-.45-.115-.062-.225-.135-.344-.199-.38-.218-.76-.439-1.122-.686l-.019-.013a17.255 17.255 0 01-4.58-4.572l-.042-.055c-.236-.35-.45-.72-.66-1.088-.073-.126-.154-.247-.223-.374-.155-.29-.29-.593-.43-.894-.1-.22-.215-.437-.305-.66-.091-.222-.163-.446-.245-.669-.115-.315-.237-.628-.333-.95-.039-.133-.067-.272-.104-.408a17.53 17.53 0 01-.306-1.248v-.065a17.299 17.299 0 010-6.437v-.065c.082-.42.193-.833.306-1.249.037-.134.065-.273.104-.406.096-.322.218-.636.333-.952.08-.222.154-.45.245-.668.09-.218.204-.441.305-.66.14-.3.275-.604.43-.894.069-.126.15-.248.222-.373.211-.37.425-.738.661-1.09l.041-.054a17.31 17.31 0 014.547-4.548l.056-.04a17.37 17.37 0 011.094-.666c.123-.07.242-.149.367-.216.291-.158.597-.294.898-.433.22-.102.434-.213.657-.304.223-.091.448-.172.672-.247.314-.115.626-.235.945-.33.138-.042.282-.07.419-.107.411-.113.823-.221 1.239-.303l.075-.011c2.121-.405 4.3-.405 6.42 0l.072.011c.417.082.83.191 1.242.303.137.037.28.065.414.106.321.096.633.216.947.33.225.083.453.157.673.248.22.091.435.2.653.301.304.142.61.278.903.436.122.065.239.144.358.213.375.214.746.43 1.103.67l.043.03a17.298 17.298 0 014.56 4.559l.039.053c.238.353.453.722.664 1.092.07.123.15.244.218.369.157.293.293.597.433.898.102.22.213.434.303.657.092.223.172.447.247.67.116.316.236.628.332.949.04.135.069.276.106.413.111.413.221.827.303 1.243l.009.067a17.243 17.243 0 010 6.433l.001.07zM92.603 6.87a3.429 3.429 0 11.001 6.858 3.429 3.429 0 010-6.858zM44.592 10.3a6.86 6.86 0 1113.718 0 6.86 6.86 0 01-13.718 0zm-37.723 0a3.43 3.43 0 116.859 0 3.43 3.43 0 01-6.86 0zm3.43 85.734a3.429 3.429 0 11-.002-6.858 3.429 3.429 0 01.001 6.858zm48.01-3.43a6.859 6.859 0 11-13.718 0 6.859 6.859 0 0113.718 0zm37.724 0a3.429 3.429 0 11-6.86 0 3.43 3.43 0 016.86 0z" fill="#707070"/><path d="M56.593 44.592c0 .202-.016.403-.051.6-.02.18-.048.357-.086.532-.027.17-.073.338-.137.498a4.998 4.998 0 01-.91 1.646l-.239.257a2.754 2.754 0 01-.394.377c-.018 0-.034.017-.052.051a7.303 7.303 0 01-.805.55c-.06.025-.117.053-.172.085a5.202 5.202 0 01-.772.309c-.992.32-2.06.32-3.052 0a5.203 5.203 0 01-.772-.309 1.558 1.558 0 00-.171-.085 5.117 5.117 0 01-.806-.55c-.017-.034-.034-.05-.052-.05a2.755 2.755 0 01-.394-.378l-.24-.257a4.998 4.998 0 01-.909-1.646 2.382 2.382 0 01-.137-.498 4.905 4.905 0 01-.085-.531 3.422 3.422 0 01-.052-.6 5.144 5.144 0 0110.288 0z" fill="#43D3E8"/><path d="M63.625 58.31H39.277l.274-1.56.069-.429c.034-.223.086-.446.137-.669.052-.223.103-.445.172-.669.068-.223.12-.428.188-.651.177-.492.383-.973.617-1.44.12-.223.24-.463.378-.686a6.91 6.91 0 01.412-.669c.154-.223.308-.429.48-.635a11.5 11.5 0 011.063-1.166c.188-.188.394-.377.583-.548a4.29 4.29 0 01.634-.498c.188-.137.395-.274.6-.41.167-.126.344-.234.531-.326.074-.062.154-.113.24-.155l1.167-.635.017.018.652.685.24.257c.118.14.25.266.394.378.017 0 .034.017.051.051.25.209.52.392.806.55.06.024.116.053.172.085.248.123.506.227.771.309.993.32 2.06.32 3.052 0 .266-.082.524-.186.772-.31a1.56 1.56 0 01.172-.085c.28-.165.55-.348.805-.549.018-.034.035-.051.052-.051.143-.112.276-.239.395-.378l.239-.257.652-.685.017-.018 1.166.635c.087.042.167.093.24.155.187.092.365.2.531.325.206.137.412.274.6.411.228.146.44.313.635.498.189.171.395.36.583.548.398.347.755.739 1.063 1.166a8.587 8.587 0 01.892 1.304c.137.223.257.463.377.686.235.467.441.947.618 1.44.068.222.137.428.188.651.051.224.12.446.172.67.05.222.103.445.137.668l.069.429.273 1.56z" fill="#43D3E8"/><path d="M58.066 46.307a6.774 6.774 0 00.245-1.715 6.859 6.859 0 10-13.718 0 6.82 6.82 0 00.245 1.715 13.627 13.627 0 00-7.104 12.003c0 .947.768 1.714 1.715 1.714h24.006c.948 0 1.715-.767 1.715-1.714a13.625 13.625 0 00-7.104-12.003zm-6.614-5.144a3.429 3.429 0 110 6.858 3.429 3.429 0 010-6.858zM41.304 56.595c.514-3.1 2.426-5.79 5.184-7.296a6.802 6.802 0 009.928 0 10.215 10.215 0 015.184 7.296H41.304z" fill="#707070"/></svg>