<svg width="73" height="73" fill="none" xmlns="http://www.w3.org/2000/svg"><path d="M27.09 23.372a7.745 7.745 0 00-5.513-2.283l-6.233 6.248L9.17 21.09c-1.977 0-3.955.78-5.514 2.283A7.784 7.784 0 001.38 28.9v13.999h6.233v5.467h15.523V42.9h6.233v-14c0-1.982-.779-3.965-2.277-5.527z" fill="#43D3E8"/><path d="M15.341 17.304c-4.734 0-8.63-3.906-8.63-8.652C6.71 3.905 10.607 0 15.34 0c4.795 0 8.631 3.905 8.631 8.652 0 4.746-3.836 8.652-8.63 8.652zm0-14.54c-3.236 0-5.873 2.643-5.873 5.888 0 3.244 2.637 5.888 5.873 5.888 3.237 0 5.874-2.644 5.874-5.888 0-3.245-2.637-5.888-5.873-5.888zm1.381 48.426h-2.757V73h2.757V51.19zm-7.731-8.291H6.234v30.1h2.757V42.9zm15.524 0h-2.757v30.1h2.757V42.9z" fill="#707070"/><path d="M30.686 48.426h-7.551v-2.763h4.854V28.9a6.37 6.37 0 00-1.858-4.506 6.343 6.343 0 00-4.495-1.863H9.17c-1.678 0-3.296.66-4.495 1.863A6.374 6.374 0 002.817 28.9v16.763h4.855v2.763H0V28.9c0-2.464.959-4.747 2.697-6.49 1.738-1.742 4.016-2.703 6.473-2.703h12.406c2.458 0 4.735.961 6.473 2.704 1.738 1.742 2.697 4.025 2.697 6.489v19.526h-.06z" fill="#707070"/><path d="M16.722 29.92h-2.757v2.765h2.757V29.92zm0 5.529h-2.757v2.763h2.757v-2.764zM73 73H29.366v-2.704h40.875V12.377l-9.59-9.613H29.368V0h32.425L73 11.235V73z" fill="#707070"/><path d="M71.622 13.158H59.875V1.382h2.757v9.072h8.99v2.704z" fill="#707070"/><path d="M42.251 57.258h-8.27v8.292h8.27v-8.291z" fill="#43D3E8"/><path d="M55.976 57.258H45.008v2.764h10.968v-2.764zm11.028 5.528H45.008v2.764h21.996v-2.764z" fill="#707070"/><path d="M42.251 46.263h-8.27v8.292h8.27v-8.292z" fill="#43D3E8"/><path d="M55.976 46.263H45.008v2.764h10.968v-2.764zm11.028 5.528H45.008v2.764h21.996V51.79z" fill="#707070"/><path d="M42.251 35.208h-8.27V43.5h8.27v-8.292z" fill="#43D3E8"/><path d="M39.495 37.972h-2.757v2.764h2.757v-2.764zm16.481-2.764H45.008v2.764h10.968v-2.764zm11.028 5.528H45.008V43.5h21.996v-2.764z" fill="#707070"/><path d="M42.251 24.213h-8.27v8.291h8.27v-8.29z" fill="#43D3E8"/><path d="M39.495 26.977h-2.757v2.764h2.757v-2.764zm16.481-2.764H45.008v2.764h10.968v-2.764zm11.028 5.527H45.008v2.765h21.996V29.74z" fill="#707070"/><path d="M42.251 13.158h-8.27v8.291h8.27v-8.291z" fill="#43D3E8"/><path d="M39.495 15.922h-2.757v2.763h2.757v-2.763zm16.481-2.764H45.008v2.764h10.968v-2.764zm11.028 5.528H45.008v2.763h21.996v-2.764zM36.737 7.69H33.98v2.764h2.757V7.69zm5.516 0h-2.757v2.764h2.757V7.69zm5.512 0h-2.757v2.764h2.757V7.69z" fill="#707070"/></svg>