<svg width="99" height="96" fill="none" xmlns="http://www.w3.org/2000/svg"><path d="M67.166 40.566h-35.33V29.662c0-2.288.836-4.499 2.583-6.253a8.663 8.663 0 016.23-2.592h17.627c2.28 0 4.483.838 6.23 2.592a8.726 8.726 0 012.584 6.253v10.904h.076z" fill="#43D3E8"/><path d="M42.397 31.034h-3.495v9.532h3.495v-9.532zm17.625 0h-3.495v9.532h3.495v-9.532z" fill="#707070"/><path d="M49.462 17.69c4.867 0 8.813-3.96 8.813-8.845C58.276 3.96 54.33 0 49.462 0s-8.814 3.96-8.814 8.845c0 4.885 3.946 8.845 8.814 8.845z" fill="#43D3E8"/><path d="M85.551 61.84h-3.495a6.588 6.588 0 00-1.9-4.652c-1.215-1.296-2.887-1.982-4.634-1.982h-51.97a6.541 6.541 0 00-4.634 1.906 6.589 6.589 0 00-1.9 4.651h-3.495a10.18 10.18 0 012.964-7.167c1.9-1.907 4.406-2.974 7.142-2.974h51.893c2.66 0 5.242 1.067 7.142 2.974 1.823 1.982 2.887 4.498 2.887 7.244z" fill="#707070"/><path d="M51.21 44.683h-3.495V61.84h3.495V44.683zM20.288 92.645c-.076-.61-.38-1.144-.836-1.601a2.754 2.754 0 00-1.976-.839h-4.558c-.76 0-1.444.305-1.976.839-.456.457-.684.991-.835 1.601l-3.42-.534a6.925 6.925 0 011.748-3.584c1.216-1.22 2.811-1.83 4.483-1.83h4.558c1.672 0 3.268.687 4.483 1.83.988.992 1.596 2.212 1.748 3.584l-3.42.534zm-5.089-6.253c-3.115 0-5.547-2.516-5.547-5.566A5.538 5.538 0 0115.2 75.26c3.115 0 5.546 2.516 5.546 5.566s-2.507 5.566-5.546 5.566zm0-7.7c-1.14 0-2.128.914-2.128 2.134a2.127 2.127 0 104.255 0c-.076-1.22-.988-2.135-2.127-2.135z" fill="#707070"/><path d="M15.196 96C6.838 96 0 89.137 0 80.75 0 72.362 6.838 65.5 15.196 65.5c8.357 0 15.195 6.862 15.195 15.25 0 8.387-6.838 15.25-15.195 15.25zm0-26.993c-6.458 0-11.701 5.261-11.701 11.743 0 6.481 5.243 11.742 11.7 11.742 6.459 0 11.701-5.261 11.701-11.742 0-6.482-5.242-11.743-11.7-11.743zm39.355 23.638c-.076-.61-.38-1.144-.835-1.601a2.754 2.754 0 00-1.976-.839h-4.558c-.76 0-1.444.305-1.976.839-.456.457-.684.991-.76 1.601l-3.419-.534a6.926 6.926 0 011.748-3.584c1.215-1.22 2.811-1.83 4.483-1.83h4.558c1.672 0 3.267.687 4.483 1.83.988.992 1.596 2.212 1.748 3.584l-3.495.534zm-5.091-6.253c-3.115 0-5.546-2.516-5.546-5.566a5.538 5.538 0 015.547-5.566c3.115 0 5.546 2.516 5.546 5.566.076 3.05-2.431 5.566-5.546 5.566zm0-7.7c-1.14 0-2.127.914-2.127 2.134a2.127 2.127 0 104.255 0c0-1.22-.988-2.135-2.127-2.135z" fill="#707070"/><path d="M49.461 96c-8.357 0-15.195-6.863-15.195-15.25 0-8.388 6.838-15.25 15.195-15.25 8.358 0 15.196 6.862 15.196 15.25 0 8.387-6.838 15.25-15.196 15.25zm0-26.993c-6.458 0-11.7 5.261-11.7 11.743 0 6.481 5.242 11.742 11.7 11.742 6.459 0 11.701-5.261 11.701-11.742 0-6.482-5.242-11.743-11.7-11.743zm29.255 23.638l-3.42-.534a6.924 6.924 0 011.748-3.584c1.216-1.22 2.812-1.83 4.483-1.83h4.559c1.671 0 3.267.687 4.483 1.83.987.992 1.595 2.212 1.747 3.584l-3.419.534c-.076-.61-.38-1.144-.836-1.601a2.754 2.754 0 00-1.975-.839h-4.559a2.75 2.75 0 00-1.975.839c-.456.457-.76.991-.836 1.601zm5.092-6.253c-3.115 0-5.546-2.516-5.546-5.566a5.539 5.539 0 015.546-5.566c3.115 0 5.547 2.516 5.547 5.566s-2.508 5.566-5.547 5.566zm0-7.7c-1.14 0-2.127.914-2.127 2.134 0 1.144.912 2.135 2.127 2.135 1.216 0 2.127-.915 2.127-2.135-.075-1.22-.987-2.135-2.127-2.135z" fill="#707070"/><path d="M83.805 96c-8.358 0-15.196-6.863-15.196-15.25 0-8.388 6.838-15.25 15.196-15.25s15.196 6.862 15.196 15.25C99 89.137 92.163 96 83.805 96zm0-26.993c-6.458 0-11.7 5.261-11.7 11.743 0 6.481 5.242 11.742 11.7 11.742 6.458 0 11.7-5.261 11.7-11.742 0-6.482-5.242-11.743-11.7-11.743z" fill="#707070"/></svg>