<svg width="78" height="78" fill="none" xmlns="http://www.w3.org/2000/svg"><g clip-path="url(#clip0)"><path fill-rule="evenodd" clip-rule="evenodd" d="M31.556 65.623c.136 0 .476-.068.544-.136-.204-.204-.748-.204-1.02-.408 0 0-.952-.612-.748-.068.068.136.272 0 .34.068-.136.204-.204.136-.068.204 0 0-1.088-.612 0-.612-.748-.68.068-.476-.204-.884-.136-.272.612-.544.204-.816-.204-.136-.408-.068-.68-.272-.272-.204 0-.612.272-.544 0 0 .136-.68.204-.816-.068-.068-.68-.748-.544-.884.136-.204.884.476 1.088 0 .068-.136-.272-.612-.204-.816.34 0 2.516.068 2.108-.952-.136-.34-1.02-.884-.952-1.156.34.068.816.544 1.156.34.272-.136.544.136.816-.136.068-.068.544-.544.408-.68-.136 0-.204.068-.272.272-.204-.204.136-.408.272-.544.068.068.068.136.136.136.204-.272 1.156-1.564 1.224-1.633.544-.611.068-1.428.612-1.904.476-.408.952-.748 1.564-.952.204-.068.816-.408.952-.34 1.088.34.953-.952 1.633-1.496s.203-3.536.748-3.74c.272-.136 1.224-1.224 1.7-1.768.476-.476.544-1.088.34-1.768-.272-.952-.544-.408-1.224-.816-.544-.34-.952-.952-1.633-1.088-.408-.068-.816.068-1.224-.068-.204-.068-.612-.34-.816-.068 0-.068-.34.136-.34.136-.068 0 0-.544-.136-.612-.204-.204-.952-.408-1.156-.476-.612-.204-.748.476-.884-.34-.476-.136-.952-.68-.884-.816.068-.068-.748-1.768-.884-1.632 0-.544-1.768-1.292-2.244-1.02-.408.272-1.156-.272-1.428-.544s-.272-.612-.748-.816c-.204-.069-.544-.069-.476-.409.068-.34-.884-.407-.952-.816.136 0 .272-.068.408-.068-.34.136-.816-.136-1.156.136-.544.477-.816-.204-1.428-.068-.748.136-.272-.136-.68-.408.204.136-.884-.476-.612-.476-.204 0 0 .34-.204.476-.408.136-.748.204-.476.68.408.817-.884.477-.272-.136.136-.068.136-1.224.272-1.156-.136-.068-1.36.748-1.496.884-.408-.612-1.02 1.497-1.224 1.565-.137-.544-.613-.748-1.02-.885-.34-.135-.749.748-1.225.273-.884-.885-.476-2.313-.068-3.265.204-.476-1.564-.612-1.836-.408-.408.34.068-.748.068-.68.068-.408.136-.748.34-.748.136-.272.748-1.428.68-1.564-.272-.612-1.36.476-1.496.748-.136.272-.34.408-.408.68-.136.272-.34-.068-.476.068-.476.272-1.156.136-1.088-.544.136-.816-.204-2.516.748-3.06.272-.204.34-1.02.68-1.292.068-.068 1.02-.612.884-.68.136.136.884-.136 1.02.068.068.136.544.34.68.272 0 0 .068-.34.068-.408 0 0-.34-.068-.272-.136.068-.136.952-.068.952-.068.409 0 .748.408 1.089.204.476-.34.203 1.836.407 2.04.136.136 0 .408.204.34.272 0 .34-2.856 1.089-3.4.544-.408 1.088-.816 1.7-1.156.204-.068.68-.34.748-.544 0-.068-.136-.204-.204-.136 0-.204.272-.068.34-.272.068-.204-.136-.204-.136-.272 0 0 .204-.34.136-.34.272.068-.068-.272-.068-.34.408.204.204-.408.612-.476-.272.136-.204.408-.204.612.068.408.408-.544.408-.544.34-.136.884-.476 1.292-.748-.068 0-.204.068-.272-.068.408-.136.816-.068 1.224-.272 0-.408.204-.816.68-.884.68-.136 1.496-.544 2.176-.748-.136.204.068.068.272.136-.204-.544-1.428 1.088-.884.748.476-.272 2.108-.544 2.312-1.02l-.136-.34c-.408 0-.408.476-.952.476-.884 0-.34-.544-.544-.816-.136.067-.272 0-.408-.136.068 0 1.224-.272.612-.409-1.088-.136-1.7.952-2.516.952.612-.34 1.36-1.088 2.108-1.223.748-.136 1.836.271 2.448-.204.612-.409 1.02-.137 1.36-.749.136-.204-.408-.408-.544-.408.068-.068.204 0 .204-.136-.884-.408-1.088-.816-1.224-1.836-.476.34-1.972 1.02-1.156-.136-.272-.136-1.224-.884-1.564-.34-.136.272-.408.612-.68.748-.612.272-.068.204-.272.612-.34.68-1.156.544-1.564 1.156-.272.34-.34.612-.68.816-.34.136-.476-.272-.272-.544.136.136.204.136.34.068 0-.136-.204-.068-.272-.136.136-.204.272-.408.408-.544-.068 0-.884-.136-.884-.408.068-.476-.544-.204-.612-.34.476-.544.476-.816 1.36-1.292.34-.136 2.04-1.02 2.312-.816-.068.204-.272.136-.34.272.272.068.952.136 1.224 0-.068-.068-.34-.544-.204-.612h.544c.272-.068.612-.068.748-.408.136-.272 1.02-.544 1.292-.476 1.224.68-1.632 1.36-1.632 1.292.068.204.816-.136 1.02.408.068.136.884.408 1.02.272.068-.068-.272-.408-.272-.476.884.408.884.204.68-.408-.136-.544.544.068.544.068.136.068.748-.272.884-.408-.204-.136-.612-.136-.816-.34-.204-.204.476-.204.272-.408-.272-.204-.68-.136-.544-.612-.136-.068-.272 0-.476.068.068.068.136 0 .136.068-.136.068-.34.136-.476.068.068-.068.204-.068.204-.204-.476-.068-.748.204-1.156.34.136-.136.34-.204.476-.34-.476.068-.884.204-1.224.544.068.068.136.068.136.136-.34.272-.816.408-1.156.544.068-.272.34-.204.476-.408-.136 0-.272.068-.408.068.204 0 .68-.544.816-.68-.748-.068-1.02.884-1.7.748.136-.204.408-.068.544-.34-.272 0-1.224.68-1.36.34 0 0 1.768-.748 1.904-.952-.136 0-.272.136-.34-.068.068-.068.204-.136.34-.204-.544 0-2.312.68-2.176 1.088-.204.204-.476.204-.748.136.136-.136.476-.204.204-.408-.544.204-1.088.408-1.632.68-1.224.544-2.448 1.224-3.604 1.904-1.904 1.156-3.469 2.584-5.033 4.149-.816.816-4.012 4.556-4.012 5.304 0 .544-.34 1.088-.544 1.564-.204.408-.204 1.02-.408 1.36-.476.816-.272 1.768-.476 2.72.272-.204.816-4.556 1.292-4.352.068 0-.272 1.836-.408 2.04-.408.884.136 2.04-.136 2.992 0 .068-.136.544-.136.68-.408.34.136.816.136 1.224 0 .204 1.088 1.224 1.36 1.36.476.272.544-.204.952-.136.408.068.476.748.68 1.088.272.408 1.292.34 1.496.544.136.136 0 .952.476 1.088 0-.068 0-.34.068-.408.136-.068.476.476.34.544-.136.068-.272 0-.408-.136 0 .068-.068 1.089.204.885v-.205c.408.205.34.748.68.817.408.136.68.611.952.748.273.136.204-.885.68-.953.409-.068.613 1.02.748 1.292.204.34-.271 1.225 0 1.565.273.272-.68 1.02-.748 1.292 0 .204-.543.408-.476.544.069.272-.136.612-.204.816-.272.68-.136.68.273 1.02 0 0-.817 1.564-.34 1.972.747.612 1.7 2.04 1.904 2.992.476 1.292 1.224 2.04 2.38 2.652.952.544 1.7 1.36 1.7 2.584.068.68-.068 1.564.204 2.245.204.476-.204 1.224.136 1.632.204.271-.068.408.068.612.136.272.408.68.408 1.02v1.564c0 .136-.136.476-.068.544.136.136.816 1.768.816 2.244 0 .136.544 0 .068-.476.544-.34.408 1.02.476 1.02-.476-.136-.204 0-.136.612 0 .408-.068.204.204.272.476.136 0 .408.204.68.34.544.952 1.02 1.36 1.428.476.612 1.564.544 2.312.68.068 0-.136-.068 0 0zm2.04-51.887c-.204.136-.34.204-.544.272.136-.272.34-.204.544-.272zm-1.632-.136c.136 0 .204 0 .272.068 0 .068-.68.068-.816.272.136-.272.408-.272.544-.34.068.068-.136.068 0 0zm-1.632 1.156c.136.069-.272 0 0 0 0 0-.068 0 0 0zm-.952-1.768c.068-.068.136-.068.136 0-.068.136-.136.136-.136 0 0 0 0 .068 0 0zm-.884 2.72c-.272 0 .272 0 0 0-.068 0 0 0 0 0zm.272-1.02c-.884.816-.204 0-.476.272-.068-.068.408-.272.476-.272-.136.068-.204 0 0 0zm-.34-1.02c-.136.204-.136.204-.408.136.136-.068.272 0 .408-.136zm3.944-3.128h-.204c.272-.204.204 0 .204 0-.068 0 .068 0 0 0zm.612-.408c-.068.136-.204.068-.34.136.136-.272.136-.272.34-.136zm-3.536.272c.068-.068.204-.136.272-.068.068.136-.544.204-.272.068 0-.068-.068.068 0 0zm-.204-.136c.068.068.068.068 0 .136-.068-.068-.068-.136 0-.136zm-4.624 7.889s-1.36.544-1.292.204c0 .136.476-.408.34-.34.136-.068 1.02-.136 1.292-.136-.068.204-.204.272-.34.272-.272.136.136 0 0 0zm1.088-.68c1.156.136-.68.476-.884.272.272-.204.612-.272.884-.272.136 0-.272 0 0 0zm-.136-7.14c.34-.205.612-.34 1.02-.409-.272.204-.68.272-1.02.408zm.068 6.188c-.068.068-.136.068-.136 0h.136c0 .068-.068 0 0 0zm-.34.748c-.068 0-.136-.068 0 0 0 0-.068-.068 0 0zm-.34-.613c.408.205.204.885-.204.34 0 .273-.544.817-.816.885.136-.136.136-.272.136-.408-.068-.068-.272.136-.34.136.068.204.748-1.224.136-.816-.204.204-1.632 1.7-1.768 1.632-.136-.136.612-1.292.68-1.292.476-.477 1.564-.748 2.176-.477zm-.816-5.372c.068 0 .544-.34.612-.272.136.204-.748.408-.816.408.068-.068.136-.068.204-.136.136-.068-.068.068 0 0zm.068 3.74s-.204.34-.272.204c-.068-.067.272-.34.272-.204 0 .136 0 0 0 0zm-1.02-2.856c.068 0 .816-.476.816-.272.068 0-.884.272-.816.272zm-.204.748c-.068.068-.068.136-.204.136.068-.068.136-.136.204-.136zm-.476 1.836c.136-.068.34-.476.204-.612.068.068-.476-.068-.204-.136.068 0 .68-.34.748-.272.136.204-.748 1.088-.884 1.224 0-.136.068-.204.136-.204.136-.136-.068 0 0 0zm.476 1.156c.612-.204.884-.544 1.292-.068.136.205.136.68-.204.545.068.067-1.02-.069-.816-.204-.204.136-.68.271-.952.136.204-.137.408-.34.68-.409.204-.068-.272.068 0 0zm-.884-1.224c.068.136 0 .204-.136.272.068-.068.068-.204.136-.272zM12.99 28.63c-.34 0 .204 0 0 0-.068 0 0 0 0 0zm3.672 2.652c-.068 0 .204-.068 0 0zm8.977 2.924c-.136 0 .204.069 0 0 0 0 .068 0 0 0zm1.496 26.386c-.272 0 .136-.136 0 0-.068 0 0 0 0 0zm.68-13.193c-.136-.068 0 .068 0 0-.068 0 0 .068 0 0zm.068 8.228c-.136.069.204-.067 0 0-.068 0 0 0 0 0zm.884 8.909c-.136-.068-.136-.136 0-.136s.136.068 0 .136c-.068-.068 0 0 0 0zm1.156.476c-.136 0-.136-.068.068-.136.068 0 0 .068-.068.136-.068 0 0 0 0 0zm-2.448-3.264s-.068 0 0 0zM70.318 33.32c-.612-2.312-1.088-4.556-2.04-6.8-1.156-2.652-2.584-5.1-4.42-7.344a32.843 32.843 0 00-5.849-5.645c-1.088-.816-2.176-1.496-3.332-2.176a13.37 13.37 0 00-1.7-.884c-.272-.136-1.088-.34-1.224-.544 0 .136.476.34.544.408-.34-.068-1.224-.476-1.224-.544 0-.068.068 0 .068-.068-.476-.34-2.38-1.02-2.72-.476.068-.136 1.292 1.292 1.292 1.564.068.544.952 1.156 1.496 1.292.748.272.204-.068.476-.272.204-.068.408.34.612.272-.068-.136-.136-.204-.204-.34-.068 0 1.36 1.496 1.564 1.156a2.775 2.775 0 00-.816-1.224c-.34-.34-.952-.34-1.292-.68-.204-.136-.952-.68-1.02-.952.952 0 2.108 2.04 3.06 1.292-.136-.068-.272-.204-.408-.272.204.068.952.34.68.68-.748-.136.612.612.68.748-.136 0-.204-.136-.34-.136.068.272.816.544.884 1.02-.476.068-.272-.272-.544.068-.068.136-.476.068-.748.068-.544.068-1.088-.884-1.496-1.156.136.476.408.748 1.02 1.088.272.136-.408.204-.34.476 0 0 .204.068.136.136 0 0-.136-.068-.136-.136.068-.068-.068.885-.136.885.408.476-.544.34-.612.408.068.135.272.204.272.34-.272 0-.544 0-.816.067.408.136 2.72 1.157 2.176 1.973-.136.272-1.7-.068-1.972-.068-.612-.068-.068.544 0 .612.068.476.476.68.408 1.156 0 .408.34.408.476.68.136.272.068.272.34.34.476.068.544 0 .952.34.34.272.408-.204.816-.204.884-.068.136-.204.544-.34.544-.136-.136-1.02-.136-1.156.068-.204 0-.476.272-.544.476-.136-.136-.612-.136-.748-.068-.408 1.292.34 1.088-.612.816.272 1.564.952 2.313 1.36.407.272.883.476 1.155.884.34.476-.544.272-.611.408-.069.136.816.544.952.544 0-.068-.137-.544-.137-.68-.068-.34-.544-.68-.476-.952.136 0 .272.068.408.204-.475-.544-1.223-.612-1.7-1.02-.34-.272-.68-.476-1.02-.748 0 0-.544-.68-.136-.544.612.204 1.292.816 1.904 1.156.477.272.613.408.953.816.136.136.884 1.02 1.088 1.088 0 0 .612.544.884.612-.136-.272-.204-.544-.34-.816-.204-.272-.884-.408-.884-.816.136 0 .204-.136.544-.136-.204 0 .204-.272.204-.204-.68-.408-1.564-1.497-1.768-2.245.204 0 .272.273.476.136-.069-.136-.069-.271-.069-.407.069.068.68.611.545.68a.618.618 0 01-.477-.204c.069.34.409.34.545.544 0-.069-.068-.136 0-.273.544.204 1.632 1.089 1.836 1.7-.204 0-.68-.475-.884-.34-.068.137-.068.273 0 .34-.068 0-.136 0-.204.069.068.068.136.136.136.272-.068 0-.204.068-.272.068.068.272 1.7 1.836 1.836 1.7.068-.068-.068-.204-.068-.204.068-.068.34.34.476.272.136-.068-.068-.204 0-.272.204-.136 1.224 1.768 1.292 1.972.476.884.136.34-.204.476-.068.068-.068.204-.068.272-.544-.136-1.224-.476-1.632-.816-.748-.544.204 1.428-.204 1.156-.272-.136-.408-.34-.68-.408-.476-.068-.612-.544-.952-.68-.34-.136-1.633-.204-1.496-.816.136-.544-.544-.952-.748-1.156-.136-.068-1.565.068-1.837.136-.408.136-1.02.272-1.292.612-.408.68-1.292-.204-1.632-.068-.204.068 0 .68-.068.816-.136.272-.476.272-.612.612-.136.612.272 1.088.068 1.632-.204.408-1.02.612-1.02.952 0 .204-.068.408-.204.476-.408.204 0 .748-.204.952-1.292 1.292.408 2.584.136 4.08-.136.816-.272.952.068 1.7.068.204 0 1.428.68.952.068.748 1.02.884 1.224 1.633.204.816 1.02 1.224 1.632 1.7.272.204.476.476.748.612.544.272.884-.136 1.36-.272a1.869 1.869 0 011.36.136c.273.136 2.109-1.157 2.585-.953.34.205.408.613.544.953.272.476.748-.136 1.088 0 .612.272.748 2.448.272 2.856-.408.272.476 1.496.612 1.7.34.68.68 1.836.544 2.584-.068.612.068 1.564-.272 2.108s-.544 1.088-.816 1.7c-.748 1.564-.068 3.332-.68 4.964-.408.816-.34 1.7-.544 2.584-.136.545-.816 1.36-.544 1.973.408-.34 1.02-.34 1.496-.544.952-.476 1.428-1.564 2.108-2.244a5.56 5.56 0 00.816-1.36c.204-.477.612-.749.816-1.157.476-1.088.884-2.244 1.36-3.332 1.02-2.38 1.156-4.692 1.496-7.276.476-2.72.476-5.236 0-7.957zm-2.38-6.324c-.136-.34-1.836-2.788-1.632-2.924.204-.136 3.876 6.256 3.468 7.276-.544-1.496-1.224-2.924-1.836-4.352 0-.068.136.272 0 0zm1.564 11.357c-.068-.204 0-.34.068-.544.068.204-.068.34-.068.544zm-.204.952c0-.136 0-.204.068-.272 0 .136 0 .204-.068.272zm-.612 8.296c-.068 0-.136.068-.204.068-.136 0 .204-.136.204-.204v.136c-.068.068 0-.068 0 0zm.068-3.4c0-.34 0-.34.34-.544-.068.272-.272.34-.34.544zm.34-1.564c0-.544 0-1.224.136-1.768 0 .952.068 1.904.068 2.856-.204-.136-.204-.816-.204-1.088 0-.204 0 .204 0 0zm.544 1.836c0 .544-.068 1.904-.408 2.312 0-.884.34-1.632.34-2.516.068.068.068.136.068.204 0 0 0-.068 0 0zm.34-5.236c-.136.612 0 .816-.34 1.156 0-.476-.136-1.292.272-1.564.068.136.136.272.068.408-.068.272.068-.136 0 0zM50.053 68.819c.068.068-4.012 1.224-4.42 1.292-1.7.34-3.4.544-5.1.68-3.265.136-6.665-.136-9.861-1.088.408.068.884.272 1.292.204-.408-.272-.884-.136-1.224-.476 1.292.204 2.584.136 3.74.272-.136-.136-1.224-.408-1.224-.544.136 0 1.02-.068 1.02-.068.408-.272-.612-.272-.544-.476.068-.068.34.068.408-.068.136-.204 0-.34.068-.408.068-.068 1.632-.34 1.836-.272-.204.136-.408 0-.34.272-.136 0-.68 0-.68.204 0-.068.544.68.544.748.204.272.816.476.884.816.136.544 3.129.544 3.605.476 1.156-.136 2.176-.544 3.264-.748.68-.136 1.292-.272 1.972-.34.272-.068 1.36-.408 1.564-.34.204.476 2.584-.272 3.196-.136 0 0-.136 0 0 0zm18.293-17.545c.136-.34.204-.68.408-.952-.136.272-.272.612-.408.952zm.544-1.36c0-.068 0-.068.068-.136 0 .068-.068.136-.068.136zM34.072 8.228c-.204 0-.34 0-.544-.068.068-.068.612-.068.408-.272.748-.476 2.244-.544 3.128-.408.952.136 1.904-.204 2.856 0 .408.068.68.068 1.089.068.34.068-.069.34.34.408.204 0 .68.544.884.408 0 .34-.136.068-.068.408 0 .068.408.272.408.34-.068.068-1.088 0-1.02 0-.068 0 0 .136.068.136.204.068.68 0 .884 0-.544.476-1.36.408-1.905.816-.34.272-.883.204-1.291.34 0 .408-.273.884-.545 1.292-.204.272-1.564-.408-1.7-.544-.272-.34-.952-1.292-.272-1.564.884-.34 0-.068-.272-.272.204-.272.476-.204.748-.136-.136-.272-.408-.272-.612-.204-.068-.272.34-.476 0-.748-.136-.136-1.088 0-1.156-.136-.068-.408 1.156-.204 1.36-.544-.952-.068-1.904.816-2.788.68-.204 0 .136.068 0 0zm16.73 6.052c.135 0-.205-.476-.273-.544.068 0 .204 0 .272-.068-.068-.204-1.02-.748-1.088-.68-.272.204-.748-.748-.748-.884.612-.068.952.544 1.496.816.476.204 2.108 1.02 2.176 1.496.068.272-1.224.136-1.428.409-.136-.34.34-.34.34-.477-.068 0-.68-.068-.748-.068 0 .068.204 0 0 0zm-16.934.476c-.068.069-1.224 1.156-1.156 1.224 0 .069 1.156 0 1.36.136 0 .137-.136.069-.204.204.136 0 .612-.271.68-.204 0 .069 0 .137-.068.204.544.477.476-.611.476-.611-.34-.069.068-.544-.544-.34.068 0-.68-.204-.612-.136-.068-.069.476-.545.544-.613-.272-.068-.34.068-.476.136-.204.136.068 0 0 0zm1.088 1.224c.068 0-.068 0 0 0zm-.204-.068c.068-.068.204-.136.068 0-.068.068-.204.136-.068 0 0 0-.068.068 0 0zm-1.836-.272h.068c0 .069-.136 0-.068 0zM21.832 28.97c-.34.067.204-.205.136-.34-.204-.477-1.633-.613-1.768-.953a.146.146 0 00.136-.136c-.476-.204-.748.408-1.225.34.953-1.564 3.197.204 4.149.952-.408 0-.884.068-1.428.136 0 0 .272-.068 0 0zm1.224.815c-.204-.068.748-.068.884-.136-.204-.272 0-.476-.408-.612.34-.408 1.496.068 1.836.204 0 .068-.068 0-.136.068 0 0 .816.68.272.476-.544-.272-.884.068-1.292.34-.204-.476-.748-.136-1.156-.34-.068 0 .136.068 0 0zm26.997-16.117c.544.544-.272 1.02-.68.612-.204-.204-.068-.612-.476-.748.136-.068.204-.068.34-.136-.34-.68.612.136.816.272.068.136-.068-.068 0 0zm-7.072-3.4c0-.136.748-.068.884-.068.204-.068 1.836.136 1.292.408-.476.204-1.088.408-1.496.068-.136-.136-.68-.408-.68-.408 0-.068 0 .136 0 0zm14.756 8.025c.204 0 .68.748.544.816-.204.34-.612-.544-.816-.68a.516.516 0 00.272-.136zm-25.229-9.86c.544-.409.68-.205 1.36-.137-.204.272-.748.272-1.36.136.136-.068.612.136 0 0zm12.173-.409c-.408-.136-.816-.136-1.224-.272.476-.068 1.088.136 1.36.204.136 0-.204 0-.136.068-.408-.136 0 0 0 0zm-1.224-.34h-.136.136c-.068 0-.068 0 0 0zm-21.49 22.101c.069 0 .137.068.137.136-.068.204-.748-.068-.884-.204.34-.136.544 0 .748.068zm5.169 0c-.408.952-1.36-.612 0 0-.068.136-.272-.136 0 0zm1.428 4.488l.068-.068c0 .069 0 .069-.068.069zm.136 0s.136-.408.34-.408c.34.204-.204.408-.34.408 0 0 .34 0 0 0zm3.06-25.977c-.272.204-.544.068-.816.136.34-.272.476-.272.816-.136-.272.136-.068-.068 0 0zM22.172 26.93c-.068-.408-.272-.408 0-.748.136.408.136.612 0 .748-.068-.136.136-.136 0 0zm-6.937 13.193c0 .136-.068.204-.204.136-.068-.068-.068-.476 0-.612a.617.617 0 01.204.476c.068.068 0-.204 0 0zm15.981-24.89c.272 0 .544.069.816.273-.34.067-.612-.069-.816-.273zm26.385 2.925c-.068 0-.612-.34-.408-.476.136-.136.34.408.408.476zm5.305 2.652c-.136-.136-.34-.068-.34-.272.204.068.408.068.544.204-.068.068-.136.136-.204.068-.068-.136.068.068 0 0zM32.168 8.432c-.068-.068-.136 0-.204-.068.136-.136.34-.136.544-.136 0 0-.204.408-.34.204-.068-.068.068.068 0 0zm-.884.204c-.204.204-.476.34-.816.34.272-.272.544-.272.816-.34zm-.068 7.889h.204c-.34.408-.68-.136-.612-.204l.408.203c.068 0-.136 0 0 0zm.136-7.753c.204-.204.476-.204.748-.204-.272.204-.476.272-.748.204zm24.89 10.269c-.273 0 .475-.272.203.068-.068 0-.136-.068-.204-.068 0 0 .068 0 0 0zm7.956 1.836c-.136-.068-.204-.204-.136-.34.068.068.136.136.136.34zM31.896 9.928c.068-.136.204-.204.476-.204-.136.204-.272.204-.476.204zm-2.312 1.088c-.204.068-.34.204-.544.136.204-.136.34-.136.544-.136zm19.109 1.292c-.068.068 0 .136.068.136-.068 0-.272-.34-.136-.34.068.068.136.136.068.204 0 .068 0 0 0 0zM19.928 27.95c0 .136-.069.136-.137.136-.067-.068.069-.34.136-.136 0 .068-.067-.068 0 0zM30.603 61c.068.068.136.068.136.204 0 .272-.476-.204-.136-.204.068 0-.068 0 0 0zm-.68-49.847a.939.939 0 01-.272.204c.068-.136.136-.136.272-.204zM15.507 40.054c0 .34-.068-.34 0 0 0 .068 0-.068 0 0zm16.525-28.358c0 .068-.068.068 0 0zm-1.428-2.992h-.136c.068-.068.068-.068.136 0zm-.272.068c.068-.068.068-.068.136-.068-.068.068-.068.068-.136.068zm1.02 0c0 .068-.068.068-.068.068 0-.068 0-.068.068-.068zM19.587 41.414c-.068-.068.069.068 0 0 0 0 .069 0 0 0zm34.07-30.126c.204.068 0 .068 0 0 0 0 0 .068 0 0zM31.148 8.84c.068 0 .068 0 0 0 .068.068 0 .068 0 0 .068 0 0 0 0 0zm3.74 30.398c-.068-.068.068-.068 0 0 0 0 .068 0 0 0zM24.62 16.66s.34-.067.204.069c-.136.068-.204.068-.204-.069 0 0 0 .069 0 0zm-1.904-2.584c-.068-.068-.068-.136.068-.204.068.068.068.136-.068.204 0 0 .068 0 0 0z" fill="#43D3E8"/><path d="M38.968 72.424c-18.43 0-33.39-14.961-33.39-33.39 0-18.43 14.96-33.39 33.39-33.39 18.429 0 33.39 14.96 33.39 33.39.068 18.36-14.961 33.39-33.39 33.39zm0-63.72c-16.729 0-30.262 13.6-30.262 30.262 0 16.729 13.601 30.261 30.262 30.261 16.66 0 30.261-13.6 30.261-30.261.068-16.661-13.532-30.262-30.261-30.262zM5.916 23.053l-1.632-2.856 2.72-1.496a55.67 55.67 0 001.564 2.72l-2.652 1.632zm-3.06-5.78c-.476-1.088-.952-2.108-1.292-3.06l2.924-1.089c.34.884.748 1.836 1.224 2.856l-2.856 1.293zM.544 10.948A18.094 18.094 0 010 7.48l3.128-.068c0 .816.204 1.768.408 2.856l-2.992.68zm2.992-6.052L.68 3.604c.272-.68.68-1.224 1.224-1.768L4.08 4.08a2.446 2.446 0 00-.544.816zM70.518 78c-1.088 0-2.244-.204-3.468-.544l.748-3.06c1.02.272 1.972.408 2.856.408L70.518 78zm-6.732-1.564c-.952-.34-2.04-.816-3.06-1.292l1.292-2.857c1.02.477 1.972.885 2.856 1.225l-1.088 2.924zm-5.985-2.72a30.541 30.541 0 01-2.856-1.632l1.564-2.653c.952.544 1.837 1.088 2.72 1.565l-1.428 2.72zm16.593 3.604l-1.292-2.856c.34-.136.612-.34.816-.544l2.176 2.176c-.476.544-1.088.952-1.7 1.224z" fill="#707070"/><path d="M52.567 11.084l-1.7-2.584c7.14-4.76 19.925-11.968 25.298-6.596L73.92 4.08c-1.972-1.972-8.772-1.36-21.353 7.004zM1.906 76.096c-5.304-5.304 1.904-18.089 6.596-25.297l2.584 1.7C2.722 65.147 2.11 71.948 4.082 73.919l-2.176 2.177z" fill="#707070"/><path d="M74.462 4.896a2.445 2.445 0 00-.544-.816l2.176-2.176c.476.476.884 1.088 1.224 1.768l-2.856 1.224zM7.275 78l-.068-3.128c.816 0 1.7-.136 2.72-.34l.68 3.06c-1.156.204-2.312.34-3.332.408zm6.528-1.428l-1.088-2.924c.884-.34 1.768-.68 2.72-1.088l1.292 2.856c-1.02.408-2.04.816-2.924 1.156zm5.78-2.584L18.157 71.2l2.652-1.428 1.564 2.72c-.952.544-1.904 1.02-2.788 1.496zm5.44-3.128l-1.631-2.653c.816-.543 1.7-1.088 2.516-1.632l1.768 2.584c-.952.613-1.768 1.157-2.652 1.7zm5.17-3.469l-1.837-2.516c.816-.544 1.632-1.156 2.448-1.768l1.904 2.516a56.72 56.72 0 00-2.516 1.768zm4.963-3.74l-1.904-2.448a58.24 58.24 0 002.38-1.904l1.973 2.38c-.816.68-1.633 1.36-2.448 1.972zm4.829-3.944l-2.04-2.38c.748-.68 1.564-1.292 2.312-1.972l2.04 2.312c-.748.68-1.564 1.36-2.312 2.04zm4.624-4.08l-2.108-2.312c.748-.68 1.496-1.36 2.244-2.108l2.176 2.244c-.748.748-1.564 1.428-2.312 2.176zm4.488-4.284l-2.176-2.245c.34-.34.748-.68 1.088-1.088l1.088-1.088 2.244 2.177-1.088 1.088-1.156 1.156zm4.352-4.42l-2.244-2.177c.68-.748 1.428-1.496 2.108-2.244l2.313 2.108c-.748.748-1.429 1.564-2.177 2.312zm4.217-4.625l-2.313-2.04c.68-.748 1.36-1.564 1.973-2.312l2.38 2.04c-.68.748-1.36 1.564-2.04 2.312zm4.012-4.692l-2.38-1.972a58.325 58.325 0 001.904-2.38l2.448 1.904c-.612.816-1.292 1.632-1.972 2.448zm3.876-4.896l-2.516-1.904c.612-.817 1.224-1.633 1.768-2.449l2.516 1.837c-.544.816-1.156 1.7-1.768 2.516zm3.604-5.1l-2.584-1.769c.544-.884 1.156-1.7 1.632-2.516l2.652 1.632c-.544.952-1.088 1.768-1.7 2.652zm3.332-5.305l-2.72-1.564a25.256 25.256 0 001.428-2.652l2.789 1.428c-.477.952-.953 1.904-1.497 2.788zm2.925-5.576l-2.857-1.292c.408-.952.816-1.904 1.088-2.72l2.925 1.088c-.34.884-.748 1.904-1.156 2.924zm2.108-6.052l-3.06-.68c.204-1.02.34-1.905.34-2.72l3.128.067c0 .952-.136 2.108-.408 3.333zM3.604 77.32c-.68-.272-1.224-.68-1.768-1.224l2.176-2.176c.204.204.476.408.816.544L3.604 77.32z" fill="#707070"/><path d="M76.094 76.096l-2.176-2.176c4.284-4.285-5.304-23.394-25.91-43.93-9.52-9.521-19.516-17.41-28.085-22.238C12.24 3.4 6.12 2.04 4.078 4.08L1.902 1.904C5.167-1.36 11.967-.34 21.487 5.032c8.84 4.964 19.041 13.057 28.766 22.781C68.206 45.766 83.439 68.82 76.094 76.096z" fill="#707070"/></g><defs><clipPath id="clip0"><path fill="#fff" d="M0 0h78v78H0z"/></clipPath></defs></svg>