<svg width="93" height="88" fill="none" xmlns="http://www.w3.org/2000/svg"><path d="M52.133 78.256h4.206V67.087c0-1.274.226-2.549.752-3.748.526-1.2 1.202-2.324 2.103-3.148l14.423-14.392.075-.075C69.035 35.454 58.593 28.26 46.5 28.26c-12.095 0-22.462 7.196-27.194 17.465l.075.075 14.423 14.392c.902.9 1.578 1.949 2.104 3.148.525 1.2.75 2.474.75 3.748v11.094h4.208v9.22c1.802.374 3.68.524 5.634.524 1.953 0 3.83-.225 5.634-.525v-9.144z" fill="#43D3E8"/><path d="M76.624 79.98h-22.01V67.087c0-1.5.3-2.998.9-4.423.602-1.424 1.428-2.623 2.48-3.747l14.423-14.392c1.277-1.274 2.93-1.95 4.657-1.95 1.803 0 3.456.675 4.658 1.95 1.277 1.274 1.953 2.923 1.953 4.647 0 1.724-.676 3.448-1.953 4.648L71.14 64.537c-1.277 1.275-2.93 1.95-4.658 1.95v-3.449c.827 0 1.653-.3 2.254-.9l10.667-10.643c.601-.6.902-1.424.902-2.249 0-.824-.3-1.649-.902-2.249-.6-.6-1.427-.9-2.253-.9-.827 0-1.653.3-2.254.9L60.398 61.465a7.601 7.601 0 00-1.728 2.624c-.376.974-.601 2.023-.601 3.073v9.37h15.25a16.31 16.31 0 011.126-4.573c.827-2.024 2.029-3.748 3.531-5.322l10.667-10.644c.3-.3.526-.674.676-1.05a3.39 3.39 0 00.226-1.198V26.01c0-.824-.3-1.649-.902-2.248-.6-.6-1.427-.9-2.254-.9-.826 0-1.652.3-2.253.9-.601.6-.902 1.424-.902 2.248v13.942H79.78V26.01c0-1.799.676-3.448 1.953-4.647 1.277-1.274 2.93-1.949 4.657-1.949 1.803 0 3.456.675 4.658 1.949C92.324 22.637 93 24.286 93 26.01v27.735c0 .899-.15 1.724-.526 2.548-.3.825-.826 1.5-1.427 2.174L80.38 69.11c-1.202 1.2-2.179 2.623-2.78 4.197-.676 1.575-.976 3.224-.976 4.948v1.724z" fill="#707070"/><path d="M79.026 78.256H52.133V88h26.893v-9.744z" fill="#43D3E8"/><path d="M80.83 88h-3.455v-8.02H53.862V88h-3.456V76.531H80.83V88zm-42.443-8.02h-22.01v-1.724c0-1.724-.301-3.373-.977-4.947-.676-1.574-1.578-2.998-2.78-4.197L1.953 58.468c-.6-.6-1.127-1.35-1.427-2.174C.15 55.544 0 54.644 0 53.82V26.086c0-1.724.676-3.448 1.953-4.647 1.277-1.275 2.93-1.95 4.658-1.95 1.803 0 3.455.675 4.657 1.95 1.277 1.274 1.953 2.923 1.953 4.647v13.942H9.766V26.011c0-.825-.3-1.649-.902-2.249-.6-.6-1.427-.9-2.253-.9-.827 0-1.653.3-2.254.9-.6.6-.901 1.424-.901 2.249v27.734c0 .45.075.825.225 1.2.15.374.376.75.676 1.049l10.667 10.644a16.088 16.088 0 013.53 5.322 16.31 16.31 0 011.128 4.572h15.25v-9.444c0-1.05-.226-2.1-.602-3.074a7.603 7.603 0 00-1.727-2.623L18.179 46.999c-.6-.6-1.427-.9-2.253-.9-.827 0-1.653.3-2.254.9-.6.6-.901 1.424-.901 2.249 0 .824.3 1.649.901 2.249L24.34 62.14c.601.6 1.428.899 2.254.899v3.448c-1.803 0-3.456-.675-4.658-1.949L11.268 53.97c-1.277-1.274-1.953-2.923-1.953-4.647 0-1.8.676-3.448 1.953-4.648 1.277-1.274 2.93-1.948 4.658-1.948 1.803 0 3.455.674 4.657 1.948l14.424 14.392c1.051 1.05 1.878 2.324 2.479 3.748.6 1.424.9 2.849.9 4.423V79.98z" fill="#707070"/><path d="M40.866 78.256H13.973V88h26.893v-9.744z" fill="#43D3E8"/><path d="M42.595 88h-3.456v-8.02H15.702V88h-3.456V76.531h30.349V88z" fill="#707070"/><path d="M41.166 20.314a10.525 10.525 0 000-14.917c-1.728-1.724-3.907-2.624-6.085-2.998L20.883 0l2.404 14.167c.375 2.249 1.277 4.348 3.005 6.071 4.056 4.198 10.742 4.198 14.873.076zm10.667 0a10.525 10.525 0 010-14.917c1.728-1.724 3.906-2.624 6.085-2.998L72.19 0l-2.404 14.167c-.376 2.249-1.277 4.348-3.005 6.071a10.513 10.513 0 01-14.949.076z" fill="#43D3E8"/><path d="M48.229 25.56h-3.456v32.532h3.456V25.561z" fill="#707070"/><path d="M46.5 28.034L32.527 14.017l2.404-2.399L46.5 23.162l11.569-11.544 2.478 2.399L46.5 28.034z" fill="#707070"/></svg>