<svg width="130" height="100" fill="none" xmlns="http://www.w3.org/2000/svg"><path d="M97.998 49.9c0 18.4-14.9 33.3-33.3 33.3s-33.3-14.9-33.3-33.3 14.9-33.3 33.3-33.3c18.4.1 33.3 15 33.3 33.3z" fill="#43D3E8"/><path d="M64.7 64.1c-7.8 0-14.2-6.4-14.2-14.2 0-7.8 6.4-14.2 14.2-14.2 7.8 0 14.2 6.4 14.2 14.2 0 7.8-6.4 14.2-14.2 14.2zm0-23.8c-5.3 0-9.6 4.3-9.6 9.6s4.3 9.6 9.6 9.6 9.6-4.3 9.6-9.6-4.3-9.6-9.6-9.6z" fill="#707070"/><path d="M63.9 41.5c0 4.2-3.4 7.6-7.6 7.6-4.2 0-7.6-3.4-7.6-7.6 0-4.2 3.4-7.6 7.6-7.6 4.2 0 7.6 3.4 7.6 7.6z" fill="#fff"/><path d="M64.7 85.5C39 85.5 15.1 72.7.8 51.2L0 49.9l.8-1.3C15.1 27.2 39 14.4 64.7 14.4c25.7 0 49.6 12.8 63.9 34.3l.8 1.3-.8 1.3c-14.3 21.4-38.2 34.2-63.9 34.2zM5.5 49.9c13.5 19.4 35.5 31 59.2 31 23.7 0 45.7-11.5 59.2-31-13.5-19.4-35.5-31-59.2-31C41 19 19 30.5 5.5 49.9zm109.1-33.3H110v-12H98V0h16.6v16.6zm-95.3 0h-4.5V0h16.5v4.6h-12v12zm95.3 83.3H98v-4.6h12v-12h4.6v16.6zm-83.3 0H14.8V83.3h4.5v12h12v4.6zM57.6 0h-4.8v4.6h4.8V0zm9.5 0h-4.8v4.6h4.8V0zm9.5 0h-4.8v4.6h4.8V0zm-19 95.3h-4.8v4.6h4.8v-4.6zm9.5 0h-4.8v4.6h4.8v-4.6zm9.5 0h-4.8v4.6h4.8v-4.6z" fill="#707070"/></svg>