<svg width="1777" height="492" fill="none" xmlns="http://www.w3.org/2000/svg"><g opacity=".2" fill="#411BFF"><path d="M1064.29 173.586l-33.92-1.841-14.75 12.519-19.187-1.116-14.867 12.007 55.974 3.454 26.75-25.023zm-86.669 21.326l16.585-13.262 19.104 1.101 13.34-11.205 3.72.201 1.42-1.208 37.6 2.029-27.78 26.294-4.07-.251-1.52 1.42-56.171-3.488 1.716-1.386-3.944-.245zm660.399 9.806l-45.56-2.472 6.95 14.283 26.24 1.514 4.73 8.525 21.75 1.298-14.11-23.148zm-43.84 11.512l-7.46-15.776 55.46 2.988 16.52 26.518-32.77-1.965-4.65-8.585-21.06-1.226-.81-1.656-5.23-.298zm64.25-50.778l-41.06-1.833 7.09 11.386 42.6 2.011-8.63-11.564zm-37.84 10.644l-8.46-13.89 49.96 2.216 10.77 14.162-52.27-2.488zm63.67-31.996l-38.78-1.522 7.58 9.96 40.15 1.67-8.95-10.108zm-34.75 9.408l-9.08-12.162 47.21 1.841 11.13 12.381-49.26-2.06zM682.414 28.813l1.365-.345 7.721.121 5.385-1.378 1.707.027-5.373 1.377-1.719-.026-1.357.345-7.729-.12zm-1.688-1.843l1.356-.34 16.134.24-1.333.34-16.157-.24z"/><path d="M673.867 28.684l1.38-.346 8.532.13-1.365.346-8.547-.13zm10.787 1.652l5.488-1.402 1.357-.345 1.718.025 6.9.108-1.344.348-6.912-.108-5.475 1.403 6.949.113 5.438-1.408 1.73.027-5.428 1.409-1.74-.028-1.369.355-6.962-.114 1.382-.354-1.732-.029zM848.699-3.837l-5.983-.03-3.589.955 6.014.032 3.558-.957zM836.713-2.68l5.393-1.433 8.977.045-4.429 1.197-1.512-.01-.898.24-7.531-.04zm-88.952 23.629l7.165-1.902 8.386.102-1.175.317-6.715-.084-4.765 1.27 6.753.087 4.727-1.273 1.691.02-5.906 1.593-10.161-.13zM574.22 76.35l-18.853-.593-8.225 2.217 18.983.616 8.095-2.24zm-29.179 1.559l8.237-2.22 2.089.068 2.037-.551 20.926.654-10.084 2.798-2.12-.07-2.046.566-19.015-.62 2.079-.56-2.103-.065zm233.8-53.093l5.882-1.674 1.745.024 1.16-.332 6.99.093-1.148.332-7.002-.093-4.688 1.338 7.045.096 4.645-1.34 1.752.024-5.803 1.68-10.578-.148zm-135.5 41.799l-8.289-.228-7.217 2.059 8.344.239 7.162-2.07zm-19.413 2.293l10.847-3.087 12.406.34-10.717 3.105-12.536-.358z"/><path d="M793.47 23.26l1.148-.333 5.689-1.642 8.712.11-1.114.328-6.986-.09-4.551 1.318 7.028.093 4.509-1.322 1.747.023-5.63 1.654-8.8-.114-1.752-.026zM925.412-3.445l-6.265-.031-7.218 2.222 6.342.037 7.141-2.228zm-15.887 2.433l8.055-2.472 1.566.009.788-.243 7.824.038-7.899 2.473-1.588-.008-.805.25-7.941-.047zM729.776 57.586l7.558-2.358 10.283.242-1.485.469-8.246-.194-6.041 1.889 8.305.202 5.982-1.897 2.068.049-5.969 1.899-2.081-.051-1.511.48-8.32-.203 1.526-.479-2.069-.048z"/><path d="M763.74 53.849l-8.227-.189-5.833 1.856 8.285.194 5.775-1.861zm-17.608 2.09l1.484-.47 5.848-1.854 2.049.045 1.448-.459 10.271.231-7.19 2.327-2.077-.049-1.465.472-8.299-.196-2.069-.048zm-172.905 79.226l12.723-4.404 13.471.659-2.479.875-10.815-.532-10.189 3.536 10.911.552 10.093-3.556 2.723.133-12.62 4.466-13.688-.698 2.581-.897-2.711-.134zm174.239-46.641l10.244-3.752 12.012.386-1.661.62-9.637-.313-6.811 2.506 9.719.323 6.729-2.516 2.415.08-8.408 3.154-14.602-.488zm124.062-37.197l-8.551-.182-4.922 1.847 8.614.188 4.859-1.853zm-15.618 1.62l6.158-2.303 12.8.273-7.263 2.782-10.794-.238 1.245-.467-2.146-.047zm-178.159 78.282l-11.165-.531-9.264 3.547 11.271.551 9.158-3.567zm-23.232 2.883l11.573-4.416 16.708.788-11.378 4.452-2.827-.139-2.323.905-11.299-.556 2.349-.901-2.803-.133zm98.506-26.573l-10.515-.414-7.654 2.994 10.61.427 7.559-3.007zm-22.759 3.234l9.629-3.749 2.616.101 1.885-.736 13.121.51-9.389 3.756-2.66-.11-1.922.765-13.28-.537zm109.397-32.584l7.146-2.907 2.385.068 1.403-.574 9.568.272-1.382.576-9.589-.274-5.684 2.324 9.67.282 5.603-2.332 2.403.068-6.997 2.926-14.526-.43z"/><path d="M877.567 73.104l-9.556-.263-5.448 2.277 9.636.273 5.368-2.287zm-18.784 2.52l1.382-.576 6.816-2.835 14.313.39-6.668 2.855-2.427-.068-1.357.58-9.657-.278-2.402-.067z"/><path d="M882.987 76.317l-9.714-.279-5.483 2.35 9.796.287 5.401-2.358zm-19.041 2.59l6.896-2.936 1.357-.581 2.427.069 12.137.346-8.067 3.54-14.75-.438zM1016.11 22.6l4.6-2.054 9.69.115-.74.342-7.78-.093-3.04 1.367 7.83.098 2.99-1.372 1.95.021-2.98 1.375-1.96-.024-.76.346-9.8-.12zm16.79 29.663l-9.27-.19-3.62 1.92 9.34.197 3.55-1.927zm-16.13 2.164l4.55-2.402 2.31.047.89-.474 11.58.239-4.4 2.402-2.35-.049-.89.485-11.69-.248zm-103.465 62.881l7.426-4.041 14.58.57-1.43.802-11.693-.46-5.928 3.245 11.811.476 5.81-3.261 2.948.115-5.779 3.267-2.979-.121-1.478.831-11.844-.48 1.511-.827-2.955-.116z"/><path d="M941.539 119.337l-11.958-.486-5.948 3.362 12.083.503 5.823-3.379zm-22.449 3.607l7.503-4.212 1.478-.831 2.979.12 14.922.6-8.701 5.086-18.181-.763zm191.98-74.002l-9.44-.181-2.89 1.884 9.52.187 2.81-1.89zm-15.43 2.128l4.36-2.821 14.12.27-4.18 2.835-14.3-.284zm187.04-30.74l-8.74-.094-1.16 1.432 8.81.1 1.09-1.438zm-12.09 1.315l1.47-1.785 13.09.139-1.62 2.156-11.04-.126.3-.36-2.2-.024zm43.53-15.873l-8.12-.056-.83 1.21 8.18.061.77-1.215zm-11 1.14l.85-1.21 2.03.014.2-.302 10.14.072-1.13 1.824-10.25-.079.21-.306-2.05-.012zm32.22-2.498l-8.13-.052-.67 1.196 8.19.056.61-1.2zm-11.02 1.43l.86-1.496 2.03.015.16-.299 10.16.068-.9 1.8-12.31-.089zm-39.04 96.73l-12.9-.419-1.73 3.102 13.04.434 1.59-3.117zm-18.33 3.362l2.66-4.647 19.29.625-2.33 4.676-19.62-.654zm31.38 4.332l1.8-4.03 16.57.551-.31.804-13.31-.446-1.4 3.236 13.47.463 1.24-3.253 3.34.112-1.2 3.256-3.38-.115-.32.825-13.51-.467.36-.821-3.35-.115z"/><path d="M1313.55 115.027l1.28-3.356.32-.825 3.38.115 13.59.467-.27.832-13.63-.471-1.24 3.36 13.8.49 1.07-3.379 3.42.118-1.3 4.24-17.31-.618.32-.851-3.43-.122zm14.41 9.44l1.43-4.487 17.66.649-.23.891-14.18-.523-1.11 3.605 14.37.543.92-3.625 3.56.131-.88 3.629-3.6-.135-.23.92-14.42-.549.28-.914-3.57-.135zm69.88-122.619l.21-1.734 10.26.054-.02.289-8.22-.045-.13 1.155 8.28.05.07-1.16 2.06.01-.07 1.454-12.44-.073zm103.22 46.897l-1.2-2.952 13.82.229.24.49-11.09-.187.83 1.968 11.19.194-.93-1.975 2.79.047 1.21 2.478-16.86-.292zm-3.65-37.125l-.78-1.664 11.4.088.18.332-9.14-.07.65 1.332 9.21.075-.72-1.337 2.29.018.93 1.677-11.55-.093-.16-.34-2.31-.017zm27.41-10.525l-8.71-.048.75 1.196 8.77.051-.81-1.2zm-9.96 1.436l-.92-1.496 2.17.011-.18-.295 10.86.059 1.04 1.497-2.2-.014.21.302-10.98-.064zm112.63 150.055l-39.05-1.633 2.53 4.565 39.67 1.701-3.15-4.633zm-40.24 3.9l-3.7-6.835 47.53 1.976 4.82 6.964-48.65-2.105zm61.54 27.516l-19.31-.95 3.48 5.585 19.64.995-3.81-5.63zm-20.71 4.392l-4.23-6.943 28.83 1.408 4.86 7.02-4.94-.248.97 1.434-19.73-1.003-.88-1.426-4.88-.242zM1542.04-4.555l-29.49-.117.69 1.108 29.72.13-.92-1.12zm-30.73 1.263l-.85-1.392 2.09.01-.17-.277 31.56.128 1.16 1.398-2.14-.01.23.284-31.88-.14zm188.22 164.629l-18.38-.793 4.06 4.903 18.69.827-4.37-4.937zm-17.94 5.147l-5.99-7.335 27.45 1.177 6.67 7.413-28.13-1.255zM1605.13 25.81l-2.44-2.38 12.87.136.43.393-10.32-.11 1.66 1.59 10.41.116-1.75-1.596 2.6.03 1.77 1.597-2.62-.03.44.404-13.05-.15zm7.01-25.734l-2.2-1.779 11.17.053.2.15 1.12.003.19.147-10.09-.049 1.49 1.187 20.38.103-2.05-1.488 12.43.058.43.298-10.2-.048 2.09 1.49-24.96-.125z"/><path d="M1621.31-1.501l-.2-.15-3.77-2.88 23.21.094.41.287-21.05-.088 3.64 2.746-1.12-.005-1.12-.004zm114.61 87.52l-5.54-4.23 19.53.473.97.697-16.04-.39 3.74 2.828 34.45.859 1.06.725-38.17-.962zm-83.08-72.785l-5.02-3.629 2.43.017 4.57 3.28 11.19.09.51.356-13.68-.114z"/><path d="M1633.77 8.01l-4.67-3.559 24.65.15.46.321-22.36-.14 3.86 2.917 11.97.082 2.57 1.841-2.43-.017-2.08-1.51-11.97-.084zm73.06 44.308l-4.37-3.156 16.79.278.76.523-13.78-.23 2.94 2.102 13.93.241.78.539-17.05-.297zM211.76 167.628l-10.267-.707-16.171 4.306 10.343.732 16.095-4.331zm-33.132 4.506l24.276-6.448 15.395 1.056-20.025 5.404-2.607-.185-4.088 1.102-12.951-.929zm141.53-33.687l16.201-4.359 2.428.13 3.189-.859 9.704.52-3.172.867-9.721-.528-12.891 3.48 9.791.546 12.821-3.498 2.439.131-16.065 4.398-14.724-.828zm37.086 2.081l-9.982-.562-13.113 3.637 10.061.583 13.034-3.658zm-28.925 3.856l19.704-5.451 14.94.833-16.232 4.567-2.522-.144-3.306.924-12.584-.729zm62.017 35.565l-11.663-.804-14.727 4.764 11.768.835 14.622-4.795zm-29.313 3.754l18.374-5.926 17.446 1.196-21.886 7.202-14.752-1.055 3.741-1.211-2.923-.206zm7.001 9.615l-12.053-.892-15.664 5.154 12.165.93 15.552-5.192zm-30.74 4.03l19.562-6.414 18.032 1.327-23.326 7.811-15.253-1.173 4.008-1.319-3.023-.232zm161.16-24.1l-11.961-.771-65.502 23.176 12.527.924 17.962-6.454 15.643 1.111 13.752-5.04-15.489-1.066 33.068-11.88zm-84.318 23.488l72.58-25.583 17.927 1.143-32.763 11.817 15.468 1.057-17.085 6.285-3.143-.222-3.498 1.28-12.549-.896-14.393 5.191-3.164-.233-3.686 1.322-15.694-1.161zm-76.153 26.844l21.14-7.453 16.251 1.34-4.118 1.478-13.036-1.082-16.946 5.997 13.166 1.128 16.816-6.043 3.291.272-16.782 6.053-3.325-.282-4.284 1.537-13.202-1.138 4.32-1.527-3.291-.28z"/><path d="M411.039 204.648l18.783-6.748 3.685-1.324 3.164.233 12.675.93-3.647 1.337-12.708-.941-14.923 5.385 12.836.977 14.795-5.421 3.19.238-18.541 6.818-19.309-1.484zm13.223 9.623l-29.483-2.352-16.132 5.815 29.788 2.453 15.827-5.916zm-53.016 4.673l4.118-1.478 20.125-7.233 35.953 2.851-19.66 7.377-3.345-.275-4.032 1.508-29.865-2.479-3.294-.271zM528.807 175.2l15.319-5.725 3.028.188 2.99-1.124 12.156.749-2.962 1.131-12.184-.756-12.186 4.573 12.308.783 12.062-4.6 3.059.189-15.089 5.783-18.501-1.191z"/><path d="M383.733 229.418l20.669-7.723 4.033-1.508 3.344.274 13.468 1.11-3.986 1.521-13.504-1.12-16.438 6.166 13.65 1.167 16.292-6.213 3.39.279-20.398 7.814-20.52-1.767zm278.57-30.704l-13.934-.959-11.93 5.501 14.097 1.002 11.767-5.544zm-32.412 5.694l15.02-6.894 3.459.24 2.924-1.35 17.382 1.191-14.601 6.913-3.54-.252-2.997 1.411-17.647-1.259zm-104.448 58.757l-15.74-1.467-16.669 7.686 15.941 1.535 16.468-7.754zm-40.633 7.799l25.071-11.502 23.523 2.178-24.615 11.652-23.979-2.328zm128.357 38.96l-18.248-1.926-39.412 22.276 18.887 2.154 38.773-22.504zm-62.362 19.813l43.756-24.569 27.279 2.854-47.212 27.588-23.731-2.733 4.608-2.604-4.7-.536zm96.044 31.031l25.542-17.157 51.362 5.861-3.914 2.857-46.506-5.353-16.943 11.473 26.117 3.114-21.709 15.316 21.691 2.708 37.35-27.258 5.245.603-41.5 30.556-32.673-4.122 22.083-15.449-26.145-3.149zm495.181-182.964l-54.77-2.97-25.18 25.29 16.55 1.022 19.33-20.419 39.84 2.219 4.23-5.142zm-84.06 22.068l26.69-26.482 62.37 3.362-5.2 6.418-4.03-.224-1.08 1.314-36.02-2.019-19.27 20.612-20.78-1.291 1.43-1.437-4.11-.253z"/><path d="M1157.04 185.401l-16.28-.913-9.97 12.293 16.82 1.001 9.43-12.381zm-31.59 12.547l11.27-13.69 1.08-1.314 4.03.224 20.31 1.13-11.36 15.168-25.33-1.518zm76.97 20.57l4.51-7.87 4.48.277.86-1.536 17.97 1.108-.79 1.548-18.04-1.12-3.52 6.285 18.33 1.172 3.23-6.337 4.54.285-3.96 7.964-27.61-1.776z"/><path d="M1229.45 212.045l.79-1.548 3.86-7.558 22.26 1.33-.67 1.497-17.9-1.075-3.03 6.087 18.19 1.12 2.74-6.132 4.49.271-2.66 6.145-4.57-.284-.7 1.564-18.26-1.133-4.54-.284z"/><path d="M1275.32 214.895l-18.48-1.146-2.78 6.407 18.79 1.203 2.47-6.464zm-26.66 6.597l3.59-8.03.7-1.564 4.57.284 23.03 1.419-2.98 8.059-4.72-.302-.63 1.648-23.56-1.514zm116.06 45.732l1.52-12.157 26.78 1.901-.12 2-21.55-1.542-.9 8.118 21.96 1.616.49-8.192 5.41.386-.48 10.325-33.11-2.455zm26.92 12.855l-22.62-1.74-1 8.968 23.08 1.828.54-9.056zm-29.66 9.063l1.68-13.422 33.77 2.577-.52 11.299-5.81-.461-.14 2.322-28.98-2.315zm232.98-71.262l-20.78-1.204 2.81 6.709 21.17 1.263-3.2-6.768zm-22.55 6.898l-4.07-10.038 25.84 1.49 5.23.299.8 1.656 4.15 8.512-31.95-1.919zm56.53-34.967l-19.5-.99 3.2 5.767 19.84 1.035-3.54-5.812zm-20.43 5.989l-4.67-8.629 24.24 1.223 4.88.243.88 1.425 4.55 7.305-29.88-1.567zm69.99-3.47l-19.97-1.012 14.85 21.475 21.28 1.183-16.16-21.646zm-9.29 21.807l-15.64-23.071-.97-1.434 4.93.247 24.88 1.256 18.86 24.8-32.06-1.798zm-395.4-270.51l-10.86.1-.69.449 10.91-.1.64-.45zm-23.63 3.63l-4.94.04-.8.48 4.97-.04.77-.48zm9.08-5.648l-10.54.103-.91.537-17.52.17-1.02.542-5.84.056-1.91.987 4.71-.045 1.04-.55 7.05-.067-1.01.552 28.61-.268.69-.444-5.97.057.88-.55-5.92.058 1.08-.652 5.89-.056.69-.43zm-39.13 2.515l-4.7.044-2.01 1.007 10.69-.096.85-.452-5.92.054 1.09-.557zm-5.57 2.852l-4.82.04-.95.47 4.85-.04.92-.47zm-4.51 5.517l-5.09.035-1.27.654-6.37.043-1.05.528 11.53-.078 2.25-1.182zm-3.78 1.99l-11.61.075-1.08.542 11.66-.075 1.03-.543zm5.74-9.184l-4.74.042-1.16.568-5.93.053-.97.459 10.73-.094 2.07-1.028zm10.03 1.497l-3.6 1.91-30.55.247-1.05.486 6.1-.05-2.61 1.235 6.18-.047-1.29.63 4.98-.036 2.27-1.13-6.17.05 1.53-.74 13.51-.106-3.63 1.87 5.02-.038 2.38-1.256 38.94-.301-.96.627 6.39-.048-.94.637 18.12-.136 1.5-1.144-12.82.099 1.77-1.24-17.62.14-.98.615-7.54.06 2.03-1.221-4.95.042-1.24.01.21-.121.83-.479-4.92.041-1.23.011.21-.119.85-.475-6.09.054 1.08-.584-10.85.094-.91.465 6.05-.052zm-27.72-1.337l-4.68.04-7.53 3.382 4.84-.038 1.31-.6 6.02-.05 1.26-.592 6.02-.052.97-.47-5.99.052 1.23-.582-5.93.05 2.48-1.14zm-50.58 14.24l-5.23.027-3.17 1.325 5.29-.025 3.11-1.327zm-4.8-.687l-5.18.027-1.41.577 5.2-.026 1.39-.578zm16.22-9.202l-4.78.035-1.22.49 4.81-.038 1.19-.487zm22.18-1.943l-22.48.188-1.48.593-5.9.047-1.22.476 11.88-.096-1.48.603 22.9-.182 1.08-.486-6.03.05 2.73-1.193zm-27.94-2.114l-1.76.675-5.74.051-4.29 1.607 10.51-.088 2.97-1.157 5.8-.05 1.14-.457-5.77.053 5.69-2.22-5.64.055 1.41-.54-4.48.044-2.6.974 5.65-.053-1.72.66-5.69.05-1.18.446 5.7-.05zm-42.62 13.434l-11.44.06-9.75 3.517 6.52-.029-4.16 1.531 18.6-.077 1.59-.619-6.63.029 2.01-.766-6.58.028 6.37-2.38 7.75-.039-1.92.733 5.21-.024 7.05-2.747-11.45.064-1.51.568-.38.141-1.28.01zm11.97-10.828l-4.6.038-5.12 1.776-5.83.046-1.41.485 17.62-.137-1.7.61 5.95-.043-1.69.62-.34.123-1.19.01-4.79.036-3.14 1.134 18.16-.13-2.01.772-6.12.044-1.39.52-.35.133-1.22.009-6.13.04 1.78-.651-10.91.076-1.84.65-6.07.04-3.42 1.185 11.04-.068 1.85-.666 12.29-.079 1.23-.01-.35.134-1.42.534 11.19-.073 1.72-.667 18.7-.123 1.26-.01-.32.137-1.61.67-6.3.04-1.66.679-6.32.04-1.72.684-6.32.039-3.21 1.254 11.52-.067 1.73-.7 7.68-.046-3.39 1.415 5.2-.029 1.67-.711 12.99-.073 2.83-1.267-5.15.031-1.6.699-7.74.044 3.57-1.522 12.77-.078 1.52-.681 6.38-.04 1.47-.675 6.36-.04 1.28-.01-.29.136-1.14.54 5.14-.033 1.12-.542.28-.134 1.28-.007 5.13-.034 1.07-.536-5.1.038-1.28.007.28-.133 2.71-1.312 6.3-.044 1.04-.516-6.28.045 1.32-.638-23.52.175-1.23.01.29-.126 1.43-.626 6.12-.045 1.11-.498-17.01.132-2.97 1.245-6.1.043-2.8 1.144-.31.129-1.23.009-12.26.087 1.63-.638-6.06.043 1.65-.63-4.82.037-1.2.009.34-.125 6.21-2.321-5.87.048 1.94-.711 5.83-.05 1.26-.47-10.45.089-3.27 1.179-7.01.058 3.34-1.185zm-14.95 1.271l-4.63.038-1.42.476 4.64-.037 1.41-.477zm-34.99 11.89l-5.09.025-3.99 1.335 5.14-.023 3.94-1.337zm15.05 1.4l-18.14.08-2.22.758-6.48.027-1.82.612 11.72-.047 1.3-.005-.44.154-4.05 1.41 5.29-.02 2.24-.787 6.6-.025 6-2.157zm-30.42 1.637l2.75-.918 6.46-.026 1.78-.606-6.43.028 4.89-1.63 7.62-.038-4.35 1.484 18.12-.08 10.18-3.657 12.7-.07 1.89-.707 12.71-.07 3.57-1.393 6.32-.038 1.72-.683 6.31-.041 1.66-.679 6.29-.04 1.29-.536-17.49.114-1.71.669-13.69.089 1.78-.668-11.07.074-1.84.664-13.52.087 4.19-1.451 6.06-.042 1.84-.647 13.33-.09-1.77.648 4.9-.033 1.74-.648 6.1-.044 1.35-.514-18.18.127 3.86-1.387 5.97-.044 1.36-.497-5.95.045 1.71-.614-17.63.136 1.78-.605-5.81.047 2.15-.717 6.92-.056-1.75.597 4.66-.036 5.12-1.772 6.91-.058-3.33 1.176 4.66-.038 3.28-1.177 11.59-.097 4.61-1.721 5.74-.052 1.18-.449-5.72.052 1.79-.667 5.68-.052 1.15-.442-5.65.054 3.18-1.19 6.71-.065-1.4.538 5.64-.052-5.66 2.213 5.78-.051-1.71.683-5.82.051-2.96 1.158-11.68.099-1.57.587-5.85.05-1.29.472 5.87-.048-6.5 2.444 6.01-.046-1.64.628 6.06-.043-1.62.635 11.03-.076 3.11-1.269 6.09-.045 2.99-1.24 19.41-.154-1.66.746-6.12.045-1.14.501 23.49-.175 1.04-.502-6.18.046 2.62-1.237-6.09.048 1.32-.607-4.84.039-1.35.607-24.13.19-1.5.61-7.21.056 1.84-.73 5.97-.047 1.19-.481-11.88.094 1.83-.715 5.89-.049 1.48-.586 24.83-.21-2.71 1.19 4.81-.039 7.81-3.493 7.03-.065-2.48 1.142 4.75-.04 1.22-.575 5.92-.051 1.17-.568 5.91-.055 2.25-1.116 5.86-.056 2.14-1.094 5.82-.056 1.02-.54 17.49-.172.93-.534 11.68-.114.69-.426-5.83.06.96-.578 1.15-.013-.78.472 4.66-.046 1.17-.013-.17.106-.68.424 4.7-.046 1.18-.013-.16.107-1.5.974 5.96-.058-.82.548 4.81-.044.78-.55 12-.116.57-.436.14-.107 1.21-.012 5.99-.058-.67.546 4.84-.047 1.16-.978-5.99.058 1.39-1.115 1.19-.014-1.25 1.01 5.99-.06-1.41 1.195-7.27.069.68-.546-4.79.047-.71.548-12.02.113-.79.552-7.2.066.81-.549-5.95.057 1.67-1.082-4.7.046-.86.538-5.89.056-.72.435 5.91-.058-.87.549 5.97-.057-.85.556 12.05-.113-.95.675-13.35.122.87-.562-29.82.276 1.02-.55-4.71.043-1.04.551-5.89.055-.87.446 5.92-.053-1.28.677-11.89.106-2.29 1.145-11.94.105-.98.463 5.99-.05-1.45.703-6.03.052-1.25.593-6.04.051-1.04.48 29.28-.239 3.17-1.67-4.84.041-1.15.59-7.27.06 1.42-.707 6.02-.05 1.14-.583 13.24-.115-1.06.582 6.08-.052-1.05.59 6.14-.05-1.02.595 4.95-.04.99-.597 7.41-.064-1.15.723-6.21.05-1.82 1.1 5.02-.04.99-.616 20.11-.162-1.76 1.24 12.83-.101-1.82 1.401-20.73.154.95-.637-6.4.047.98-.63-36.48.284-2.37 1.257-7.54.056 3.66-1.876-11.07.09-1.01.49 6.17-.047-2.76 1.38-6.24.046-1.05.51 6.27-.046-1.55.775-6.31.044-2.43 1.181 5.1-.034 1.33-.66 6.36-.045 1.27-.651 7.62-.056-2.73 1.45-12.84.087-1.07.535 12.89-.087-1.53.815-14.27.092 1.36-.677-5.14.035-1.39.675-7.72.05 1.44-.678-5.1.037-1.47.674-6.39.04-1.51.682-12.79.078-2.91 1.248 5.15-.03 1.6-.695 7.72-.047-3.44 1.546-13.01.074-1.67.714-6.51.035-1.38.577 6.54-.035-3.79 1.622-7.94.038 3.54-1.474-6.52.035 2.13-.863 6.47-.036 3.06-1.276-5.12.032-1.73.704-12.82.07-7.4 2.897-7.83.037 1.93-.734-5.17.026-5.55 2.084 6.57-.031-1.99.764 6.63-.027-2.38.93-21.28.084 4.19-1.534-5.23.022-6.41 2.313-6.62.024-2.23.79-7.96.028 4.52-1.565-13.02.055zM814.276-6.371l.912-.228 7.945.036-4.525 1.145 5.84.026 16.71-4.269-5.703-.02-4.342 1.098-7.858-.031.882-.219 6.421.023 4.337-1.095 8.543.03-18.435 4.723-8.77-.041 4.55-1.149-6.507-.03zm-45.767 19.565l-6.472-.066-4.533 1.178 6.507.069 4.498-1.18zm-13.769 1.39l-14.552-.158-4.7 1.19 14.631.163 4.621-1.195zm-23.379-.254l1.176-.295 7.211.076 5.774-1.457 7.995.084 4.506-1.153-15.073-.15 1.134-.283 16.647.164-6.746 1.73-8.013-.084-4.62 1.169 14.531.155 5.665-1.465 9.691.099-6.729 1.768-8.147-.089-5.775 1.5-17.904-.204 5.897-1.49-7.22-.075zm-37.533 18.447l-7.051-.118-5.631 1.46 7.094.123 5.588-1.465zm-48.729 3.086l1.489-.371 16.73.298 5.81-1.484-8.776-.153 15.665-3.953 8.635.137 1.732.03-1.382.353-5.581 1.43 7.004.114 5.539-1.43 1.369-.355 1.741.027 6.988.11 5.385-1.41-6.946-.11-1.732-.026 1.345-.348 5.336-1.381-6.862-.102-1.707-.027 1.333-.341 5.286-1.35-16.042-.233 1.332-.33 17.712.251-6.581 1.685 8.567.129-6.645 1.726 8.675.132L702.457 31l-8.749-.141-5.53 1.435 8.801.145-8.377 2.204-10.654-.185 7.073-1.832-8.758-.145 7.007-1.793-6.923-.11-12.791 3.237 8.772.15-8.703 2.232-18.526-.334zM534.043 63.589l1.949-.488 10.667.293-9.751 2.47 27.72.788 7.641-2.004-9.893-.275 9.44-2.444-28.111-.752 1.908-.476 30.016.8-9.381 2.433 9.89.273-11.439 3.007-31.728-.909 9.808-2.474-8.736-.242zM511.385 80.61l-8.323-.278-8.846 2.294 8.379.29 8.79-2.305zm.44-3.154l-8.197-.266-8.703 2.231 8.253.275 8.647-2.24zm10.847-5.718l-8.01-.245-8.363 2.118 8.063.252 8.31-2.125zm-62.767 10.359l2.288-.571 19.548.671 8.927-2.28-10.253-.344 21.752-5.489-9.023-.284 2.143-.534 9.007.279 10.452-2.636 11.991.361-12.462 3.194-10.103-.319-19.501 4.935 8.198.274 10.867-2.777 12.272.397-10.765 2.79 10.391.347-13.156 3.457-12.585-.433 11.098-2.874-8.266-.279-11.167 2.863-21.653-.748zm392.26 156.483l-16.831-1.292-10.322 6.986 17.081 1.353 10.072-7.047zm-34.039 7.138l-16.926-1.352-40.678 26.484 17.828 1.586 14.796-9.939 22.125 1.892 11.026-7.713-21.797-1.805 13.626-9.153zm14.019-51.011l-14.757-.95-9.364 5.47 14.948.988 9.173-5.508zm-7.061-7.78l-14.372-.892-9.236 5.217 14.552.931 9.056-5.256zm-14.678 48.443l-36.712-2.825-14.057 8.505-80.102-6.396-12.795 6.789 97.938 8.057 14.262-8.877 20.786 1.646 10.68-6.899zm-119.314-9.178l-71.239-5.48-30.362 14.374 15.151 1.246 16.912-8.18 57.224 4.535 12.314-6.495zm-46.181-28.678l-13.783-.951-15.221 6.842-34.41-2.46-29.84 12.773 14.016 1.07 16.634-7.257 20.991 1.545-16.329 7.338 32.483 2.482 28.088-13.228 2.997-1.411 3.54.252 50.451 3.581 13.848-7.09 18.126 1.242 49.347-26.026 20.737 1.237-11.345 6.211 14.162.872 19.749-11.089-64.535-3.746-11.759 5.881-20.148-1.207 12.042-5.826-13.113-.76-22.331 10.57 51.009 3.147-14.813 7.628-17.487-1.124-13.13 6.568-52.105-3.472-11.486 5.299-2.925 1.349-3.46-.24zm-177.666 60.227l-15.129-1.412-17.382 7.444 15.312 1.474 17.199-7.506zm59.019-16.041l-51.463-4.432-16.142 6.75 37.016 3.289-20.418 8.954 19.136 1.769-70.913 31.877-39.95-4.215-46.03 19.706 16.284 1.857 25.834-11.274 24.421 2.665-25.445 11.44 16.774 1.912 71.941-33.002 24.29 2.437-22.423 10.616 16.696 1.748 22.148-10.718 24.962 2.504-21.723 10.867 17.168 1.798 37.846-19.377-41.274-4.007 24.302-11.757 20.095 1.859 33.5-16.662-34.958-3.013-18.843 8.92-42.32-3.793 19.489-8.718zm118.074-90.902l-11.823-.64-51.807 20.267 28.034 1.73 11.181-4.55-15.472-.931 16.435-6.542 15.241.88 10.447-4.25-15.09-.846 12.854-5.118zm-129.106 4.432l-11.339-.66-27.602 9.412 11.58.716 27.361-9.468zm93.978-27.261l-37.109-1.766-10.116 3.386 13.264.65-12.841 4.378 10.816.546 2.713.135-2.583.896-13.17 4.574-13.712-.717-10.961 3.736 13.835.749-28.339 9.839 11.42.659 14.272-5.03 14.226.792 49.634-17.83-10.897-.537-2.724-.132 2.48-.875 9.792-3.453zm-155.177 42.422l-11.626-.748-13.482 4.515 11.734.775 13.374-4.542zm139.775-52.43l-22.871-1.019-12.225 3.955-12.693-.585-10.145 3.227 36.103 1.709 21.831-7.287zm-37.928-1.693l-9.963-.445-9.96 3.119 10.045.458 9.878-3.132zm-133.304 58.843l-54.493-3.629-14.474 4.528 14.266.98-18.5 5.885 11.646.828 2.922.206-3.741 1.21-34.957 11.311 12.037.917 3.022.232-4.008 1.319-20.415 6.719-15.268-1.218-17.041 5.512 27.861 2.292 20.897-6.974 18.655 1.477-20.672 7.051 15.925 1.31-21.297 7.397 13.029 1.114 3.29.281-4.319 1.527-17.638 6.241 13.332 1.185 17.507-6.289 4.285-1.538 3.326.283 16.683 1.427-21.532 7.92 66.089 5.875 20.652-8.218 35.508 3.038 37.861-15.759 17.565 1.391 14.109-6.012-31.12-2.394-18.149 7.417-34.308-2.739-19.368 7.576-17.092-1.418-3.392-.28 3.986-1.52 34.534-13.174-16.422-1.263 18.376-6.87-12.845-.951-3.191-.238 3.646-1.337 14.267-5.224 3.498-1.281 3.143.222 28.611 2.031 16.724-6.379 15.923 1.09 15.924-6.204 15.882 1.049 12.173-4.842-15.721-1.009 14.932-5.817-12.306-.767-3.058-.189 2.962-1.131 25.776-9.832-11.889-.689-26.043 9.773-2.99 1.122-3.028-.188-56.485-3.51-67.502 23.44-33.266-2.377 35.706-11.916zm-75.484 1.855l21.74-6.78 57.175 3.78 16.825-5.615 17.392 1.11-20.014 6.826-14.713-.98-31.96 10.705 27.158 1.928 64.033-22.157-14.487-.898 33.804-11.487 14.127.816 25.633-8.87-13.841-.751 16.484-5.6 13.657.709 10.53-3.641-13.535-.688 12.948-4.399-13.272-.652 12.707-4.24-38.731-1.844 12.743-4.041-12.566-.578 14.966-4.67 14.906.661-12.285 3.907 10.126.466 12.181-3.929 27.889 1.236-24.127 8.083 39.72 1.877-12.169 4.307 13.614.662-54.74 19.746-14.285-.803-14.317 5.066-14.333-.83-27.305 9.482 56.349 3.476 28.911-10.806 17.785 1.026-28.47 10.904 12.278.759 54.515-21.235 17.683.952-12.734 5.089 15.08.838-15.626 6.388-15.309-.887-10.931 4.371 15.467.921-16.724 6.838-31.257-1.945-11.874 4.647 15.71 1.003-18.203 7.277-15.957-1.062-15.999 6.256-15.998-1.102-16.807 6.437-31.902-2.279-14.236 5.233 16.029 1.182-18.194 6.827 16.413 1.253-38.146 14.612 13.623 1.119 19.259-7.5 34.136 2.706 18.068-7.353 34.441 2.629 33.121-14.111 34.256 2.431 15.153-6.778 17.157 1.175 14.35-6.582 51.842 3.428 13.083-6.51 17.398 1.112 9.918-5.079-51.05-3.171 27.396-12.9 19.61 1.129-11.913 5.797 13.399.796 11.724-5.829 71.133 4.097-21.757 12.297 17.924 1.108-11.22 6.555 18.406 1.174-13.686 8.279-22.485-1.497 11.807-6.853-18.241-1.169 11.645-6.54-17.752-1.101 11.48-6.244-13.861-.83-49.505 26.268-18.221-1.258-13.902 7.16-54.278-3.884-27.989 13.254 74.839 5.715-15.274 8.105 75.749 6.003 14.019-8.422 44.706 3.414-13.227 8.614 16.865 1.336 12.927-8.683 25.148 1.919-15.023 10.596-21.452-1.712-10.788 7.306 21.769 1.79-16.432 11.592-22.268-1.922-14.85 10.056-26.835-2.403 44.025-28.445-16.712-1.336-14.316 8.978-106.461-8.83 16.127-8.505-53.647-4.282-16.995 8.267-22.792-1.89 33.991-16.007-36.156-2.781 16.51-7.386-14.029-1.039-16.715 7.329-17.606-1.352-17.656 7.557-17.67-1.413-34.124 14.269 55.037 4.708-19.268 8.659 34.526 3.071 18.737-8.824 42.583 3.641-40.8 20.409-20.216-1.882-16.152 7.857 41.246 3.972-46.115 23.748-25.835-2.728 22.029-10.958-16.703-1.689-22.311 10.852-25.119-2.648 22.725-10.704-16.251-1.644-72.442 33.407-25.233-2.902 25.742-11.516-16.325-1.8-26.004 11.405-24.535-2.824 56.418-24.037 39.734 4.156 62.192-27.819-15.339-1.428-21.534 9.443-23.071-2.241 26.134-11.133 18.848 1.742 16.454-7.182-37.018-3.313 20.315-8.457-32.09-2.765-20.765 8.304-73.237-6.561 21.753-7.971-13.369-1.151-21.927 7.909-20.081-1.801 22.177-7.817-16.309-1.406 21.505-7.439-15.93-1.322 20.871-7.089-12.471-.995-21.019 7.038-34.122-2.83 25.593-8.25 15.2 1.202 16.304-5.346-15.061-1.162 39.066-12.597-14.575-1.04 18.664-5.918-14.273-.984z"/><path d="M315.083 291.648l-34.518-3.804-21.876 8.559 34.917 3.984 21.477-8.739zm-65.824 6.503l32.896-12.816 42.062 4.594-32.164 13.148-42.794-4.926zm51.078 20.885l-36.557-4.403-158.172 64.65 39.279 5.981 63.117-26.89-21.378-2.969 39.087-16.27 20.993 2.754 53.631-22.853zM93.775 381.7l171.78-69.898 44.558 5.316-65.417 28.004-21.139-2.796-26.013 10.877 21.397 2.943-77.003 32.963-48.163-7.409zM1506.49 487.292l-34.46-4.347 3.92 46.097 37 5.092-6.46-46.842zm-39.29 46l-4.02-56.14 51.28 6.409 8.69 57.504-55.95-7.773zm-98.85-294.775l-20.27-1.352-1.62 9.172-25.66-1.77-6.71 27.787 27.4 2.092-6.15 34.83 54.31 4.643 1.31-22.043.14-2.323 5.81.461 29.32 2.323.73 38.176 25.83 2.296-3.44-47.872-29.07-2.235-.08-13.074 28.2 2.073-.6-8.389-49.49-3.539-5.41-.385.12-2.001.46-7.806-26.28-1.814 1.15-9.25zm-80.85 13.333l-45.59-3.261-7.67 17.668 20.97 1.601 3.87-10.095 25.93 1.91 2.49-7.823zm-80.57-40.783l-39.87-2.477-9.71 14.156 22.84 1.511-5.26 8.435 47.52 3.256-4.48 9.01 19.78 1.406 4.05-9.089 24.48 1.678 5.94-15.529.63-1.648 4.72.302 23.81 1.519-5.32 17.396 20.13 1.378 6.14-24.138-23.65-1.466 2.5-7.852-41-2.46-4.49-.271.67-1.497 2.62-5.882-39.26-2.279-7.44 13.282-.87 1.536-4.48-.277zm-101.08 16.898l-8.35 10.296-45.71-3.267-15.11 16.176 18.82 1.436 8.17-9.225 51.7 3.806-8.53 11.403-24.31-1.87-14.72 18.147 25.28 2.08-8.17 10.913 20.91 1.791 33.81-48.377-23.53-1.683 12.95-17.012-39.99-2.665-5.67 6.509 22.45 1.542zm8.92-101.188l-13.18-.535-5.08 4.544-16.58-.691-10.01 8.496 13.61.603 5.44-4.81 20.29.872-15.91 15.057 32.35 1.529 4-4.223-17.82-.821 6.13-6.074 17.48.776 3.74-3.947-17.28-.748 4.79-4.754-16.85-.706 4.88-4.568zM939.721 266.5l-18.663-1.547-35.011 29.717 24.758 2.29-13.187 11.804 25.68 2.472-13.309 12.592 48.315 4.849 9.82-10.376-26.508-2.57 14.678-14.563 25.792 2.387 10.992-11.611 77.912 6.926 7.01-9.21-101.307-8.73 20.646-20.486-18.785-1.496-21.449 20.295-28.961-2.494 11.577-10.249zm125.659-127.085l-13.52-.602-11.16 9.01 31.4 1.486 4.67-4.129-17.3-.797 5.91-4.968zm-38.73 32.548l-33.221-1.803L962 194.367l15.622.963 3.945.244-1.716 1.386-7.005 5.656 56.974 3.639 6.21-5.809 1.51-1.419 4.07.251 16.36 1.01 4.11.252-1.43 1.437-13.43 13.485 38.88 2.574 6.85-7.749 21.55 1.376 6.18-7.507 43.04 2.654 27.14-38.832-76.75-3.897 5.38-5.683-32.97-1.621-5.92 5.599-18.35-.93-6.44 5.756-18.46-.967-5.56 4.719-1.42 1.208-3.72-.199zm70.48-59.227l-27.81-1.024-22.09 17.013-32.14-1.342-5.12 3.611 32.5 1.394-6.12 4.716 13.34.592 17.23-13.784 16.14.648 4.14-3.482-15.95-.626 6.29-5.031 15.69.592 3.9-3.277zm-81.94 24.438l-13.15-.585-43.155 30.438 32.43 1.749 6.075-4.638-17.863-.938 16.436-11.996 20.757 1.012-7 5.39 14.17.715 12.04-9.628-34.29-1.634 13.55-9.885zm-97.708 71.315l-15.874-1.057-19.409 13.69 79.243 5.626 16.906-14.204-20.539-1.368 9.222-7.376-15.947-1.023-19.404 14.946-24.526-1.694 10.328-7.54zm100.268-106.675l-25.775-.893-11.104 6.718 44.169 1.617-7.04 4.764-15.08-.573-4.991 3.25 43.021 1.678 4.53-3.31-15.31-.585 6.84-4.786 30.27 1.108 9.13-6.962-11.89-.41-5.17 3.803-47.37-1.692 5.77-3.727zm-8.32-21.463l-10.461-.3-4.376 2.474 10.557.31 4.28-2.484zm66.79 1.91l-50.99-1.458-5.18 3.13-13.33-.393-5.47 3.202-13.394-.407-16.582 9.37 13.842.461-6.066 3.546 11.291.39 22.769-13.683 13.55.413 5.16-3.215 16.19.477-10.07 6.554 13.94.435-15.65 10.593 11.67.401 19.06-13.33-13.89-.426 5.82-3.91 13.69.403 3.64-2.552zm-69.26-8.24l-10.14-.27-5.349 2.928-12.76-.354-4.492 2.386 23.221.657 9.52-5.346zM892.7 130.739l-10.049 5.501-15.506-.714-7.087 3.76 28.294 1.337 8.45-4.745 15.721.72 6.4-3.714-15.551-.694 9.548-5.362 30.729 1.321 19.857-11.927-26.674-1.047-2.949-.115 1.431-.802 5.639-3.169-14.434-.547 8.427-4.583 28.57 1.047 11.49-6.669-25.162-.87-6.62 3.622-14-.501-27.639 14.666 11.724.475 2.955.117-1.511.827-7.66 4.191-14.906-.625-14.742 7.823 15.255.677zm-37.56 9.353l10.676-5.632 15.422.706 6.737-3.662-15.259-.683 18.11-9.55 14.83.616 6.134-3.336-14.678-.595 30.704-16.192 13.934.493 6.616-3.6 27.875.96 4.896-2.842-13.865-.464 19.058-10.7 13.349.403 4.391-2.548-13.225-.39 5.512-3.096-25.839-.739 6.775-3.57 12.7.348 5.35-2.91 15.197.406-10.49 5.931 13.05.371-5.3 3.098 10.63.31 5.18-3.11 56.23 1.596-5.43 3.83-13.74-.407-3.86 2.61 13.88.42-20.92 14.758-17.53-.607 15.83-10.638-13.95-.437 10.19-6.587-10.82-.32-5.16 3.236-13.6-.414-21.556 13.044 28.586.982-5.7 3.712 41.35 1.466 5.17-3.774 17.79.612-10.02 7.72 30.84 1.13-5.79 4.918-15.75-.597-4.16 3.359 15.93.623-6.17 5.233-16.19-.658-16 12.923 13.48.595 11.19-9.402 16.5.687 5.09-4.51 19.71.795-4.8 4.545 16.84.7-4.72 4.733 17.25.742-5.54 5.929-17.57-.786-4.04 4.058 17.8.812-5.93 6.343-39.66-1.886 16.18-15.137-13.57-.587-5.42 4.85-17.08-.764-4.67 3.969 17.28.789-6.93 6.202-35.03-1.667-13.32 10.752-21.36-1.083 7.11-5.421-13.879-.682-13.353 9.83 17.862.934-7.51 5.783 33.11 1.784 6.98-5.868 18.36.958 6.45-5.707 18.26.922 5.93-5.554 40.17 1.963-5.28 5.649 76.66 3.868-27.51 40.096 39.71 2.449 8.41-14.67 47.8 2.754-3.18 7.337 45.42 2.707-2.39 7.798 23.61 1.456-6.23 25.804 20.39 1.398 1.72-9.067 30.32 2.007-1.03 9.185 26.21 1.796-.45 9.733 54.79 3.891 1.07 12.619-28.42-2.106.17 8.726 29 2.212 4.51 53.089-38.95-3.49-.22-38.491-23.56-1.88-1.14 24.689-66.76-5.753 6.66-35.092-27.43-2.109 7.59-29.86-25.23-1.741 5.58-17.514-19.11-1.23-6.42 17.369-24.64-1.7-3.18 7.32 50.5 3.586-3.6 11.77-26.12-1.939-3.78 10.215-31.59-2.429 8.79-19.687-24.79-1.775 4.62-9.072-47.6-3.283 5.41-8.495-22.9-1.525 11.02-15.769-38.94-2.419-6.15 7.586-21.68-1.397-5.44 6.239 44.32 2.933-12.65 16.9 23.5 1.669-36.07 52.555-26.32-2.269-8.69 11.597-78.52-7.035-10.989 11.761-25.986-2.423-9.693 9.733 26.464 2.549-14.575 15.6-59.318-6.004 13.571-12.694-25.717-2.497 13.435-11.892-24.791-2.312 40.337-33.893 27.868 2.294-11.367 10.173 19.232 1.644 21.441-20.058 28.048 2.223-20.244 20.335 95.954 8.206 6.67-8.759-25.3-2.097 18.22-22.138 24.12 1.841 5.76-7.573-42.47-3.151-8.14 9.333-28.34-2.18 18.69-19.74 45.4 3.226 5.64-6.854-22.48-1.552 7.22-8.152-43.31-2.886 15.14-15.019-16.42-1.019-7.72 7.301-61.324-3.946-7.292 5.889 20.495 1.354-20.496 17.398-87.893-6.286 23.872-16.701 23.722 1.569-10.172 7.492 16.287 1.113 19.387-14.794 19.86 1.269 7.059-5.646-19.587-1.219 33.461-25.536-36.107-1.96 46.468-32.501 19.65.869-13.35 9.836 30.8 1.455 11.26-8.996-16.73-.746 6.21-4.739-32.52-1.405 7.74-5.415 31.98 1.327 21.08-16.085-27.35-1.007-4.53 3.197 15.3.578-6.75 4.971-49.291-1.933 7.541-4.874 15.01.571 4.73-3.174-44.214-1.629 12.444-7.476-11.319-.393-12.73 7.442-28.675-1.058-5.592 3.059 14.42.546-6.989 3.949 29.584 1.156-22.562 13.647-30.854-1.334-6.333 3.583 15.523.687-9.545 5.577-15.779-.726-8.462 4.782-34.687-1.645zm284.38-110.26l-8.63-.118-2.39 1.55 8.7.124 2.32-1.556zm-70.82 2.959l-8.49-.127-2.97 1.579 8.55.132 2.91-1.584zm-20.92 24.882l-21.48-.475-4.63 2.532-11.96-.273-3.87 2.058 46.24 1.082 3.48-2.093-12.17-.277 4.39-2.554zm-26.46-5.648l-43.285-.893-3.983 1.887 22.832.481-4.851 2.43 32.807.716 3.62-1.972.89-.485 2.35.05 9.39.2 12.61-7.078 11.47.223 3.9-2.266 11.42.21 2.97-1.782-11.33-.205 4.49-2.605 11.2.194 3.54-2.13 22.38.372 12-7.749-8.66-.126-3.15 1.974-10.87-.163-3.32 2.008-10.91-.173-3.49 2.045-13.14-.213 3.62-2.032-8.61-.133-6.72 3.677 10.97.181-12.27 6.932-22.56-.42-12.1 6.42-.9.474-2.31-.049zm-50.544 1.422l6.001-2.827 45.443.931 13.01-6.86 22.48.416 10.79-6.055-10.98-.184 7.53-4.095-10.7-.167 4.48-2.364 12.72.19-3.61 1.976 10.75.164-3.58 2.028 8.74.14 3.5-2.033 10.87.17 3.33-1.996 10.84.16 3.15-1.963 10.8.154 2.99-1.93 12.91.18-3.44 2.33-10.9-.157-12.57 8.184-22.45-.376-3.53 2.14-11.24-.196-2.97 1.74 11.32.202-4.42 2.677-11.46-.213-3.9 2.276-11.5-.221-12.59 7.114-11.78-.252-3.6 1.974 23.84.522-4.36 2.542 12.17.275-5.2 3.145-51.21-1.204 5.85-3.088 11.91.27 3.71-2.018-35.197-.776 4.898-2.436-22.845-.489zm408.704-9.189l-23.25-.388-1.31 4.269 23.74.425.82-4.306zm-59.27-27.418l-3.19 5.695-11.23-.127-2.09 3.36 9.14.111 1.08-1.886 11.37.134 1.88-3.674 11.21.12.64-1.431-11.13-.116 1.07-2.099 11 .108 1.37-3.07-19.41-.176-.94 1.682-10.8-.104-.85 1.364 10.88.109zm-21.51 13.177l-9.29-.124-1.1 1.599 9.37.131 1.02-1.606zm1.66 17.627l-22.85-.411-2.99 4.356 23.32.448 2.52-4.393zm29.55-2.344l-2.3 5.292-13.07-.243-2.5 5.034-39.59-.789-1.41 2.055 50.76 1.041 2.3-5.152 26.63.508 1.42-4.47-13.08-.236 1.81-4.727-12.7-.213 1.02-2.275-12.48-.203 1.36-2.648 12.31.193.77-1.736-24.33-.367 2.39-4.17-9.45-.13-1.28 2.054-11.86-.169-2.61 3.8 24.26.376-5.1 9.093 10.24.18 1.21-2.361 15.28.263zm-61.87 11.815l-23.6-.488-1.69 2.084 13.2.282-2 2.676 10.74.234 3.35-4.788zm-10.32-33.411l-8.8-.104-1.39 1.48 8.88.107 1.31-1.483zm-12.75 1.724l-19.83-.246-4.01 3.797-44.17-.589-2 1.54 22.12.306-2.33 1.977 31.74.454 3.99-3.955 56.88.756 2.43-3.487-11.3-.14 1.71-2.245 11.17.13 2.54-3.632 11.03.119 2.01-3.16-32.31-.321 1.39-1.688-10.55-.102 5.68-6.417-8.1-.063-8.82 9.447 10.67.111-1.82 2.098-10.81-.117-1.33 1.423 19.65.222 2.19.024-.3.361-4.54 5.607-24.77-.317 1.79-1.893zm-72.73 4.86l3.02-2.309 44.05.585 4.04-3.782 21.97.27 1.75-1.845 13.18.154-1.95 2.23-11.12-.137-1.41 1.513 20.22.257 4.3-5.22-21.84-.249 2.01-2.13 10.77.116 1.24-1.398-10.69-.112 9.56-10.095 12.12.094-5.59 6.398 10.54.1-1.37 1.685 30.12.296 1.08-1.701 10.77.101.96-1.672 23.66.214-1.62 3.75-11.03-.11-.69 1.401 11.11.114-.93 2.152-11.25-.121-1.84 3.691-11.4-.136-1.07 1.897-13.73-.17 2.61-4.103 11.19.128 2.85-4.984-8.72-.086-2.19 3.52-11.05-.121-2.51 3.652-11.21-.132-1.12 1.495 11.3.136-2.66 3.872 11.6.154-1.25 2.005 11.79.162-2.33 4.157 24.31.36-1.13 2.604-12.35-.192-.88 1.767 12.46.202-.98 2.264 12.69.212-1.75 4.713 10.45.184 1.51-4.728 28.36.47-.93 5.267-26.47-.477-1.53 4.985-26.72-.514-2.24 5.18-53.6-1.104-3.66 5.338-16.17-.357 2.04-2.687-13.2-.281 2.57-3.123 26.14.536 1.79-2.558 39.45.78 2.55-5.006 13.02.242 1.93-4.329-10.21-.175-1.18 2.373-12.84-.23-2.74 4.891-28.58-.55 3.71-5.316 25.33.45 4.96-8.648-24.3-.378 3.25-4.644 11.83.172 1.05-1.641-11.74-.163 1.4-2.003-54.75-.733-3.96 3.974-36.34-.525 2.36-1.982-22.15-.306zm323.68 101.489l-15.55-.59.86 3.947 15.76.617-1.07-3.974zm-18.41 4.206l-1.2-5.911 23.23.878 1.7 5.963-23.73-.93zm199.86-70.422l-44.88-.928 2.9 2.991-16.01-.342 2.19 2.442 29.25.64-3.15-3.068 19.46.411 3.43 3.09 13.26.291-6.45-5.527zm-58.48 4.708l-3.23-3.653 15.94.337-2.84-2.974 51.14 1.048 7.99 6.763-19.96-.44-3.4-3.104-12.99-.279 3.21 3.092-35.86-.79zm27.66-31.123l-11.31-.161 2.08 1.874 11.42.169-2.19-1.882zm-11.57 2.143l-11.35-.17 1.98 1.91 11.48.18-2.11-1.92zm-11.74 2.176l-2.94-2.86 14.17.21-2.56-2.333 16.92.244 3.33 2.821-14.31-.215 2.67 2.405-17.28-.272zM944.22-9.31l-13.604-.05-6.764 2.052 6.098.026 3.74-1.15 7.619.028 2.911-.906zm-15.282-4.443l-13.033-.028-6.702 1.912 14.65.04-4.456 1.31L912-10.54l-3.056.885 20.903.069 6.58-1.988-7.406-.022 3.625-1.08-7.327-.018 3.619-1.06zm-21.948 2.097l8.212-2.338 15.905.033-3.598 1.058 7.323.02-3.604 1.074 7.41.02-7.282 2.207 15.1.052-4.353 1.36-7.628-.028-3.742 1.152-9.172-.037 7.547-2.28-22.413-.076 4.592-1.325 7.381.02 2.979-.871-14.657-.04zm-37.954 4.36l-5.901-.023-8.556 2.31-14.857-.072-17.366 4.566 6.071.037 4.632-1.232 7.571.045 3.615-.973.897-.24 1.512.009 6.049.032 16.333-4.46zM819.899-.28l19.237-5.042 14.819.069 8.544-2.303 8.844.037-18.011 4.929-7.571-.041-4.514 1.22-7.588-.047-4.636 1.236-9.124-.058zm58.38 11.538l-23.583-.226-3.922 1.172 23.722.234 3.783-1.18zm-30.175 1.224l5.893-1.753 26.91.253-5.659 1.772-27.144-.272zM596.3 80.201l-8.66-.281-18.506 5.283 42.247 1.45 9.995-3.02 13.462.447-9.867 3.04 9.12.315 17.439-5.44-33.375-1.084 9.662-2.874-8.701-.275-19.723 5.799-13.194-.443 10.101-2.917zm-31.462 5.525l-8.755-.303-10.792 3.038-10.969-.391-8.911 2.473 19.943.731 19.484-5.548zm-11.56-10.036l-8.285-.26-8.296 2.21 8.345.27 2.103.065-2.079.562-8.423 2.275 19.146.638 8.292-2.294 2.046-.566 2.12.07 8.528.273 10.008-2.808 10.625.333 9.674-2.752 34.194 1.035-9.368 2.795 8.745.273 9.287-2.805 21.883.66 7.114-2.218-10.901-.323 8.801-2.702-8.576-.243-8.879 2.69-23.588-.695 26.646-7.81-20.591-.553 17.125-4.874-18.002-.454-6.88 1.91 10.041.257-10.446 2.941-10.144-.271-16.371 4.542 10.298.292-20.757 5.841-31.279-.952-8.024 2.165-2.037.552-2.095-.07zm-20.768 2.44l12.469-3.31 10.343.32 10.03-2.698 31.194.943 17.01-4.772-10.3-.295 20.042-5.547 10.114.27 6.98-1.96-10.046-.26 10.339-2.859 21.963.548-17.014 4.857 20.581.55-26.466 7.779 19.261.566 8.855-2.678 12.86.364-8.738 2.693 10.888.319-10.65 3.333-21.945-.67-9.312 2.826-10.969-.348-7.697 2.299 33.361 1.076-21.267 6.656-13.714-.474 9.943-3.054-8.979-.302-10.027 3.042-44.59-1.544-21.66 6.182-24.413-.9 13.386-3.703 10.932.386 10.76-3.017 10.911.374 20.547-5.848 12.964.419-10.034 2.907 8.784.29 19.675-5.765 10.848.34 7.522-2.239-29.976-.911-9.7 2.767-10.661-.335-10.028 2.822-10.681-.35-10.37 2.878-23.449-.785 10.57-2.846-10.446-.335zm-135.856 39.724l-9.287-.441-26.427 7.04 9.437.476 26.277-7.075zm-41.094 7.282l-9.39-.476-12.343 3.243 9.457.493 12.276-3.26zm-27.215 3.465l18.534-4.859 11.699.592 29.325-7.79 13.922.658-32.065 8.655-11.84-.599-15.361 4.091-14.214-.748zm-82.49 79.944l-11.948-.988-41.526 12.79 12.179 1.08 41.295-12.882zm-61.311 13.003l-12.056-1.082-45.194 13.702 15.392 1.482-26.391 8.128 12.582 1.262 46.508-14.509-15.418-1.437 24.577-7.546zm-65.545 13.903l-56.888-5.524-50.06 14.292 42.403 4.435 27.852-8.286 15.337 1.538 21.356-6.455zM3.259 245.564l61.27-17.439 59.695 5.747 50.078-15.133 15.038 1.336 46.03-14.13 17.888 1.471-50.395 15.772-15.277-1.368-19.561 6.024 15.404 1.424-56.768 17.768-18.916-1.915 26.641-8.177-12.317-1.196-26.768 8.116-15.415-1.561-28.078 8.382-48.55-5.121zm739.627-100.756l-27.049-1.373-33.059 14.153 15.519.863-12.38 5.43 28.699 1.653 12-5.505 32.05 1.787 8.948-4.329-47.331-2.569 22.603-10.11zm-65.701 13.671l37.918-16.156 32.984 1.664-22.368 10.055 47.296 2.549-13.388 6.513-32.203-1.807-12.027 5.546-35.18-2.04 12.496-5.453-15.528-.871zm-31.509 104.385l-16.519-1.479-14.621 7.759 16.749 1.548 14.391-7.828zm79.678-4.011l-16.881-1.453-33.695 19.688-42.926-4.002-18.859 10.322-21.424-2.081-16.064 8.523 21.734 2.18-65.016 35.584 18.581 2.123 4.7.536-4.608 2.604-18.961 10.715 24.108 2.878-24.413 14.264 19.963 2.494 104.296-62.651-45.043-4.554 23.248-13.054 44.053 4.242 47.207-28.358zm-158.273 32.742l24.177-12.751 21.276 2.047 15.078-8.199-20.978-1.956 22.009-11.61 24.705 2.197-17.83 9.759 38.448 3.557 33.535-19.466 25.225 2.155-53.708 32.488-44.318-4.302-15.438 8.727 44.985 4.511-112.566 68.094-30.056-3.788 24.786-14.387-24.146-2.906 23.916-13.428-23.298-2.685 65.926-35.859-21.728-2.198zm-43.627 23.009l-39.733-4.38-19.298 9.655 22.259 2.538-24.866 12.805 18.381 2.194 43.257-22.812zm-68.399 7.241l29.05-14.452 48.386 5.282-52.714 27.973-27.664-3.332 25.211-12.911-22.269-2.56z"/><path d="M1388.7 329.436l-25.14-2.252-1.24 11.119 25.71 2.378.67-11.245zm-33.14 11.121l-25.41-2.369-2.05 11.606 26 2.504 1.46-11.741zm-34.5 11.589l3.3-17.357 31.56 2.919 1.72-13.776 37.52 3.336-.79 16.907-32.37-3.018-1.66 14.804-39.28-3.815zm-357.934 88.015l-26.807-3.547-13.282 16.38 27.448 3.772 12.641-16.605zm-50.347 16.113l20.155-24.478 39.993 5.239-18.714 24.996-41.434-5.757zm166.481-22.875l-61.44-7.75-10.87 15.844 62.94 8.248 9.37-16.342zm-82.043 11.271l16.553-23.684 74.66 9.332-13.79 24.593-77.423-10.241zm61.313-87.746l-23.75-2.508-11.42 15.259-30.078-3.311-10.29 12.69 55.638 6.348 19.9-28.478zm-84.287 24.694l15.633-18.989 29.784 3.254 11.45-15.038 35.5 3.714-23.98 34.932-68.387-7.873zm222.617-105.661l-20.97-1.674-4.85 8.658 21.36 1.761 4.46-8.745zm21.58 13.236l-21.78-1.806-5.76 11.584-27.51-2.373-12.42 22.156 22.98 2.125 6.48-12.699 28.4 2.524 9.61-21.511zm-74.65 31.62l15.48-27.011 27.3 2.335 4.69-9.197-26.78-2.221 7.42-12.955 31.3 2.479-5.42 10.9 27.12 2.232-11.44 26.362-28.63-2.566-6.4 12.873-34.64-3.231zm207.98 50.166l-26.93-2.722-2.31 13.079 27.59 2.884 1.65-13.241zm-36.75 13.011l-126.25-13.325-21.16 48.796 63.91 7.629 6.05-18.986 42.47 4.847-9.68 40.106 30.83 3.853 13.83-72.92zm-125.76-29.451l-24.75-2.503-6.04 12.134 25.31 2.646 5.48-12.277zm-23.56-17.475l-23.71-2.3-6.33 11.29 24.21 2.429 5.83-11.419zm-37.69 11.279l9.68-16.884 35.36 3.407-7.08 14.226 30.82 3.093-6.64 15.301 125.51 13.131 3.08-16.194 40.21 4.034-2.23 19.934-34.79-3.671-13.7 77.565-46.59-5.88 10.31-40.511-28.5-3.281-5.91 19.303-78.6-9.468 23.42-52.455-31.74-3.349 7.76-15.224-30.37-3.077zm-608.698 75.116l-49.309-7.204-24.454 14.792 50.19 7.643 23.573-15.231zm-85.56 10.558l36.814-22.114 59.994 8.677-35.202 22.916-61.606-9.479zm521.171-253.273l-14.85-.864-16.576 11.694 15.295.946 16.131-11.776zm-37.149 11.943l-33.956-2.111-19.054 12.405 15.462 1.024 10.495-7.049 19.2 1.223 7.853-5.492zm-59.061 11.469l23.423-15.135 37.562 2.319 18.468-12.921 22.199 1.279-19.58 14.417-19.199-1.194-9.794 6.907-19.304-1.242-10.512 7.12-23.263-1.55zM987.075 70.09l-9.9-.258-4.381 2.257 9.985.266 4.296-2.266zm-17.879 2.502l6.602-3.382 14.813.383-6.408 3.399-15.007-.4zm385.314 103.282l-38.07-1.934-7.89 25.825 40.98 2.364 1.11-5.867-22.51-1.262 2.13-8.371 66.73 3.596.72-12.155-17.39-.882-.74 6.597-26.31-1.382 1.24-6.529zm-50.93 25.098l9.08-28.495 46.36 2.338-1.14 6.489 17.45.91.81-6.534 26 1.312-.69 14.889-67.15-3.645-1.35 5.584 22.49 1.254-1.55 8.818-50.31-2.92zM983.711 58.864l-9.366-.21-4.167 2.025 9.442.223 4.091-2.038zm-6.561-2.751l-9.209-.204-4.169 1.974 9.283.211 4.095-1.981zM960.4 58.33l6.284-2.96 13.779.302-5.082 2.473 11.686.265-6.115 3.06-14.187-.335 5.251-2.54-11.616-.264zm277.21-36.697l-8.62-.096-1.52 1.439 8.69.101 1.45-1.444zm-12.69 1.684l2.31-2.162 12.9.144-2.16 2.171-13.05-.153zm11.77-18.384l-1.99 1.78-9.82-.074-1.42 1.206 17.85.137 4.45-4.162-17.42-.116-1.37 1.162 9.72.067zm-15.56 3.2l-7.89-.062-1.9 1.532-9.89-.08-1.61 1.24 17.97.154 3.32-2.784zm-19.66-.154l-7.8-.06-1.65 1.216 7.86.062 1.59-1.218zm-11.83 1.444l2.5-1.822 11.69.09-1.98 1.522 7.89.065 1.91-1.525 9.84.076 1.79-1.502 9.79.072 1.34-1.186-9.73-.07 2.07-1.74 21.26.14-5.03 4.762-19.88-.155-3.65 3.101-22.01-.19 2.03-1.555-9.83-.083zM1338.97-2.7l-7.78-.039-2.19 3.896 7.98.046 1.99-3.904zm-35 8.402l-8.08-.057-.9 1.207 8.13.06 2.05.014-.21.306-.85 1.236 29.05.225.8-1.555 10.38.075 2.53-5.664-8.03-.045-.72 1.447-10.08-.063-.66 1.174-.17.299-2.03-.015-10.1-.068.93-1.465-7.98-.05-1.82 2.651-.21.302-2.03-.014zm-2.14 3.063l-18.47-.144-2.3 2.837 39.85.345.74-1.292-20.93-.17 1.11-1.576zm-23.1 2.997l2.85-3.467 20.47.158.86-1.235-10.19-.076 1.38-1.808 10.08.068 2.05-2.94 11.95.076-.91 1.462 8.08.05.84-1.463 10.06.062.59-1.157-9.99-.059 2.56-4.45 11.65.052-2.08 4.183 10.03.055-2.72 6.267-10.42-.076-.77 1.563-31.2-.246-.87 1.258 20.9.17-1.09 1.937-44.11-.384zm105.08 9.671l-20.65-.224-.45 1.474 20.82.235.28-1.485zm-23.52 1.594l-9.19-.103-.55 1.498 9.26.11.48-1.505zm-1.21 3.808l-9.39-.114-.58 1.564 9.47.122.5-1.572zm-10.99-2.06l-9.23-.11-.66 1.526 9.3.114.59-1.53zm-12.38 1.774l-9.27-.114-.77 1.55 9.34.12.7-1.556zm-12.57 1.798l-9.31-.12-.89 1.58 9.39.123.81-1.583zm-12.76 1.828l1.35-2.366 11.61.148.99-1.937 11.55.143.85-1.901 11.51.135.71-1.87 11.46.13.58-1.838 25.2.271-.39 2.228-23.21-.265-.57 1.887-11.62-.137-.56 1.53 11.71.142-.72 2.356-14.22-.184.75-1.955-9.33-.117-.84 1.952-11.72-.15-.99 1.986-14.1-.188zm121.14 5.865l-22.81-.33-.08 1.742 23.01.342-.12-1.754zm-37.36-4.746l-9.75-.13-1.43 8.113 22.98.354.1-1.777-12.69-.191.79-6.37zm-13.81 8.388l-22.74-.353-.55 1.792 22.94.368.35-1.807zm-25.96 1.85l.86-2.685 25.18.39 1.62-8.513 14.62.195-.71 6.344 10.13.15.13-2.168 27.81.4.23 2.63-25.65-.382-.11 2.23-25.6-.397-.4 2.261-28.11-.455zm-53.41-56.805l-7-.01-1 1.142-8.78-.016-.87.926 15.95.034 1.7-2.076zm-50.58-1.19l-15.19-.017-1.15.883 8.48.013-1.39 1.12 6.86.01 2.39-2.008zm-11.25 2.225l-6.83-.014-4.21 3.242 26.32.07-1.35 1.203 7.14.023 1.29-1.207 17.82.049 2.02-2.132-15.83-.035-1.23 1.17-10.56-.025 1.32-1.168-17.33-.036 1.43-1.14zm-13.1 3.461l-6.96-.02-2.94 2.163 7.05.023 2.85-2.166zm-12 2.384l3.63-2.645 8.68.022 4.54-3.467 8.53.015 1.12-.896-8.47-.014 1.73-1.326 18.54.024-2.9 2.46-8.58-.016-1.14.914 17.32.036-1.3 1.165 7.03.016 1.25-1.168 17.54.04 1.09-1.154 8.76.016 1.01-1.14 10.49.015-2.06 2.537-17.75-.038-2.21 2.372-17.87-.048-1.28 1.208-10.72-.032 1.36-1.207-24.59-.069-3.14 2.416-10.61-.036zm-151.28-10.364l-6.01-.003-4.82 1.846 6.09.007 4.74-1.85zm-12.89 2.046l-6.06-.005-2.23.835 6.1.009 2.19-.839zm5.83-5.018l-13.13.002-4.86 1.756 7.36.004-2.71.996 13.43.008 2.1-.802h-7.43l5.24-1.964zm-49.83-2.05l-6.368 2.062-14.126.002-11.814 3.696 20.282.018 2.438-.799-7.234-.004 3.66-1.18 14.392.002 2.33-.778h-7.17l3.5-1.15 7.12-.001 2.83-.943 7.11-.006h1.42l-.55.189-2.23.76 20.19-.006 2.12-.763-7.2.003 2.67-.94-5.71.005-1.42.001.54-.186 2.14-.74-12.68.014-2.75.922-8.45.005 2.81-.918-19.451.017-5.292 1.657 5.597-.004 2.924-.927 8.372-.007zm-34.387 5.961l13.094-4.088 14.096-.001 5.227-1.686-5.591.004-2.923.93-8.401.006 6.489-2.027 22.196-.022-2.79.918 5.63-.005 2.75-.92 15.47-.014-2.65.924 7.12-.007-2.65.94 7.2-.006-2.64.955 14.57-.005-5.21 1.957 7.42.002-2.61 1 7.5.005-5.77 2.26-7.62-.01-2.74 1.05-9.15-.014 3.35-1.253 7.57.006 4.83-1.843-14.92-.009 2.73-1-7.38-.002 5.44-1.953-21.65.004 2.79-.95-5.69.003-2.83.948-7.13.001-2.33.768 7.17-.001-3.49 1.17-14.42-.008-2.432.787 7.231.005-3.646 1.2-23.21-.019zm-221.927 57.23l-8.181 2.404-28.376-.546-7.201 2.025-9.425-.187-5.93 1.645 17.114.35 7.259-2.065 11.416.225-7.17 2.079 27.179.556 12.401-3.748-9.616-.183 13.406-3.99-16.892-.306-5.406 1.567 9.422.174zm-62.5 5.717l8.911-2.465 9.399.186 7.187-2.017 28.298.54 5.469-1.604-9.428-.172 8.126-2.347 20.612.367-13.322 3.977 9.618.184-15.12 4.584-31.117-.644 7.213-2.08-7.624-.153-7.276 2.076-20.946-.432zm-28.14-.58l-7.418-.155-14.299 3.758 16.98.371 6.314-1.699-9.397-.201 7.82-2.074zm-25.214 3.987l17.504-4.59 11.118.228-7.774 2.07 9.392.2-9.451 2.552-20.789-.46zm63.422 34.94l-20.685-.67-7.463 2.412 20.846.696 7.302-2.438zm17.629-5.883l-31.454-.961-16.374 5.21 9.079.293 9.106-2.935 22.7.71 6.943-2.317zM662.81 82.36L682.871 76l35.878 1.088-10.402 3.48-22.776-.715-7.282 2.355 22.954.743-10.924 3.657-25.523-.855 9.373-3.023-11.359-.37zm-194.507 38.905l-9.755-.466-11.05 3.2 9.832.483 10.973-3.217zm-26.053 3.426l16.596-4.795 14.6.691-16.424 4.828-14.772-.724zm46.929 17.688l-23.955-1.301-27.203 8.515 24.421 1.408 26.737-8.622zm-12.083-5.97l-10.396-.546-11.652 3.588 10.485.564 11.563-3.606zm-27.639 3.813l17.515-5.376 15.569.813-14.378 4.499 26.58 1.432-32.624 10.557-29.906-1.735 30.373-9.476-13.129-.714zm21.399-27.747l-21.108-.941-24.431 6.777 21.467 1.015 24.072-6.851zm-50.696 6.499l29.904-8.275 25.748 1.143-29.369 8.384-26.283-1.252zm523.212-58.387l-9.271-.219-10.377 4.665 9.441.237 10.207-4.683zm-34.516-.814l-9.087-.214-11.002 4.6 9.252.232 10.837-4.618zm-134.095 57.132l-24.703-1.032-9.844 4.023-13.724-.592-18.764 7.501 11.206.513 10.417-4.24 13.945.618 9.95-4.141 13.898.594 7.619-3.244zm72.048-41.623l-21.344-.611-5.879 2.3 11.919.35-7.391 2.955 12.129.366-7.451 3.047 12.348.386-16.797 7.023-12.644-.423-14.735 6.023 12.895.458-16.946 7.085 10.627.402 54.764-23.334 24.861.755 19.812-8.86 14.608.401-6.285 2.898 9.917.281 12.202-5.745 24.506.652 4.507-2.242-12.191-.317 5.64-2.73-9.593-.24-5.741 2.718-26.373-.686 6.012-2.69-21.068-.529-12.609 5.397-23.588-.633-12.325 5.037-1.404.574-2.383-.067zm-31.086 2.2l-9.484-.278-6.124 2.345 9.561.288 6.047-2.355zm-75.828 29.541l-23.375-.919-17.987 6.751 26.513 1.102-10.107 3.953 10.855.465 17.751-7.065 1.923-.765 2.66.11 10.698.428 9.268-3.77 13.315.52 7.11-2.964-13.194-.501 8.815-3.587-12.942-.477 17.2-6.845-10.065-.349-33.935 13.277-1.885.736-2.618-.1zm-37.107 20.51l-38.629-1.78-20.816 7.813 11.175.548 2.804.134-2.349.901-9.555 3.66 11.409.577 9.445-3.681 2.323-.905 2.827.139 14.228.694-11.563 4.62 11.615.589 20.312-8.268-14.193-.674 10.967-4.367zm73.668-48.701l-9.714 3.575-11.847-.373-24.182 8.721 46.808 1.61 6.701-2.611-12.342-.414 8.306-3.169-9.708-.315-2.416-.079 1.661-.62 22.398-8.371-11.675-.346 9.266-3.394 23.158.659 13.003-4.96-9.141-.244-7.243 2.715-13.746-.382 7.377-2.7-9.015-.242-29.351 10.585 11.702.355zm-49.977 12.486l27.725-9.96 11.815.37 6.483-2.376-11.72-.359 32.54-11.69 13.503.36-7.319 2.69 9.147.256 7.232-2.706 13.678.365-15.84 6.068-23.235-.665-6.16 2.267 11.669.341-23.866 8.956 12.116.392-8.238 3.155 12.334.41-8.326 3.259 12.559.431-17.052 6.818 12.937.473-8.737 3.572 10.541.397 15.346-6.389-12.903-.46 18.071-7.352 12.598.418 13.785-5.737-12.356-.39 7.517-3.059-12.139-.372 7.46-2.967-9.552-.28-7.557 2.954-14.365-.437 9.22-3.517 11.819.345 7.354-2.865 23.647.673 13.708-5.577 23.5.626 11.366-4.844-11.579-.29 13.501-5.62 13.61.318-11.973 5.127 21.027.524 11.557-5.167 13.873.325-12.427 5.73-11.833-.296-4.78 2.15 21.536.555 5.739-2.703 14.355.36-5.589 2.718 12.184.313-6.731 3.369-24.592-.661-12.211 5.783-14.902-.428 6.339-2.908-9.761-.27-19.839 8.916-24.942-.76-54.852 23.481-13.334-.506-8.881 3.716-13.369-.525-9.297 3.802-13.41-.544-17.697 7.075 10.945.468 9.827-3.997 30.129 1.252-11.396 4.879-13.968-.606-9.974 4.171-14.001-.622-10.448 4.268-14.048-.648-8.724 3.489 14.181.671-24.744 10.113-17.459-.884 11.67-4.647-11.4-.559-11.808 4.618-17.147-.871 12.014-4.582-13.986-.686 25.518-9.534 41.253 1.889 18.824-7.492-13.584-.587 10.187-3.969-26.53-1.111 22.054-8.242 25.893 1.011 34.042-13.262-49.347-1.708zm175.299 61.562l-29.733-1.511-17.055 9.639 13.497.728 9.408-5.462 16.773.875 7.11-4.269zm-52.134 9.058l20.958-11.766L906.845 152l-10.602 6.411-16.854-.882-9.435 5.514-20.31-1.105z"/><path d="M879.142 96.599l-10.622-.367-7.588 3.498-13.333-.475-7.955 3.575-13.381-.494-6.651 2.916 13.504.513-8.364 3.759 24.883.971 29.507-13.896zm-63.917 9.289l10.008-4.368 13.342.491 7.94-3.551 13.283.47 7.575-3.476 15.892.549-32.477 15.373-30.48-1.196 8.446-3.776-13.529-.516zm229.495-77.373l-18.37-.256-3.15 1.492 10.25.148-3.92 1.905 8.33.126 6.86-3.415zm-18.06 3.647l-8.29-.127-3.28 1.557 8.35.128 3.22-1.558zm-14.48 1.788l-8.32-.13-7.795 3.594 8.455.14 7.66-3.604zm-19.109 3.837l-8.422-.14-8.304 3.733 19.325.343 3.584-1.687-10.68-.185 4.497-2.064zm-1.611-4.159l-18.442-.288-8.299 3.553 18.742.312 7.999-3.577zm-18.193 8.136l-8.527-.152-4.871 2.137-10.695-.2-9.222 3.948 8.69.172 5.084-2.219 10.84.208 8.701-3.894zM936.725 47.9l11.315-4.822 10.665.196 4.869-2.123 10.641.19 8.338-3.73-20.857-.35 10.186-4.34 22.504.348-8.829 3.969 8.405.14 8.678-3.98 10.37.156 4.12-1.936 10.33.155 3.16-1.528-10.26-.15 4.75-2.236 22.41.31-8.35 4.177-10.43-.158-4.01 1.956-10.47-.163-8.48 4.017-10.596-.178-3.569 1.647 10.675.184-5.359 2.534-21.521-.386-9.649 4.338-10.864-.208-5.085 2.231-13.087-.26zM1285.05 4.082l-7.93-.053-1.02 1.18 7.98.054.97-1.181zm-11.21 1.408l1.57-1.765 11.86.076-1.44 1.774-11.99-.085zm36.09-8.331l-17.21-.081L1289.6.93l7.82.044 1.06-1.401 9.73.055 1.72-2.469zm-31 2.587l-7.69-.043-2.36 2.527 17.6.11.94-1.137-9.73-.058 1.24-1.399zm-12.26 2.76l2.92-3.087 11.5.062-1.21 1.394 7.77.043 3.39-4.117 21.01.1-2.07 3.016-9.76-.053-1.05 1.407-9.8-.058-1.16 1.428-21.54-.135zm201.18 25.674l-9.92-.122.8 3.685 10.12.132-1-3.694zm-49.11-4.49l-9.47-.106-.44 9.572 22.5.313-.44-6.144 24.49.3-.72-3.525-21.63-.246.16 1.93-14.44-.172-.01-1.921zm-12.42 9.853l.62-10.364 14.17.16.03 1.914 9.61.113-.14-1.917 26.38.295.85 3.914 12.37.151 1.29 4.52-15.2-.201-.84-4.101-22.11-.27.53 6.17-27.56-.384zm97.26-8.886l-22.16-.251.54 1.564 12.4.146.84 2 10.07.124-1.69-3.583zm-10.73 3.834l-10.04-.125.57 1.634 10.13.128-.66-1.637zM1481 30.376l-.83-2.447 12.51.154-.65-1.6-12.4-.147-.79-2.346 27.04.306 2.13 4.382-12.64-.157.86 2.05-15.23-.195zm-73.16-22.38l-8.61-.064-.14 1.27 8.67.067.08-1.273zm-10.96 1.51l.24-1.905 12.89.093-.09 1.914-13.04-.102zm-8.02-14.684l-7.85-.03-.58 2.43 7.97.036.46-2.436zm19.6 2.807l-18.11-.088-.49 2.813-10.18-.055-.28 1.15 10.25.059-.79 4.48 40.52.283-.09-1.235-10.66-.071-.03-4.454-8.25-.044-2.06-.01.01-.289.16-2.539zm-31.17 4.099l-8.16-.048-.36 1.168 8.22.052.3-1.172zm-15.74-12.132l-7.47-.02-1.09 2.503-18.86-.063-.58 1.02 9.48.035-.65 1.297 17.32.07.5-1.304 11.53.04-.4 1.31 7.8.03.33-1.311 9.7.036.2-1.035-19.23-.067.41-1.27-9.46-.028.47-1.243zm-38.65 2.38l-7.46-.024-1.58 2.304 17.06.07.6-1.039-9.43-.037.81-1.274zm-11.11 2.533l1.96-2.814 11.17.038-.79 1.268 7.54.028.73-1.273 18.81.063 1.12-2.493 11.18.03-.45 1.242 9.45.026-.39 1.265 19.22.065-.28 1.556-9.73-.037-.25 1.052 9.8.04-.48 2.704 20.09.093-.13 2.818 10.31.056.08 4.44 10.66.065.15 1.854-44.87-.314.85-4.494-8.21-.047-.35 1.468-12.35-.078.56-1.753 10.17.06.37-1.434 10.14.054.47-2.523-9.97-.047.69-2.704-9.76-.042.42-1.312-7.7-.027-.49 1.31-21.2-.087.67-1.302-7.59-.03-.73 1.302-20.89-.086zm-16.7-2.627l-7.35-.024-.87 1.007 7.39.027.83-1.01zm-2.1 2.55l-7.46-.032-.91 1.044 7.52.03.85-1.042zm-10.48 1.264l-7.49-.03-.99 1.054 7.55.036.93-1.06zm-14.82-3.906l-7.24-.025-2.39 2.266 25.83.103.91-1.025-18.37-.067 1.26-1.252zm-5.18 5.144l-7.48-.036-2.57 2.427 7.6.042 2.45-2.433zm-6.56-2.655l-7.32-.03-1.44 1.293-9.19-.04-1.23 1.044 16.68.079 2.5-2.346zm-21.34 2.52l1.87-1.566 9.16.04 1.45-1.284 9.13.035 2.69-2.514 10.84.038-1.24 1.249 16.52.06 1.11-1.257 10.99.037-1.22 1.516-9.26-.035-.9 1.024 9.32.037-1.27 1.567-9.41-.043-1.16 1.328-11.33-.055 1.5-1.585 9.35.04.92-1.04-25.88-.105-2.48 2.346 9.34.044-2.96 2.975-11.41-.064 2.89-2.698-18.56-.09zm-151.37-11.324l-6.28-.008-2.08.87 6.31.015 2.05-.877zm-5.26-1.087l-13.95-.023-2.14.854 14.03.025 2.06-.856zm-46.07-.07l-6.06-.009-5.31 1.918 37.08.074 2.18-.867-30.78-.054 2.89-1.063zm-13.5 2.119l6.51-2.34 9.08.01-2.88 1.058 29.22.054 2.68-1.068 17.02.024-2.56 1.071 7.85.014-3.06 1.312-9.5-.02 2.62-1.09-14.04-.027-2.72 1.087-40.22-.085zM917.579-3.485l-6.232-.032-8.138 2.467-15.709-.091-3.417 1.004 30.13.184 3.252-1.014.805-.251 1.588.008 7.969.046-3.993 1.27 22.667.14 14.239-4.753-6.338-.027-11.3 3.719-9.658-.058 7.729-2.492-7.899-.04 3.828-1.213-14.033-.068-3.134.964-.787.244-1.569-.007zM881.652.105L867.559.02l-3.557 1.012 14.171.093 3.479-1.02zM861.541 1.28l5.345-1.522 15.629.095 4.274-1.252 15.665.09 8.136-2.46 7.779.04 3.923-1.204 17.13.083-3.805 1.21 7.894.04-7.679 2.484 6.431.04 11.302-3.707 9.487.044L947.358.516 921.422.353l4.014-1.274-6.381-.039-4.06 1.272-31.772-.198-4.346 1.28-17.336-.115zm145.429 5.181l-7.008-.054-2.913 1.14 7.051.055 2.87-1.14zm5.27 1.506l-7.1-.06-3.64 1.456-8.907-.074-6.855 2.682 27.222.257-4.43 1.854-9.213-.093-3.071 1.256 16.724.175 10.18-4.34-9.1-.082 3.58-1.491-8.98-.08 3.59-1.46zm-29.079 4.29l8.412-3.276 8.877.076 2.93-1.165-8.829-.072 4.394-1.71 10.495.08-3.57 1.43 8.86.07-3.57 1.458 8.98.077-3.56 1.489 9.11.08-11.59 4.96-20.472-.213 4.623-1.88 9.179.091 2.97-1.237-27.239-.258zm-157.95 35.722l-18.423-.379-18.82 6.302 10.464.239-6.911 2.356 8.501.198 12.195-4.218-10.444-.231 7.975-2.71 10.333.22 5.13-1.777zm4.626-8.795l-7.842-.14-4.905 1.614 7.894.146 4.853-1.62zm-15.955 1.844l-7.861-.145-18.132 5.864 18.168.373 11.5-3.838-9.962-.19 6.287-2.064zm-77.271 11.71l-8.973 2.767-20.316-.48-14.226 4.245 18.553.464 7.811-2.398 10.318.25 2.068.049-1.527.479-6.178 1.93 8.379.21 6.12-1.939 1.511-.48 2.08.052 8.358.203 5.91-1.906 1.466-.471 2.076.048 18.817.441 5.627-1.878-10.404-.239 6.999-2.296-18.407-.404-5.713 1.818-1.448.46-2.049-.046-10.211-.234 14.371-4.483-17.915-.382-13.18 3.996 10.083.223zm-47.179 6.964l17.43-5.189 20.245.475 5.988-1.838-10.084-.23 16.148-4.882 21.866.463-14.271 4.466 8.164.187 7.14-2.265 22.453.49-6.944 2.285 8.316.188 18.872-6.298-20.21-.416 20.775-6.699 9.804.179 6.135-2.011 11.74.21-7.258 2.428-9.889-.185-5.006 1.649 9.955.19-12.713 4.26 20.444.42-7.674 2.663-10.363-.221-5.304 1.81 10.438.228-14.87 5.163-12.766-.3 6.961-2.366-8.383-.189-7.035 2.357-20.96-.495-7.383 2.39-10.472-.256-7.646 2.432-12.587-.316 7.758-2.422-8.269-.2-7.829 2.412-22.716-.567zm12.93 30.782l-21.404-.741-7.668 2.569 21.576.766 7.496-2.594zm-33.393 2.392l11.526-3.847 26.104.899-11.21 3.893-26.42-.945zm-57.297 1.552l-9.314-.344-19.488 6.003 9.479.369 19.323-6.028zm-33.395 6.25l23.866-7.325 13.949.51-23.563 7.374-14.252-.559zm10.207-7.103l-20.574-.76-8.81 2.592 11.478.433-11.16 3.332 9.335.364 19.731-5.961zm-33.901 2.4l13.238-3.883 25.101.921-24.059 7.294-14.036-.551 11.241-3.346-11.485-.435zm208.255-34.43l-19.196-.48-6.165 1.994 19.333.5 6.028-2.014zm-29.055 1.964l9.27-2.99 23.41.587-9.012 3.02-23.668-.617zm154.346-14.233l-40.115-.826-11.3 4.076 19.195.421 2.145.047-1.244.466-5.032 1.89 19.625.445 16.726-6.519zM833.3 52.94l13.853-4.978 44.263.907-19.055 7.456-24.028-.547 6.329-2.366-21.362-.472zm52.932 6.299l-20.109-.473-11.601 4.54 20.466.51 11.244-4.577zm-35.289 4.524l14.227-5.543 24.529.573-13.697 5.598-25.059-.628zM707.949 97.975l-22.176-.819-7.88 2.739 22.359.845 7.697-2.765zm-36.787-1.355l-9.674-.356-18.422 6.171 22.245.869 8.117-2.81-12.294-.467 10.028-3.407zm-32.656 6.423l22.573-7.534 14.472.53-9.949 3.393 9.826.371 9.848-3.407 27.055.991-11.509 4.151-24.927-.947-10.144 3.524-27.245-1.072zm311.627-73.959l-7.85-.112-4.734 1.851-9.845-.147-8.919 3.417 7.996.129 4.924-1.919 30.044.464 3.662-1.524-19.948-.3 4.67-1.86zm-1.129-7.311l-7.505-.092-22.593 8.476 7.813.117 9.539-3.639 9.651.132 8.131-3.166-9.508-.123 4.472-1.705zm-38.051 10.601l-17.606-.275-9.559 3.447 19.878.331-10.695 4.014 18.412.327 4.201-1.633-10.179-.177 10.38-3.963-9.946-.157 5.114-1.914zm-30.238 3.531l11.722-4.21 21.49.33-5.081 1.907 7.948.127 8.948-3.413-9.773-.147 24.561-9.18 11.239.137-4.446 1.703 9.503.122-9.901 3.873-9.677-.134-8.573 3.284 7.859.118 4.733-1.845 11.749.17-4.631 1.848 19.936.3-5.472 2.287-30.13-.47-4.93 1.929-10.015-.163-9.286 3.558 10.172.175-6.281 2.457-22.537-.406 10.767-4.026-19.894-.33zm194.965-17.827l-7.82-.086-2.67 1.336 7.87.09 2.62-1.34zm-13.13 1.567l-17.58-.202-2.86 1.355 9.81.114-3.55 1.728 7.97.095 6.21-3.09zm-29.21-.333l-17.3-.197-3.83 1.68-9.62-.115-7.223 3.092 19.583.25-3.95 1.776 17.98.24 3.04-1.434-9.94-.129 3.83-1.756.75-.345 1.97.022 7.87.096 2.92-1.376-7.81-.094-1.95-.02.74-.341 2.94-1.349zm-40.747 4.785l8.867-3.776 9.59.112 3.83-1.67 21.11.237-3.65 1.684 7.81.09 3.58-1.687 19.5.22 3.35-1.668 11.7.128-3.91 2.01-9.85-.112-6.89 3.448-11.96-.147 3.58-1.734-7.87-.093-3.64 1.728-9.87-.121-3.04 1.4 9.93.128-4.54 2.151-22-.294 3.98-1.785-19.607-.249zm99.657-4.116l-7.97-.09-5.87 3.117 18.26.224 2.51-1.408-10.1-.12 3.17-1.723zm-16.53 3.356l-8.07-.098-2.76 1.42 8.12.104 2.71-1.426zm-13.55 1.655l-8.09-.103-2.89 1.443 8.15.108 2.83-1.448zm-13.74 1.677l4.35-2.163 10.09.128 3.46-1.772 10.06.12 6.55-3.452 11.94.135-3.14 1.717 10.09.117-3.74 2.114-20.35-.25-3.37 1.785-10.17-.13-3.53 1.816-12.24-.165zm109.81-9.411l-8.09-.084-4.71 3.061 18.56.21 1.98-1.384-10.26-.11 2.52-1.693zm-15.38 3.298l5.79-3.738 12.11.128-2.49 1.683 10.25.111-2.94 2.076-22.72-.26zm-92.59-24.635l-23.23-.11-2.55.998 8.31.04-3.17 1.269 16.85.092-3.1 1.296 6.84.041 5.45-2.326-8.43-.04 3.03-1.26zm-22.96 2.445l-23.34-.129-2.73 1.025 8.35.048-3.41 1.304 16.94.104-4 1.603-8.57-.057-2.77 1.084 24.24.168 3.28-1.362 8.67.055 2.53-1.075-17.2-.108 3.24-1.317-8.48-.05 3.25-1.293zm-18.3-2.64l-6.51-.032-6.105 2.244 6.595.037 6.02-2.25zm-14.95 2.458l7.49-2.744 9.75.046-6.65 2.498 23.3.127 2.56-1.016-8.31-.042 3.84-1.497 26.49.125-3 1.254 8.43.044-6.63 2.84-10.28-.06 3.12-1.301-15.18-.082-2.58 1.032 8.46.049-3.21 1.316 17.19.105-3.77 1.617-8.7-.059-3.28 1.37-27.74-.195 4.17-1.624 8.55.055 2.68-1.067-16.95-.106 3.43-1.309-8.357-.047 3.427-1.283-8.25-.046zm53.9-4.752l-14.68-.06-2.47.967 14.76.063 2.39-.97zm-19.41 1.145l3.72-1.45 17.91.072-3.56 1.457-18.07-.079zm63.95 1.545l-15.32-.071-5.11 2.297 15.52.085 4.91-2.31zM1069.77-1.4l6.28-2.81 18.69.09-5.96 2.822-19.01-.102zm27.91 13.156l-7.6-.068-2.41 1.245 7.64.071 2.37-1.248zm-28.03-9.1l-7.06-.048-2.45 1.1 7.1.052 2.41-1.105zm-11.9 1.322l-15.88-.113-12.7 5.44 7.24.06 3.37-1.47 10.86.087-6.63 2.978 7.39.067 6.5-2.984 10.96.09-9.58 4.533 9.41.09-6.52 3.173 7.69.078 9.51-4.73 9.42.086 2.38-1.222-18.66-.161 6.71-3.25 9.15.07 2.32-1.152-9.09-.07 3.51-1.695 9 .062 4.99-2.485-7.1-.045-2.82 1.368-8.9-.058-8.96 4.238-28.89-.225 3.91-1.708 8.9.066 2.51-1.118zm-31.09 5.605l14.1-6.004 17.61.12 3.07-1.374 10.57.069-3.6 1.658-8.89-.064-3.12 1.405-8.92-.067-2.59 1.138 25.23.197 8.97-4.222 8.88.06 2.82-1.362 10.64.065-6.08 3.038-9.02-.062-2.33 1.13 9.08.066-3.46 1.733-9.17-.072-5.47 2.66 18.66.16-2.96 1.524 9.48.085-3.53 1.874-11.48-.11 3.04-1.558-7.55-.07-9.49 4.75-11.56-.122 6.58-3.18-9.42-.091 9.66-4.546-7.32-.061-6.5 2.997-11.09-.102 6.67-2.984-7.24-.058-3.37 1.475-10.9-.095zm-61.425 2.505l-15.979-.154-16.37 5.906 16.46.186 3.438-1.285-9.107-.1 5.147-1.885 9.02.095 7.391-2.763zm-35.07 6.05l18.15-6.52 19.505.183-8.997 3.376-9.045-.092-3.42 1.258 9.101.097-5.137 1.927-20.157-.228zm55.524.634l-16.845-.192-3.368 1.318 16.955.2 3.258-1.326zm-22.94 1.437l5.073-1.977 20.549.23-4.87 1.991-20.752-.244z"/><path d="M1047.39 12.868l-7.46-.07-6.31 2.834 17.08.176 2.72-1.278-9.45-.095 3.42-1.567zm-16.37 3.065l7.74-3.462 11.17.104-3.39 1.562 9.44.093-4.05 1.918-20.91-.215zm60.68-1.023l-7.73-.076-2.5 1.29 7.77.083 2.46-1.296zm-12.81 1.52l3.79-1.935 11.56.113-3.67 1.946-11.68-.125zm-148.588 5.111l-7.429-.09-8.505 3.066 7.538.1 8.396-3.076zm-18.783 3.299l10.43-3.75 11.127.14-10.229 3.762-11.328-.152zm38.538-22.976l-6.594-.042-3.165 1.06 6.632.046 3.127-1.064zm-12.21 1.272l4.759-1.587 9.874.064-4.675 1.594-9.958-.07zM1163.98-9.766l-6.8-.02-1.68.952 6.83.022 1.65-.954zm11.69-6.79l-6.5-.008-1.92 1.087-8.15-.014-3.64 1.993 39.97.083 1.4-.902-8.35-.015 2.14-1.33 24.94.035 2.8-1.962-31.12-.028-3.58 2.165-9.86-.014 1.87-1.09zm-18.1 5.59l-6.7-.017-1.71.934 6.74.021 1.67-.938zm-4.17-2.31l-6.59-.013-3.86 2.05 6.67.02 3.78-2.057zm-6.36 3.458l-6.73-.02-1.79.949 6.77.021 1.75-.95zm-10.66 1.16l-15.14-.051-4.35 2.177 6.81.027 2.38-1.22 8.48.032 1.82-.965zm9.09-8.998l-22.1-.02-1.78.842 15.85.016-6.54 3.27 14.7.029 5.81-3.067-8.01-.01 2.07-1.06zm-25.9 1.032l2.68-1.263 25.22.023-2.06 1.059 8.01.007-6.19 3.284 6.58.013 4.06-2.209 8.13.013 1.93-1.082 9.74.013-1.86 1.084 6.57.01 3.59-2.157 34.35.031-3.41 2.4-24.99-.038-1.42.886 8.35.016-2.08 1.354-41.72-.088-3.76 2.055 8.38.022-2.07 1.17 8.48.026-2.45 1.432-10.27-.034 2.12-1.193-6.75-.022-2.18 1.19-8.48-.028-2.27 1.206-8.51-.032-2.37 1.223-10.22-.041 5.34-2.657 16.79.057 2.25-1.183 8.39.025 1.72-.933-8.34-.026 4.32-2.28-16.34-.035 6.59-3.275-15.85-.023z"/><path d="M1182.96-10.897l-6.8-.018-3.53 2.138 6.89.022 3.44-2.142zm18.86-1.12l-6.82-.018-5.46 3.559-8.68-.03-1.95 1.222-8.7-.033-5.82 3.522 16.04.075 5.86-3.784 8.76.032 1.82-1.225 8.74.027 3.09-2.157-8.62-.022 1.74-1.168zM1146.2 6.057L1138.7 6l-2.01 1.17 7.56.059 1.95-1.173zm15.99-9.602l-7.09-.034-9.13 5.332-9.1-.057-4.96 2.8-18.37-.13-4.88 2.59 7.43.058 2.67-1.451 18.58.135 2.47-1.434 9.27.065 13.11-7.874zm-55.94 10.78l6-3.162 18.32.126 4.96-2.787 9.09.055 9.16-5.311 8.84.041 6.26-3.765 8.69.032 1.56-.975-8.63-.03 4.35-2.612 10.19.027-3.79 2.378 6.93.023 5.48-3.545 10.21.024-1.73 1.167 8.62.023-3.74 2.639-8.76-.03-1.81 1.227-8.79-.032-5.84 3.798-17.86-.084-13.49 8.163-9.3-.067-1.97 1.151 9.36.07-2.92 1.764-11.33-.088 2.52-1.47-16.74-.122-2.67 1.458-11.17-.085zm262.19-9.795l-17.74-.086-1.08 2.496 7.99.042.54-1.399 9.94.05.35-1.104zM1347.51.121l1.36-3.052 21.64.102-.51 1.663-9.97-.052-.52 1.406-12-.067zM1182.03 7.83l-17.32-.137-2.32 1.507-19.22-.157-2.02 1.218 9.65.082-2.47 1.553 7.82.07 2.41-1.557 9.74.083 2.29-1.537 9.71.08 1.73-1.205zm-36.16 4.364l-7.79-.07-7.46 4.509 7.99.083 2.64-1.642 9.95.098 2-1.296-9.88-.095 2.55-1.587zm-17.79 4.747l8.57-5.15 9.73.088 2-1.244-9.66-.083 3.04-1.829 19.17.156 2.32-1.5 21.14.16-2.58 1.82-9.74-.08-2.27 1.54-9.77-.085-2.4 1.566-9.8-.09-2.03 1.268 9.87.094-2.98 1.943-9.98-.099-2.63 1.65-12-.125zm59.44-5.966l-7.9-.07-1.78 1.257 7.95.072 1.73-1.259zm-12.11 1.488l2.69-1.884 11.82.1-2.57 1.892-11.94-.108zM671.712 49.377l-7.672-.168-7.989 2.185-28.679-.655-6.685 1.758 36.647.858 14.378-3.977zm-54.63 3.521l10.064-2.637 28.598.649 7.961-2.175 11.49.254-17.546 4.867-40.567-.958zm285.061-28.184l-7.469-.099-9.111 3.162 17.092.245 3.978-1.426-9.455-.132 4.965-1.75zm-19.502 3.394l11.17-3.865 11.187.15-4.929 1.744 9.45.13-5.947 2.144-20.931-.303zM978.675.711L972.042.67l-3.717 1.313-8.333-.053-19.055 6.617 6.898.059 4.051-1.428 8.594.072 6.998-2.515-8.479-.064 4.62-1.628 8.406.058 6.65-2.39zm-40.564 5.213l-6.738-.052-16.227 5.434 15.632.148 7.613-2.635-8.587-.073 8.307-2.822zm-25.578 5.661l17.99-6.005 10.09.078-8.256 2.815 6.862.059 19.876-6.877 8.304.054 3.719-1.311 9.949.06-8.101 2.923-8.427-.058-3.073 1.087 8.477.061-8.528 3.075-8.615-.07-4.045 1.432-8.645-.074-8.442 2.932-19.135-.18zm-56.806-6.306l-22.372-.173-8.814 2.445 14.525.124 4.833-1.377 8.066.067 3.762-1.086zM821.94 7.814l10.8-2.988 25.527.197-5.632 1.63-8.086-.067-4.834 1.382-17.775-.154zm607.58.342l-8.7-.065.02 1.278 8.77.069-.09-1.282zm-10.86 1.521l-.01-1.92 13.02.097.16 1.925-13.17-.102zm101.78 23.306l-10.4-.139 1.04 2.157-13.07-.182.74 1.752 23.81.341-2.12-3.929zm-24.15 3.992l-1.07-2.625 13.03.179-1.01-2.145 15.57.207 2.66 4.806-29.18-.422zm90.45 13.257l-11.63-.2 1.57 2.066 11.76.21-1.7-2.076zm-12.6 2.336l-2.31-3.098 17.4.297 2.59 3.12-17.68-.319zm-61.37-8.476l-24.58-.4.85 2.401-27.29-.456 1.08 4.928-13.84-.247.7 4.622 14.15.273.58 2.671 14.43.286.78 2.754 11.77.242-1.66-4.927-14.37-.278-.85-3.148 14.15.264-.87-2.564 56.9 1.015-2.77-4.549-25.22-.422-2.8-.045-.23-.492-.91-1.928zm-54.68-3.197l-23.65-.37.16 1.837 13.22.215.36 2.355 10.77.178-.86-4.215zm-26.09 1.89l-.19-2.752 28.82.443 1.02 4.68 24.48.406-.8-2.386 29.97.482 1.17 2.41 27.97.466 3.47 5.565-57.12-1.03.9 2.582-14.2-.267.6 2.102 14.35.275 2.12 6.027-17.7-.364-.75-2.767-14.45-.288-.55-2.684-14.16-.273-.78-5.647 13.78.246-.9-4.42-13.48-.225-.33-2.367-13.24-.214zm-47.17-26.705l-20.05-.192-.96 3.152 20.4.211.61-3.172zm-23.38 3.294l1.23-3.85 24.46.233-.69 3.878-25-.261zm-145.31 2.016l-8.52-.096-3.83 3.25 8.67.107 3.68-3.262zm-14.95 3.498l4.72-3.974 12.76.146-4.46 3.988-13.02-.16zm-13 119.587l-14.46-.645-7.71 9.5 33.67 1.593 3.05-4.357-18.54-.854 3.99-5.237zm-26.76 9.773l9.54-11.597 21.63.961-3.9 5.207 18.51.848-4.49 6.543-41.29-1.962zm-261.538 23.298l-32.195-1.865-18.676 11.297 14.639.905 10.302-6.414 18.185 1.084 7.745-5.007zm-56.671 10.507l22.947-13.783 39.223 2.26-11.547 7.517-18.28-1.098-10.322 6.473-22.021-1.369zm-311.806-81.332l-32.857-1.371-9.974 2.844 23.574 1.012-12.547 3.691 21.747.965 9.899-2.994-12.025-.518 12.183-3.629zm-11.108-8.318l-9.078-.357-21.747 6.119 9.228.384 21.597-6.146zm-35.613 6.366l26.634-7.475 13.583.53-23.887 6.819 35.166 1.463-12.107 3.612 12.031.515-14.814 4.492-26.639-1.19 12.64-3.703-23.581-1.018 12.52-3.566-11.546-.479zm-133.413 65.596l-11.074-.739-33.674 10.207 11.288.801 33.46-10.269zm-51.446 10.439l41.219-12.457 16.606 1.099-40.828 12.575-16.997-1.217zm-11.278 14.423l-26.166-2.014-16.929 5.134 26.388 2.09 16.707-5.21zm8.132-28.498l-10.674-.711-54.873 15.663 13.726 1.009-20.773 6.02 39.582 3.021 16.339-4.939-14.148-1.048 19.963-5.941-13.863-.993 19.409-5.69-13.589-.937 18.901-5.454zm-65.495 9.167l-10.676-.763-37.599 10.43 24.561 1.875 16.792-4.78-13.592-1.006 20.514-5.756zm-55.318 10.661l46.024-12.731 15.977 1.135-20.328 5.72 10.864.799 58.678-16.701 15.969 1.057-18.745 5.43 13.589.929-19.251 5.66 13.859.986-19.776 5.901 14.159 1.043-20.338 6.166 29.036 2.219-25.028 7.832-32.332-2.581 21.267-6.427-42.452-3.267 20.95-6.051-11-.814-21.054 6.01-30.068-2.315zm81.21-22.467l-48.603-3.238-78.599 20.66 10.441.799 21.564-5.73 13.046.962 16.643-4.48 4.088-1.102 2.606.185 10.453.743 19.929-5.438 13.055.894 15.377-4.255zm-134.235 18.39l86.997-22.808 53.619 3.546-23.036 6.39-13.1-.904-20.037 5.485-13.1-.937-20.865 5.63-13.096-.97-21.688 5.776-15.694-1.208zm70.639-22.627l-9.907-.66-15.918 4.08 9.977.682 15.848-4.102zm-32.347 4.282l23.893-6.105 14.83.979-23.739 6.163-14.984-1.037zm262.418-25.315l-10.235-.556-28.175 8.283 23.555 1.359 12.525-3.787-13.026-.73 15.356-4.569zm-44.231 8.525l34.502-10.114 15.315.826-15.232 4.548 13.032.726-18.762 5.688-28.855-1.674zM734.388 37.47l-7.403-.134-5.524 1.556 7.449.136 5.478-1.558zm-16.179 1.777l8.302-2.327 11.082.198-8.195 2.338-11.189-.21zm97.775-34.278l-14.08-.108-19.751 5.192 30.653.287 4.094-1.13-8.074-.075 5.095-1.392-15.929-.138 6.137-1.631 7.878.066 3.977-1.071zm-36.504 5.35l21.88-5.737 17.186.134-5.959 1.608-7.895-.064-4.08 1.086 15.914.136-5.068 1.386 8.071.074-6.128 1.699-33.921-.322zm597.01-38.131l-14.88.026-1.19 2.733 6.74-.006.76-1.968 8.32-.013.25-.772zm-.94 2.946l-6.78.008-.37 1.011-16.96.01-.41.818 8.51-.005-.45 1.037 15.55-.004.91-2.875zm-26.32 2.052l-6.79.003-.47.828 6.84-.005.42-.826zm15.86 3.166l-24.42-.011-.61 1.085-8.71-.007-.55.88 24.66.02 1.77.001-.1.225-1.9 4.373 16.56.034.3-.948-9.15-.016.53-1.396 27.32.041.65-3.392 17.99.01.06-.882-24.99-.01-.27 1.097-17.79-.011h-1.76l.08-.22.33-.873zm-100.2-2.115h-6.55l-2.19 1.864 14.96.003h1.67l-.23.213-.9.85 8.44.005-1.08 1.08 6.82.007 1.71.002-.2.218-.83.882 26.05.03-.85 1.125 7.05.011 2.33-3.331 8.66.008 1.36-2.14 8.57-.001.48-.84-16.99.004 2.81-4.028-14.72.019-1.6 1.976-16.46.011-1.64.001.19-.201 5.24-5.532-29.58.065-.86.731 15.6-.032-1.18 1.116-7.88.012-1.05.943-7.9.012-.9.764 14.32-.021 1.03-.954 9.54-.015-2.12 2.127-8.08.007-.83.788-.21.2h-1.62l-6.49.005-2.02 1.81-.23.203-1.64.003zm-3.47-3.96l-14.23.017-1 .771 7.93-.009-1.2.98 6.41-.007 2.09-1.753zm-34.25 1.973l-6.32.005-1.46.986-7.92.004-2.78 1.811h14.47l1.45-1.016 24.2-.005 2.25-1.802-14.37.01-1.35.991-9.58.005 1.41-.99zm-20.4 3.01l3.43-2.212 7.9-.003 1.47-.984 9.46-.006-1.4.986 6.39-.002 1.35-.99 15.94-.01.98-.785-7.94.01 1.51-1.156 15.79-.019 1.13-.954 7.89-.01 1.06-.941 7.86-.013.79-.744-15.6.03 1.3-1.093 32.65-.073-5.34 5.716 14.78-.01 1.62-1.971 17.97-.02-2.76 4.018 15.27-.005.59-1.03 8.47-.005.52-1.02 16.93-.011.31-.808-8.44.01 1.4-3.125 18.16-.034-.36 1.161-8.35.013-.65 1.775 8.46-.01-1.01 3.288-19.02.002.47-1.038-6.82.003-.52 1.035-8.55.002-.59 1.05-8.58.003-1.21 1.928 6.96.003.62-1.079 27.87.008-.41 1.09 15.98.009.28-1.095 28.51.01-.06 1.323-18.04-.012-.6 3.407-27.4-.04-.34.928 9.15.016-.44 1.423-20.26-.044 2.06-4.609-26.45-.024.7-1.098-6.93-.003-2.3 3.343-10.61-.016.86-1.13-26.04-.032 1.04-1.104-8.54-.007 1.09-1.085-8.44-.006 1.14-1.063-16.64-.008 2.71-2.274 8.17-.003 2.27-2.007 8.09-.008 1.05-.984 8.06-.007 1.76-1.739-6.38.01-1.01.958-15.95.019-2.3 1.954-8.04.004-2.48 2.006-24.26.005-1.45 1.018-17.71-.005zm271.49 13.246l-8.06-.026.37 1.058 8.12.03-.43-1.062zm-21.47-5.135l-17.31-.036.18 1.228-9.63-.024.19 2.259 9.79.031.19 1.29 27.9.092-.35-1.042-19.83-.06-.31-1.526 19.62.055-.34-1.006-9.77-.023-.33-1.238zm-28.5 3.676l-.2-2.758 9.61.023-.17-1.223 21.12.043.35 1.23 9.76.023.53 1.507-19.67-.053.22 1.017 19.81.062.46 1.299 10.07.034.67 1.593-12.21-.047-.45-1.325-29.93-.102-.18-1.293-9.79-.03zm176.17 47.493l-11.08-.16 3.79 4.21 11.33.175-4.04-4.226zm-17.8-4.67l-50.53-.677 2.46 3.95 24.3.346-1.67-2.229 16.16.222 1.86 2.242 10.98.158-3.56-4.011zm-50.47 3.682l-2.94-4.822 55.72.74 4 4.451 13.82.199 5.01 5.166-17.03-.264-4.15-4.684-13.74-.199-1.84-2.251-10.8-.15 1.71 2.243-29.76-.429zm112.63 16.36l-12.12-.218 2.82 2.707-30.44-.566 4.5 5.006 12.42.245-2.7-2.819 30.94.592-5.42-4.947zm-37.83 7.436l-5.4-6.108 30.29.559-2.76-2.691 18.16.324 6.72 6.05-31.08-.6 2.75 2.838-18.68-.372z"/><path d="M1542.44 67.99l2.03 3.659-15.73-.356 2.77 5.687 29.13.7-8.97-14.713-27.25-.563 2.55 5.248 15.47.337zm-79.64-4.047l-26.41-.563.24 2.87-29.31-.647-.14 2.919-14.68-.337-.27 2.373 44.86 1.048.8 9.532 28.57.736-1.2-5.868-15.52-.38-.52-3.736 49.29 1.154 4.63 13.179 46.77 1.246-1.89-3.49 16.71.43-1.66-2.739-32.92-.826-1.56-3.298-16.02-.39-3.77-9.317-27.37-.6.85 2.992-18.28-.415-1.2-5.873zm-58.05-4.008l-25.33-.522-.39 2.19 14.17.298-.31 2.812 11.56.253.3-5.031zm-28.66 2.16l-11.27-.241-.54 2.23 11.39.252.42-2.241zm-13.38-3.027l-11.06-.23-.66 2.169 11.16.236.56-2.175zm-1.41 5.52l-11.33-.25-1.59 5.192 11.6.272 1.32-5.214zm-11.56-8.45l-10.85-.218-.78 2.103 10.96.223.67-2.108zm-14.56 2.364l1.21-3.154 16.22.322-.8 2.636 13.8.282-.66 2.712 11.25.238.52-2.724 30.88.631-.26 5.582 26.3.577-.2-2.853 32.19.683 1.27 5.845 12.16.275-.81-2.974 33.37.73 3.89 9.277 12.78.31-2.98-6.296 15.67.356-1.32-2.438-15.5-.34-3.02-6.408 33.22.682 9.94 15.961-32.47-.79 1.28 2.634 32.85.819 2.56 4.11-16.79-.437 1.95 3.515-53.6-1.438-4.47-13.235-43.25-1.02.37 2.494 15.51.375 1.56 7.18-35-.909-.69-9.569-44.91-1.056.44-3.562 14.64.331.14-2.325-14.49-.317.35-2.825-11.34-.242-.5 2.811-14.3-.315-1.4 5.818-17.44-.412 2.03-6.344 14.11.312.57-2.232-13.98-.297.86-2.711-13.71-.275zm83.97 33.149l-13.02-.373-.14 2.898 13.17.385-.01-2.91zm-16.48 3.164l.26-4.34 19.47.55.08 4.372-19.81-.582zm166.85-2.541l-13.83-.385 2.07 3.726-17.43-.498 3.39 6.953 14.32.433-2.12-3.928 17.76.52-4.16-6.821zm-29 10.485l-4.02-8.489 17.35.492-1.99-3.7 20.67.57 5.2 8.35-17.84-.527 2.19 3.963-21.56-.659zm-207.43-38.793l-11.17-.246-.98 2.257 11.28.254.87-2.265zm-15.22 2.518l1.52-3.382 16.71.37-1.26 3.398-16.97-.386z"/><path d="M1451.58 89.005l-13.05-.362.88 10.266 30.72.931-1.38-6.773-16.67-.476-.5-3.586zm-15.5 10.57l-30.3-.922-.32 7.019 31.13 1.006-.51-7.102zm-34.1 6.79l.52-8.572 33.53 1.015-.79-10.955 19.51.537.54 3.57 16.65.474 1.8 8.29-34.27-1.046.67 7.925-38.16-1.238zm63.29 81.916l-18.35-.964.6 7.064-23.17-1.257.14 7.283-23.38-1.313-.27 5.991 42.99 2.479-.55-7.595 23.78 1.325-1.79-13.013zm-69.24 18.059l.53-8.975 23.22 1.295-.04-7.209 23.02 1.239-.5-6.987 27.41 1.429 2.41 15.942-23.94-1.343.65 7.666-52.76-3.057zM366.407 146.594l-10.259-.595-30.454 8.694 10.441.642 30.272-8.741zm-67.658 1.73l-9.997-.6-14.137 3.816 10.069.621 14.065-3.837zm37.61-14.237l-21.599-1.17-29.872 7.849 36.784 2.123-16.964 4.641 12.592.752-17.38 4.821 10.255.632 30.724-8.621 3.306-.925 2.523.145 10.148.584 28.671-8.16-34.605-1.878-2.437-.131 3.172-.866 12.459-3.398-9.633-.509-12.53 3.385-3.188.859-2.426-.133zm-57.305 7.437l36.568-9.589 23.93 1.29 15.635-4.209 14.428.752-15.504 4.242 37.034 1.997-31.723 9.056 12.807.736-36.939 10.698-15.688-.973 33.993-9.676-10.167-.59-34.193 9.62-15.406-.956 17.511-4.845-10.088-.604-17.606 4.817-15.139-.942 21.23-5.714 12.469.743 13.635-3.72-36.787-2.133zM729.551 33.373l-7.208-.12-12.32 3.37 7.309.13 12.219-3.38zm-2.323-1.973l-7.113-.115-5.374 1.452 7.156.12 5.331-1.457zm-15.641 1.674l8.079-2.173 10.659.168-6.635 1.819 8.998.148-14.907 4.137-10.974-.2 13.742-3.75-8.962-.15zm133.655-5.506l-7.384-.106-4.471 1.422 7.429.111 4.426-1.427zm23.481-13.33l-32.392-.337-4.109 1.209 17.073.186-5.091 1.544 8.661.099-15.647 4.816 7.124.093 24.381-7.61zm-27.287 2.893l-15.488-.175-4.258 1.252 15.581.182 4.165-1.259zm-62.837 13.18l-7.257-.112-11.355 3.29 7.358.123 11.254-3.3zm28.613-13.57l-15.177-.172-10.116 2.808 15.376.187 9.917-2.823zm-22.489 6.401l-24.243-.324-6.063 1.66-8.635-.12-4.981 1.343 52.817.758-11.98 3.524 16.436.252 4.744-1.434-9.093-.135 7.066-2.103 27.183.389 5.557-1.733 20.05.275-5.4 1.747 16.721.24 9.409-3.141-45.396-.607 5.44-1.67-8.863-.114 5.41-1.635-7.006-.087-5.462 1.63-8.783-.113-1.747-.022 1.114-.327 4.427-1.297-15.56-.192-10.258 2.928-1.16.331-1.744-.023zm-46.919 2.874l-6.912-.1-11.643 3.1 7.005.108 11.55-3.108zm35.865-9.657l-6.621-.074-5.763 1.534-8.312-.097-16.849 4.429 23.841.315 10.621-2.899-6.759-.083-1.689-.02 1.175-.317 10.356-2.788zm-40.47 6.095l19.297-5.061 8.285.097 5.749-1.527 9.93.113L765 19.167l8.436.105-11.761 3.218 24.209.323 10.282-2.928-17.1-.213 12.394-3.428 18.519.207-10.972 3.133 17.269.211-5.512 1.621 7.012.09 5.459-1.625 10.499.13-5.383 1.632 7.079.088 14.669-4.502-6.931-.078-5.208 1.578-19.076-.226 6.405-1.877 17.175.194 4.094-1.238-17.074-.186 6.177-1.808 35.747.369-26.346 8.246-8.923-.116-4.337 1.334 45.367.604-11.465 3.84-18.617-.27-5.527 1.788-11.156-.167 6.722-2.13 9.207.13 4.34-1.398-16.434-.23-5.563 1.741-27.254-.392-4.702 1.401 9.096.138-7.099 2.151-18.306-.284-12.503 3.675-11.051-.184 13.911-4.018 9.049.138 10.828-3.175-51.109-.737-12.831 3.464-10.538-.165 14.257-3.787 8.63.125 6.227-1.676 8.622.117 4.853-1.323-25.557-.343z"/><path d="M726.939 24.097L720.142 24l-5.134 1.332 6.836.097 5.095-1.332zm-2.17-1.756l-6.714-.09-5.087 1.303 6.752.094 5.049-1.307zM710 23.859l7.644-1.953 10.054.132-6.287 1.632 8.487.119-7.623 2.003-10.269-.148 6.44-1.668-8.446-.117zm193.168-34.428l-5.868-.018-3.127.882 5.894.02 3.101-.884zm-3.459-1.108l-13.032-.035-3.951 1.082-7.242-.023-3.239.873 7.276.023-4.058 1.11 5.883.022 7.982-2.208 7.286.021 3.095-.865zm-32.878.996l-5.74-.018-8.354 2.195-7.239-.026-3.45.895 13.12.053 4.22-1.122 7.287.025 3.296-.886-7.25-.025 4.11-1.091zM839.73-7.416l5.182-1.34 7.223.025 8.348-2.187 8.605.027-4.087 1.085 5.79.021 4.052-1.091 7.233.022 3.947-1.077 15.904.043-3.849 1.083 7.327.02-4.638 1.326-8.851-.03 3.926-1.1-5.841-.02-7.987 2.215-8.832-.031 4.08-1.114-5.828-.02-4.118 1.112-7.301-.026-4.225 1.123-16.06-.066zm694.8-17.602l-7.34.008.69.837 7.39-.005-.74-.84zm-10.02-1.026l-7.25.008.63.825 7.29-.007-.67-.826zm-50.7 7.558l-7.47-.004 1.56 4.43 9.65.016.51 1.215 27.47.056-5.63-9.247 18.55-.006-2.22-2.976-9.09.01-.7-1.03-7.18.01 1.95 3.128-18.28.01h-1.83l-.1-.212-1.37-2.903-15.91.018.64 1.845 8.96-.006.44 1.052.09.21-1.82.004-7.23.002 1.07 3.032 9.25.003.47 1.119.09.226-1.87-.002zm2.2-15.145l-14.97.047.96 2.748-8.45.022.48 1.707 6.86-.015-.33-.954 17.12-.04-.36-.756-8.52.021-.83-2.032 8.39-.024-.35-.724zm-14.73 5.673l-15.53.027.39 1.78 15.75-.02-.61-1.787zm-18.75-7.331l-6.47.023.13.87-8.11.029.06.705 8.16-.024.13.896 6.6-.02-.5-2.48zm-7.71 2.684l-6.59.02.22 2.58 15.15-.033-.19-.94 8.4-.02-.2-.741-16.67.044-.12-.91zm-8.03 2.791l-6.7.016.02.948-8.4.016-.04.768 32.32-.056-.15-.773-16.98.031-.07-.95zm-32.58-3.562l-38.09.119-.35.702 7.92-.024-.39.896 16.05-.044-.34 1.093-8.11.02-.27.739 24.58-.057-.17.94 15-.03.16-2.607-14.7.04-1.63.005.03-.182.31-1.61zm-40.11 1.004l-6.31.019-.4.714 6.35-.02.36-.713zm-8.4.917l-14.22.038-.49.72 7.92-.02-.56.912 6.41-.013.94-1.637zm-16.43.943l.76-1.08 15.78-.042.51-.89 7.87-.026.45-.879 41.21-.128-.32 1.787 16.32-.045-.13 2.79 6.71-.012-.01-.945 8.36-.022-.2-2.76 8.21-.023-.1-.716-8.16.025-.08-1.06 8.1-.027-.12-.871 9.68-.034.62 2.833-8.27.024.11.728 16.66-.044.27.925 6.75-.016-.93-2.742 18.28-.058.53 1.088-8.4.024.7 1.663 8.51-.02.56 1.135-17.16.037.33.96-10.29.018-.52-1.897-6.73.018.2.938-16.86.038.07.76 16.96-.035.21.969 17.24-.033.69 1.985 17.67-.022 1.52 3.107 16.41-.006-1.9-3.122 10.76-.015.71 1.027 7.26-.008-.76-1.027 10.85-.013.85 1.031 9.17-.009 1.13 1.263-11.1.007-.85-1.051-7.31.007 2.43 3.194-18.6.002 5.78 9.286-31.46-.068-.49-1.217-9.65-.018-1.65-4.895 9.31.005-.37-.895-9.25-.002-1.17-3.465 9.02-.004-.34-.84-8.96.007-.69-2.055-17.52.02-.41-1.981-34.05.06.05-.963-16.69.032.18-.943-24.58.055.42-1.107 8.09-.02.23-.728-16.05.041.4-.895-6.34.02-.45.895-7.95.02-1.02 1.825-9.64.02.59-.916-7.95.021zm229.88 33.305l-8.94-.052 1.02 1.23 9.01.054-1.09-1.232zm-7.32 4.644l-20.55-.144.89 1.296 20.72.155-1.06-1.307zm-6.43 6.634l-9.49-.083 2.2 3.192 9.68.09-2.39-3.2zm-62.94-16.372l.72 1.715-10.57-.053.41 1.16 19.19.104-1.36-2.885 23.27.108 1.81 2.904.18.296-2.17-.011-8.66-.048.83 1.493-10.88-.064.59 1.21 10.96.07.86 1.544 20.08.132-1.88-2.778-.21-.302 2.2.014 19.91.115-.99-1.208-10.99-.06-1.11-1.477-10.83-.057-1.17-1.734 21.47.1-.93-1.139-.23-.284 2.14.01 8.58.036-3.42-3.86-8.36-.027 1.12 1.352-12.58-.048-1.01-1.347-18.57-.063 1.52 2.43.17.278-2.09-.01-18.72-.077.68 1.384-20.8-.09.39 1.116 10.45.051zm11.31 6.223l-19.6-.123.98 2.79 19.95.137-1.33-2.804zm-6.97 9.64l-9.22-.08 1.1 3.137 45.01.424-2.14-3.524 11.76.1-1.17-1.717 11.71.097-1.01-1.352-11.61-.09-1.12-1.655-9.15-.071 1.03 1.654-11.49-.091-2.29-.018-.18-.331-1.58-2.926-8.96-.06.78 1.606-22.44-.166.45 1.302 11.29.085.7 1.659 9.15.076 2.3.017.16.34 1.68 3.446-14.06-.129-.7-1.733zm-10.34 3.388l-1.29-3.83 13.8.119.73 1.726 9.34.084-1.47-3.093-11.46-.094-.68-1.664-11.28-.088-.66-1.95 22.36.165-.6-1.282-22.19-.156-1.15-3.404 21.72.135-.72-1.512 10.86.063-.81-1.487 10.8.06-1.59-2.617-19.07-.09 1.41 2.896L1471 .803l-.59-1.74 10.53.055-.46-1.143-10.45-.048-.57-1.68 20.72.09-.65-1.377 20.76.085-1.64-2.696 22.65.075 1.02 1.346 8.38.03-1.1-1.346 12.51.04 3.97 4.417-10.75-.049 1.18 1.43-21.53-.105.8 1.158 10.82.056 1.12 1.474 10.99.057 1.25 1.508 11.15.064 1.66 1.85-13.53-.084-1.26-1.54-19.94-.115 2.14 3.092-24.59-.163-.84-1.548-8.78-.055 1.36 2.804 11.18.078 1.8 3.243 9.17.072-1-1.642 11.41.084-1.1-1.616 25.06.173 1.63 1.958-23.08-.171.91 1.323 11.6.09 1.55 2.03-11.75-.099.95 1.377 11.85.104 2.97 3.914-14.53-.139-2.41-3.55-9.44-.081 2.21 3.54-49.85-.483zm96.91-10.961l-9.17-.06 1.15 1.282 9.25.065-1.23-1.287zm-10.04 1.53l-1.7-1.925 13.72.091 1.87 1.93-13.89-.095zm81.85 9.207l-10.06-.092 1.84 1.477 10.16.096-1.94-1.481zm-10.28 1.733l-2.74-2.21 15.05.133 2.94 2.222-15.25-.145zm1.28 11.799l-10.77-.132 1.89 1.708 10.88.137-2-1.713zm-11.12 1.97l-10.82-.137 1.81 1.74 10.92.142-1.91-1.744zm-30.7-6.935l2.35 2.43-13.05-.153 1.48 1.645 37.11.456-4.06-3.71-.45-.404 2.63.03 10.49.119-1.87-1.6-10.39-.113-2.6-.03-.44-.393-2.13-1.946 12.82.132-1.79-1.534-25.32-.251-1.91-1.869-9.93-.091 1.8 1.86-12.48-.125 1.36 1.513 12.59.128 2.26 2.327-12.77-.14 1.42 1.579 12.88.14zm-11.48 4.308l-2.18-2.472 13.01.152-1.55-1.618-12.89-.147-2.09-2.364 12.71.139-1.48-1.55-12.6-.13-2-2.265 12.43.12-1.76-1.85 14.86.14 1.94 1.86 25.28.25 2.72 2.302-12.86-.134 1.74 1.562 12.97.14 2.84 2.404-13.15-.15 4.12 3.714 13.44.165 3.03 2.572-13.62-.176 2.42 2.189-16.44-.222-2.67-2.606 13.49.173-1.87-1.706-39.84-.492zm98.5 14.77l-11.76-.184 2.49 1.986 11.88.19-2.61-1.992zm-11.61 2.257l-11.83-.19 2.39 2.023 11.95.2-2.51-2.033zm-11.81 2.296l-3.55-3.034 14.74.236-3.06-2.473 17.59.274 3.95 2.988-14.9-.24 3.2 2.55-17.97-.3zm-104.98 80.192l-35.22-1.298 3.11 8.861 16.08.63-2.03-5.021 19.92.751-1.86-3.923zm-42.22-10.666l-51.74-1.791.67 4.45-18.45-.658 1.11 13.17 15.47.602-1.33-9.585 18.84.691-.93-4.595 22.46.798 1.32 4.631 15.38.566-2.8-8.279zm-72.18 16.003l-1.08-15.027 18.37.649-.61-4.413 58.94 2.025 3.22 9.181 39.06 1.43 2.87 5.893-20.04-.76 2.13 5.061-24.22-.95-3.33-9.868-19.28-.71-1.26-4.655-15.03-.537 1.01 4.63-18.94-.697 1.46 9.662-23.27-.914zm1.13 15.663l-16.2-.699.09 4.436 16.42.725-.31-4.462zm-79.66-3.44l-15.55-.672-2.38 9.84 16.05.733 1.88-9.901zm40.35-13.721l-15.07-.592-.55 4.936-56.43-2.284-1.22 3.976 37.95 1.576-.92 5.214 19.58.839-.61 5.438 16.09.714.33-5.471 19.94.856-.03-5.329 19.78.823-.3-4.152-38.84-1.577.3-4.967zm-63.54-36.403l-12.86-.39-1.1 2.977 13.01.403.95-2.99zm-10.67 33.491l-32.49-1.277-3.76 8.677 14.79.616 1.88-4.913 18.35.738 1.23-3.841zm-137.44-84.404l-9.61-.173-7.79 6.615 12.38.245-2.77 2.48 10.08.206 7.29-6.824-12.21-.228 2.63-2.32zm-58.34 16.57l-22.78-.52-3.03 2.137 22.99.537 2.82-2.155zm-9.55-18.248l-4.01 2.71-23.28-.433-7.41 4.644-11.77-.234-3.16 1.91 45.53.933 3.46-2.422 26.6.528-3.81 2.941-12.31-.254-3.4 2.501-12.35-.26-2.89 2.034 25.01.548-3.41 2.628 12.77.288-3.35 2.705 49.92 1.168 2.78-2.757 15.86.361-7.97 8.53 27.71.692-2.45 3.02 14.21.368-2.81 3.752-42.91-1.149-11.69 12.514 14.9.453-6.27 7.18 46.68 1.506-3.15 4.593-31.78-1.064-2.53 3.116 94.75 3.257 3.34.114-.35.822-1.45 3.338 13.68.484 3.43.122-.32.851-1.61 4.346-17.42-.64-1.54 3.556 31.87 1.203 3.57.136-.28.914-1.14 3.723 14.6.57.95-3.745.24-.92 3.6.135 14.5.547.69-3.649-14.31-.529-3.56-.13.23-.891 1.11-4.373 17.54.62.65-3.423-31.08-1.075-3.42-.119.26-.831 1.05-3.276-13.43-.448-3.34-.112.31-.803 2.68-6.998-16.15-.507 1.65-3.706-59.31-1.809-2.49 3.625-18.61-.585 2.74-3.6-15.16-.462 8.89-10.792 17.46.48-2.46 3.293 11.87.336 12.58-18.007-41.07-.97 9.55-10.783-10.31-.212-4.9 5.237-67.16-1.48 3.87-3.096 12.57.267 5.36-4.502-12.32-.245 3.01-2.41-12.1-.233 6.07-4.638-9.42-.169-3.1 2.283-14.19-.262 16.14-11.287 22.48.344 4.79-3.647-19.9-.289-2.83 1.998-11.07-.167-12.4 8.394-11.44-.2-2.71 1.761 11.55.215zm-52.79 9.03l4.76-2.861 11.73.231 7.43-4.62 23.2.43 2.69-1.807-11.54-.207 4.08-2.637 11.41.194 12.43-8.347 11.03.163 2.84-1.986 24.28.348-5.8 4.464-22.57-.35-14.78 10.427 9.44.174 3.11-2.272 14.12.253-6 4.617 12.09.232-2.97 2.401 9.83.194 8.41-7.064 14.38.257-2.59 2.314 12.2.225-8.25 7.805-15.15-.313 2.82-2.488-9.93-.2-5.91 5.02-12.6-.27-2.56 2.067 61.84 1.355 4.93-5.207 15.43.316-9.37 10.738 41.04.962-13.23 19.277-17.88-.511 2.52-3.31-11.67-.322-7.66 9.451 15.15.46-2.68 3.58 12.36.387 2.51-3.596 65.39 1.98-1.6 3.687 12.89.404 1.42-3.707 19.22.58-1.38 4.5-16.31-.511-2.59 7.005 16.75.559-1.25 4.086 34.47 1.185-.91 5.142-17.65-.63-.84 3.514 17.86.655-.97 5.482-18.21-.692-1.13 4.702-18.32-.72-1.18 3.848 52.43 2.111.61-4.892 22.54.878-.23 4.938 38.78 1.563.53 6.25-19.9-.834.08 4.281 20.19.867.57 6.703-24.72-1.102-.04-5.553-16.02-.693-.26 5.52-24.23-1.084.68-5.463-15.69-.68-1.95 11.061-24.17-1.11 3.06-12.01 19.35.831.79-4.176-37.99-1.589 1.59-4.984-14.74-.598-1.83 4.955-22.26-.932 4.73-10.593 35.94 1.402 1.19-3.719-35.49-1.349 2.37-5.323 17.34.636 1.33-3.463-17.13-.613 1.87-4.181-98.21-3.398 3.84-4.666 31.63 1.054 2.13-3.057-46.71-1.518 6.38-7.212-14.91-.454 13.08-13.82 42.72 1.139 1.9-2.5-14.2-.37 2.5-3.034-27.75-.699 8.11-8.562-10.6-.242-2.76 2.772-55.32-1.302 3.4-2.716-10.22-.234-3.51 2.705-28.17-.663 4.58-3.206 25.24.574 2.76-2.106-25.02-.551 4.37-3.054 12.3.262 3.41-2.49 12.25.251 2.57-1.96-21.81-.434-3.46 2.435-50.42-1.043zm511.63 189.79l-22.04-1.417 2.67 7.617 22.49 1.487-3.12-7.687zm-24.28 7.776l-3.86-11.4 32.92 2.104 4.84 11.554-33.9-2.258zm14.61 43.243l-55.2-4.246 2.07 9.551 31.16 2.469 11.46 40.304 27.59 2.452-17.08-50.53zm-58.79 7.257l-2.93-14.291 67.1 5.124 19.7 56.04-41.63-3.727-11.01-40.65-31.23-2.496z"/></g></svg>