<svg width="80" height="82" fill="none" xmlns="http://www.w3.org/2000/svg"><path d="M61.5 40.5c0 12.315-9.564 22-21 22s-21-9.685-21-22 9.564-22 21-22 21 9.685 21 22z" stroke="#1CAAE1" stroke-opacity=".52" stroke-width="9"/><path d="M47 41a7 7 0 11-14 0 7 7 0 0114 0z" stroke="#F27227" stroke-width="6"/><path d="M40.007 44.916c2.281 0 4.13-1.891 4.13-4.224 0-2.332-1.849-4.223-4.13-4.223-2.28 0-4.13 1.89-4.13 4.223s1.85 4.224 4.13 4.224z" fill="#1169B0"/><path fill-rule="evenodd" clip-rule="evenodd" d="M40.007 37.224c-1.873 0-3.392 1.553-3.392 3.468 0 1.916 1.519 3.469 3.392 3.469s3.392-1.553 3.392-3.469-1.519-3.468-3.392-3.468zm-4.868 3.468c0-2.75 2.18-4.978 4.868-4.978 2.689 0 4.868 2.229 4.868 4.978 0 2.75-2.18 4.979-4.868 4.979s-4.868-2.23-4.868-4.979z" fill="#F8F9FA"/><path fill-rule="evenodd" clip-rule="evenodd" d="M40.166 31.418c-5.096 0-9.228 4.225-9.228 9.437s4.132 9.437 9.228 9.437c5.097 0 9.228-4.226 9.228-9.437 0-5.212-4.131-9.437-9.228-9.437zM29.03 40.855c0-6.29 4.986-11.389 11.136-11.389 6.15 0 11.136 5.1 11.136 11.389 0 6.29-4.986 11.388-11.136 11.388-6.15 0-11.136-5.099-11.136-11.388z" fill="#F8F9FA"/><path fill-rule="evenodd" clip-rule="evenodd" d="M40.166 24.108c-9.044 0-16.375 7.498-16.375 16.747 0 9.248 7.331 16.746 16.375 16.746s16.376-7.498 16.376-16.746c0-9.25-7.332-16.747-16.376-16.747zM20.611 40.855c0-11.045 8.755-19.999 19.555-19.999 10.8 0 19.555 8.954 19.555 19.999 0 11.044-8.755 19.998-19.555 19.998-10.8 0-19.555-8.954-19.555-19.998z" fill="#F8F9FA"/><path fill-rule="evenodd" clip-rule="evenodd" d="M22.684 22.977c-9.184 9.392-9.184 26.371 0 35.763 9.184 9.393 25.778 9.393 34.963 0 9.184-9.392 9.184-26.37 0-35.763-9.185-9.393-25.778-9.393-34.963 0zM20.37 61.104c-10.934-11.181-10.934-29.31 0-40.49 10.933-11.182 28.66-11.182 39.593 0 10.933 11.18 10.933 29.309 0 40.49-10.933 11.18-28.66 11.18-39.593 0z" fill="#F8F9FA"/><path fill-rule="evenodd" clip-rule="evenodd" d="M63.938 21.118c.386.49.311 1.206-.168 1.6L40.706 41.74a1.096 1.096 0 01-1.565-.171 1.156 1.156 0 01.168-1.6l23.064-19.023a1.096 1.096 0 011.565.172z" fill="#F8F9FA"/><path d="M56.877 26.105l-1.382-8.09 8.498-7.131.985 9.243-8.101 5.978z" fill="#F27227"/><path fill-rule="evenodd" clip-rule="evenodd" d="M64.759 8.964l1.239 11.627-9.807 7.236-1.744-10.21L64.76 8.964zm-8.217 9.449l1.02 5.97 6.396-4.72-.731-6.86-6.685 5.61z" fill="#F8F9FA"/><path d="M57.306 26.576l7.56 3.59 9.436-5.93-8.832-3.54-8.164 5.88z" fill="#F27227"/><path fill-rule="evenodd" clip-rule="evenodd" d="M65.34 19.583l11.117 4.458-11.526 7.243-9.545-4.532 9.953-7.17zm.262 2.225L59.226 26.4l5.577 2.648 7.344-4.615-6.545-2.625z" fill="#F8F9FA"/></svg>