<svg width="73" height="64" fill="none" xmlns="http://www.w3.org/2000/svg"><path d="M36.532 56.015c12.633 0 22.874-10.465 22.874-23.376 0-12.91-10.241-23.375-22.874-23.375S13.658 19.73 13.658 32.639c0 12.91 10.241 23.376 22.874 23.376z" fill="#1169B0" fill-opacity=".37"/><path d="M36.435 36.547c2.28 0 4.13-1.89 4.13-4.223s-1.85-4.224-4.13-4.224c-2.281 0-4.13 1.891-4.13 4.224 0 2.332 1.849 4.223 4.13 4.223z" fill="#F27227"/><path fill-rule="evenodd" clip-rule="evenodd" d="M36.434 28.855c-1.873 0-3.391 1.553-3.391 3.469 0 1.915 1.518 3.468 3.392 3.468 1.873 0 3.391-1.553 3.391-3.468 0-1.916-1.518-3.469-3.392-3.469zm-4.868 3.469c0-2.75 2.18-4.979 4.869-4.979 2.688 0 4.868 2.23 4.868 4.979 0 2.75-2.18 4.978-4.868 4.978-2.69 0-4.869-2.229-4.869-4.978z" fill="#F8F9FA"/><path fill-rule="evenodd" clip-rule="evenodd" d="M36.595 23.049c-5.097 0-9.228 4.225-9.228 9.437s4.131 9.437 9.228 9.437c5.096 0 9.228-4.225 9.228-9.437s-4.132-9.437-9.228-9.437zm-11.136 9.437c0-6.29 4.986-11.388 11.136-11.388 6.15 0 11.136 5.099 11.136 11.388 0 6.29-4.986 11.388-11.136 11.388-6.15 0-11.136-5.098-11.136-11.388z" fill="#F8F9FA"/><path fill-rule="evenodd" clip-rule="evenodd" d="M36.594 15.74c-9.044 0-16.375 7.498-16.375 16.746 0 9.249 7.331 16.747 16.375 16.747S52.97 41.735 52.97 32.486c0-9.248-7.332-16.746-16.376-16.746zM17.04 32.486c0-11.044 8.755-19.998 19.555-19.998 10.8 0 19.556 8.954 19.556 19.998 0 11.045-8.756 19.998-19.556 19.998S17.04 43.531 17.04 32.486z" fill="#F8F9FA"/><path fill-rule="evenodd" clip-rule="evenodd" d="M19.112 14.608c-9.184 9.393-9.184 26.372 0 35.764 9.185 9.393 25.778 9.393 34.963 0 9.184-9.392 9.184-26.371 0-35.764-9.185-9.392-25.779-9.392-34.963 0zm-2.315 38.127c-10.934-11.18-10.934-29.309 0-40.49 10.933-11.18 28.66-11.18 39.593 0 10.933 11.181 10.933 29.31 0 40.49-10.933 11.181-28.66 11.181-39.593 0z" fill="#F8F9FA"/><path fill-rule="evenodd" clip-rule="evenodd" d="M60.366 12.75c.386.489.31 1.205-.168 1.6L37.134 33.372a1.096 1.096 0 01-1.565-.171 1.156 1.156 0 01.168-1.6L58.8 12.577a1.096 1.096 0 011.565.171z" fill="#F8F9FA"/><path d="M53.304 17.736l-1.382-8.09 8.498-7.13.985 9.242-8.101 5.978z" fill="#F27227"/><path fill-rule="evenodd" clip-rule="evenodd" d="M61.187.596l1.239 11.626-9.807 7.237-1.744-10.21L61.187.596zm-8.217 9.448l1.02 5.97 6.395-4.72-.73-6.86-6.685 5.61z" fill="#F8F9FA"/><path d="M53.734 18.207l7.561 3.59 9.436-5.929-8.832-3.541-8.165 5.88z" fill="#F27227"/><path fill-rule="evenodd" clip-rule="evenodd" d="M61.766 11.214l11.118 4.458-11.526 7.243-9.545-4.532 9.953-7.169zm.263 2.225l-6.376 4.592 5.577 2.648 7.344-4.615-6.545-2.625z" fill="#F8F9FA"/></svg>