<svg width="57" height="65" fill="none" xmlns="http://www.w3.org/2000/svg"><path d="M11.663 42.381L9 22.08 29.114 8 52 23.81l-2.663 19.604L28.438 59" fill="#fff"/><path fill-rule="evenodd" clip-rule="evenodd" d="M28.565.787L56.98 16.842V48.6L28.774 64.438.554 48.6V16.846L28.564.787zm.006 2.036L2.288 17.89v29.653L28.774 62.41l26.472-14.865v-29.65L28.571 2.824z" fill="#FCFBFB"/><path d="M28.581 3.074l11.52 22.823 15.353 22.006-26.708.409-23.55-2.44 9.846-21.201L28.787 3.074" fill="#3F89CA"/><path fill-rule="evenodd" clip-rule="evenodd" d="M28.747 31.54l27.284-14.466.466.927L28.87 32.65v31.042h-1.016V32.428L1.24 18l-.003-.001.472-.924.003.001 27.034 14.465z" fill="#FCFBFB"/><path d="M28.788 3.074h-.207l.097.183.11-.183z" fill="#C4C4C4"/><path fill-rule="evenodd" clip-rule="evenodd" d="M28.36 32.04l28.255 15.69-.702 1.333-27.549-15.297L1.761 48.722l-.709-1.329L28.36 32.041zm-.351-.075l-.247-30.14 1.476-.012.247 30.14-1.476.012z" fill="#FCFBFB"/><path d="M39.305 48.636H17.046V46.14c0-1.48 1.168-2.679 2.61-2.679h17.04c1.442 0 2.61 1.198 2.61 2.678v2.496z" fill="#F27227"/><path fill-rule="evenodd" clip-rule="evenodd" d="M19.656 44.074c-1.113 0-2.013.924-2.013 2.067v1.883h21.066V46.14c0-1.143-.9-2.067-2.012-2.067H19.656zm-3.205 2.067c0-1.819 1.434-3.29 3.205-3.29h17.04c1.772 0 3.206 1.471 3.206 3.29v3.107H16.45V46.14z" fill="#FCFBFB"/><path d="M36.82 42.673H19.23v-1.466c0-1.072.838-1.932 1.882-1.932h13.827c1.044 0 1.882.86 1.882 1.932v1.466z" fill="#F27227"/><path fill-rule="evenodd" clip-rule="evenodd" d="M21.112 39.887c-.714 0-1.285.586-1.285 1.32v.854h16.398v-.854c0-.734-.57-1.32-1.285-1.32H21.112zm15.71 2.786h.595v-1.466c0-1.41-1.104-2.544-2.477-2.544H21.112c-1.372 0-2.477 1.134-2.477 2.544v2.078h18.186v-.612z" fill="#FCFBFB"/><path d="M36.08 38.98H20.424c0-3.807 5.163-8.924 6.852-10.49.083-.07.522-.45.412-.436-.7.169-2.128.127-2.128.127-2.884-1.354-3.337-.846-4.05-.339-.715.508-1.443 1.523-3.063 1.692-3.062.17-3.42-2.03-3.598-2.692-.178-.677.179-1.015.179-1.015l-.618-1.016s6.92-5.568 7.1-6.075c.178-.508 2.883-1.523 2.883-1.523l.357-1.353s2.691 0 2.156-.508c-.399-.38-.206-2.157-.083-3.045.028-.197.275-.254.398-.113l2.733 3.313 4.34 3.186c.013.014 3.556 17.636 1.784 20.286z" fill="#F27227"/><path fill-rule="evenodd" clip-rule="evenodd" d="M27.314 13.252c-.024.259-.043.528-.049.782-.006.285.004.53.032.711.018.12.039.173.044.188a.81.81 0 01.19.303.728.728 0 01-.025.545.783.783 0 01-.258.308c-.08.058-.164.098-.235.126-.26.105-.62.158-.923.19-.311.032-.634.049-.881.057l-.32 1.217-.29.109h-.002l-.005.002-.022.008-.083.032a24.812 24.812 0 00-1.227.514 9.996 9.996 0 00-.925.468 2.216 2.216 0 00-.296.206.936.936 0 01-.086.144 1.837 1.837 0 01-.11.136 5.457 5.457 0 01-.28.288c-.216.212-.51.479-.85.777-.68.6-1.567 1.348-2.445 2.076a310.068 310.068 0 01-3.068 2.514l.596.979-.345.326a.263.263 0 00-.026.052c-.02.051-.053.167 0 .37l.039.149c.094.37.217.853.562 1.28.356.44 1.015.886 2.375.815 1.033-.112 1.566-.576 2.126-1.063a8.32 8.32 0 01.743-.594c.315-.23.738-.539 1.43-.565.693-.026 1.605.226 2.995.87h.105c.14.002.334.002.548-.003.446-.01.922-.043 1.204-.111l.032-.007.032-.005a.602.602 0 01.432.11.63.63 0 01.244.621.676.676 0 01-.143.31 1.992 1.992 0 01-.187.2 7.836 7.836 0 01-.294.266c-.836.775-2.515 2.415-3.983 4.32-.736.957-1.408 1.967-1.895 2.957-.37.756-.621 1.476-.72 2.137h14.642c.083-.239.158-.593.206-1.082.069-.694.077-1.568.036-2.566-.082-1.994-.356-4.422-.688-6.784a168.04 168.04 0 00-1.507-8.882l-4.211-3.092-2.234-2.709zM26.08 28.797a19.715 19.715 0 01-.519-.004h-.017l.017-.613-.018.612-.12-.003-.11-.052c-1.43-.67-2.155-.827-2.57-.812-.325.012-.476.12-.792.347l-.102.073a5.6 5.6 0 00-.389.324c-.586.517-1.5 1.322-2.952 1.474l-.014.001-.014.001c-1.692.093-2.74-.474-3.371-1.255-.53-.654-.716-1.414-.805-1.771a5.18 5.18 0 00-.029-.114V27c-.125-.473-.069-.864.045-1.151l.008-.02-.707-1.16.422-.34.368.481-.368-.481.077-.063a204.226 204.226 0 001.005-.813c.65-.53 1.52-1.24 2.393-1.966.875-.727 1.752-1.466 2.42-2.054.334-.294.61-.546.805-.736a4.346 4.346 0 00.237-.247c.089-.189.236-.324.328-.4.125-.106.275-.205.428-.296.307-.184.685-.369 1.041-.53a24.662 24.662 0 011.12-.474l.397-1.503h.482a8.857 8.857 0 00.368-.008 12.008 12.008 0 001.02-.076 2.568 2.568 0 01-.045-.228 5.49 5.49 0 01-.046-.93c.015-.64.098-1.334.16-1.785a.82.82 0 011.431-.436l.007.007 2.69 3.262 4.32 3.17.034.036c.071.088.135.212.143.236a1.558 1.558 0 01.02.076l.01.045.031.153.113.57a169.149 169.149 0 011.414 8.42c.334 2.377.614 4.852.699 6.907.042 1.027.036 1.965-.04 2.742-.074.748-.222 1.449-.534 1.916l-.178.266H19.829v-.612c0-1.085.365-2.217.897-3.3.535-1.089 1.258-2.17 2.024-3.164 1.146-1.489 2.41-2.814 3.331-3.718zm-5.086-10.364l-.002.002a.034.034 0 01.002-.002zm1.026.604l.003-.004a.034.034 0 01-.003.004z" fill="#FCFBFB"/><path d="M37.068 48.156h-17.7v-1.522c0-1.086.851-1.96 1.908-1.96H35.16c1.057 0 1.909.874 1.909 1.96v1.522zm-8.308-19.2c-1.373 1.438-6.564 6.541-6.564 10.037h11.768s1.195-7.824-.659-14.562c-1.085-3.961-.961-5.681-2.581-6.428-1.003-.466-1.332-.55-1.332-.55l-1.03-2.284s-1.099 1.452-.66 1.917c.44.465-2.69.649-2.69.649l-.577 1.282s-2.197.931-2.348 1.396c-.151.465-5.713 4.92-5.713 4.92l.44 1.593s-.151.31 0 .93c.15.62.302 1.368 2.787 1.213 1.318-.155 2.156-1.635 2.733-2.1.59-.466 2.677.479 5.026 1.72" fill="#FCFBFB"/><path d="M24.229 20.596h4.448l-2.65 1.255a.662.662 0 01-.782-.155l-1.017-1.1z" fill="#F27227"/></svg>