<svg width="57" height="65" fill="none" xmlns="http://www.w3.org/2000/svg"><path d="M11.143 42.574L8.437 22.063 28.87 7.839 52.117 23.81l-2.705 19.806-21.229 15.747" fill="#4BADCC"/><path fill-rule="evenodd" clip-rule="evenodd" d="M28.566.787L56.98 16.842V48.6L28.775 64.439.555 48.6V16.846L28.565.787zm.006 2.036L2.289 17.89v29.653L28.775 62.41l26.472-14.865v-29.65L28.572 2.824z" fill="#FCFBFB"/><path d="M28.582 3.074l11.52 22.823 15.353 22.006-26.708.409-23.55-2.439 9.846-21.202L28.788 3.074" fill="#43D3E8"/><path fill-rule="evenodd" clip-rule="evenodd" d="M28.75 31.54l27.283-14.465.466.926L28.872 32.65v31.042h-1.016V32.429L1.243 18H1.24l.472-.924.003.002L28.749 31.54z" fill="#FCFBFB"/><path d="M49.91 39.952l-.495 3.665-6.015 4.469 12.057-.183-5.548-7.951z" fill="#43D3E8"/><path d="M28.788 3.074h-.206l.096.183.11-.183z" fill="#C4C4C4"/><path d="M11.144 42.574l-.893-6.809-3.845 8.895 8.225 1.354-3.487-3.44zM28.87 7.839l3.24 2.227-3.432-6.809-5.397 8.473 5.589-3.891z" fill="#43D3E8"/><path fill-rule="evenodd" clip-rule="evenodd" d="M28.36 32.04l28.256 15.69-.703 1.333-27.549-15.297L1.762 48.722l-.71-1.329L28.36 32.041zm-.351-.075l-.247-30.14 1.476-.012.247 30.14-1.476.012z" fill="#FCFBFB"/><path d="M39.306 48.636h-22.26V46.14c0-1.48 1.168-2.679 2.61-2.679h17.04c1.443 0 2.61 1.198 2.61 2.679v2.495z" fill="#F27227"/><path fill-rule="evenodd" clip-rule="evenodd" d="M19.656 44.074c-1.112 0-2.013.925-2.013 2.067v1.883H38.71v-1.883c0-1.142-.9-2.067-2.013-2.067h-17.04zm-3.205 2.067c0-1.818 1.434-3.29 3.205-3.29h17.041c1.771 0 3.205 1.472 3.205 3.29v3.107h-23.45v-3.107z" fill="#FCFBFB"/><path d="M36.822 42.673h-17.59v-1.466c0-1.072.838-1.932 1.882-1.932H34.94c1.044 0 1.881.86 1.881 1.932v1.466z" fill="#F27227"/><path fill-rule="evenodd" clip-rule="evenodd" d="M21.114 39.888c-.714 0-1.285.586-1.285 1.319v.854h16.398v-.854c0-.733-.571-1.32-1.285-1.32H21.114zm15.709 2.785h.596v-1.466c0-1.41-1.104-2.543-2.477-2.543H21.114c-1.373 0-2.477 1.133-2.477 2.543v2.078h18.186v-.612z" fill="#FCFBFB"/><path d="M36.08 38.98H20.427c0-3.807 5.163-8.924 6.852-10.49.082-.07.521-.45.412-.436-.7.169-2.129.127-2.129.127-2.884-1.354-3.337-.846-4.05-.339-.715.508-1.442 1.523-3.063 1.692-3.062.17-3.419-2.03-3.598-2.692-.178-.677.179-1.015.179-1.015l-.618-1.016s6.92-5.568 7.1-6.075c.178-.508 2.883-1.523 2.883-1.523l.357-1.353s2.691 0 2.156-.508c-.398-.38-.206-2.157-.083-3.045.028-.197.275-.254.399-.113l2.732 3.313 4.34 3.186c.013.014 3.556 17.636 1.784 20.286z" fill="#F27227"/><path fill-rule="evenodd" clip-rule="evenodd" d="M27.314 13.252c-.024.259-.043.528-.049.782-.006.285.004.53.032.711.018.12.039.173.044.188a.81.81 0 01.19.303.728.728 0 01-.025.545.783.783 0 01-.258.308c-.08.058-.164.098-.235.126-.26.105-.62.158-.923.19a13 13 0 01-.881.057l-.32 1.217-.29.109h-.002l-.005.002-.022.008a15 15 0 00-.385.151c-.251.101-.586.24-.925.395a9.996 9.996 0 00-.925.468 2.226 2.226 0 00-.296.206.933.933 0 01-.086.144 1.837 1.837 0 01-.11.136 5.496 5.496 0 01-.28.288c-.216.212-.51.479-.85.777a119.1 119.1 0 01-2.445 2.076 308 308 0 01-3.068 2.514l.596.98-.345.325a.265.265 0 00-.026.053c-.02.05-.053.166 0 .37l.039.148c.094.37.217.853.562 1.28.356.44 1.015.886 2.375.815 1.033-.112 1.566-.576 2.126-1.063.203-.176.41-.355.643-.522l.1-.072c.315-.23.738-.539 1.43-.565.693-.026 1.605.226 2.995.87h.105c.14.002.334.002.548-.003.446-.01.922-.043 1.204-.111l.032-.007.032-.005a.602.602 0 01.432.11.63.63 0 01.244.621.676.676 0 01-.143.31 1.982 1.982 0 01-.187.2 7.859 7.859 0 01-.294.266c-.836.775-2.515 2.415-3.983 4.32-.736.957-1.408 1.967-1.895 2.957-.37.756-.621 1.476-.72 2.137h14.642c.083-.239.158-.593.206-1.082.069-.694.077-1.568.036-2.566-.082-1.994-.356-4.422-.688-6.784a168.05 168.05 0 00-1.507-8.882l-4.211-3.092-2.234-2.709zM26.08 28.797a18.308 18.308 0 01-.519-.004h-.017l.017-.612-.018.611-.12-.003-.11-.052c-1.43-.67-2.155-.827-2.57-.812-.325.012-.476.12-.792.348l-.102.072a5.6 5.6 0 00-.389.324c-.586.517-1.5 1.322-2.952 1.474l-.014.001-.014.001c-1.692.093-2.74-.474-3.371-1.255-.53-.654-.716-1.414-.805-1.771a5.33 5.33 0 00-.029-.114V27c-.125-.473-.069-.864.045-1.151a.88.88 0 01.008-.02l-.707-1.16.422-.34.368.481-.368-.481.077-.063.22-.177a305.596 305.596 0 003.178-2.602c.875-.727 1.752-1.466 2.42-2.054.334-.294.61-.546.805-.736a4.297 4.297 0 00.237-.247c.089-.189.236-.323.328-.4.125-.106.275-.205.428-.296.307-.184.685-.369 1.041-.53a24.644 24.644 0 011.12-.474l.397-1.503h.482a9.696 9.696 0 00.368-.008 12.008 12.008 0 001.02-.076 2.562 2.562 0 01-.045-.228 5.488 5.488 0 01-.046-.93c.015-.64.098-1.334.16-1.785a.82.82 0 011.431-.436l.007.007 2.69 3.262 4.32 3.17.034.037c.071.087.135.21.143.235a1.558 1.558 0 01.016.056l.005.02.01.045.03.153.113.57a169.115 169.115 0 011.414 8.42c.334 2.377.614 4.852.699 6.907.042 1.027.036 1.965-.04 2.742-.074.748-.222 1.449-.534 1.916l-.178.266H19.829v-.612c0-1.085.365-2.217.897-3.3.535-1.089 1.258-2.17 2.024-3.164 1.146-1.489 2.41-2.813 3.331-3.718zm-5.086-10.364l-.002.002a.072.072 0 01.002-.002zm1.026.604l.003-.004a.038.038 0 01-.003.004z" fill="#FCFBFB"/><path d="M37.069 48.157h-17.7v-1.523c0-1.085.852-1.96 1.909-1.96H35.16c1.058 0 1.909.875 1.909 1.96v1.523zM28.76 28.956c-1.372 1.438-6.563 6.541-6.563 10.037h11.768s1.195-7.824-.66-14.562c-1.084-3.961-.96-5.681-2.58-6.428-1.003-.465-1.333-.55-1.333-.55l-1.03-2.284s-1.098 1.452-.659 1.917c.44.466-2.69.649-2.69.649l-.578 1.283s-2.197.93-2.348 1.395c-.15.466-5.712 4.92-5.712 4.92l.44 1.593s-.152.31 0 .93c.15.62.301 1.368 2.787 1.213 1.318-.155 2.156-1.635 2.732-2.1.59-.466 2.678.479 5.026 1.72" fill="#FCFBFB"/><path d="M24.229 20.596h4.448l-2.65 1.255a.662.662 0 01-.782-.155l-1.017-1.1z" fill="#F27227"/></svg>