<svg width="758" height="686" fill="none" xmlns="http://www.w3.org/2000/svg"><circle opacity=".5" cx="374.904" cy="391.785" r="294.333" fill="#fff"/><path opacity=".1" d="M618.703 394.253c0 134.646-109.153 243.799-243.8 243.799S131.104 528.899 131.104 394.253c0-134.647 109.152-243.8 243.799-243.8s243.8 109.153 243.8 243.8z" fill="#F27227"/><circle opacity=".6" cx="374.853" cy="392.18" r="201.583" fill="#F27227"/><g style="mix-blend-mode:multiply" opacity=".5"><path d="M217.305 253.356c0-15.48 13.356-28.005 29.727-28.005h253.183c16.372 0 29.727 12.525 29.727 28.005v571.627c0 15.48-13.355 28.004-29.727 28.004H247.032c-16.371 0-29.727-12.524-29.727-28.004V253.356zm-15.797 0v571.627c0 23.783 20.392 43.203 45.524 43.203h253.183c25.132 0 45.524-19.28 45.524-43.203V253.356c0-23.924-20.392-43.203-45.524-43.203H247.032c-25.132 0-45.524 19.279-45.524 43.203z" fill="#fff"/><path d="M217.448 253.356c0-15.479 13.212-28.004 29.584-28.004h253.183c16.372 0 29.584 12.525 29.584 28.004v571.628c0 15.479-13.212 28.004-29.584 28.004H247.032c-16.372 0-29.584-12.525-29.584-28.004V253.356zm-15.366 0v571.628c0 23.501 20.105 42.499 44.806 42.499h253.327c24.701 0 44.806-18.998 44.806-42.499V253.356c0-23.501-20.105-42.499-44.806-42.499H247.032c-24.845-.141-44.95 18.998-44.95 42.499z" fill="#FCFCFC"/><path d="M217.449 253.356c0-15.339 13.212-27.864 29.583-27.864h253.184c16.228 0 29.583 12.525 29.583 27.864v571.627c0 15.339-13.212 27.864-29.583 27.864H247.032c-16.227 0-29.583-12.525-29.583-27.864V253.356zm-14.648 0v571.627c0 23.22 19.818 41.937 44.231 41.937h253.184c24.413 0 44.232-18.717 44.232-41.937V253.356c0-23.22-19.819-41.936-44.232-41.936H247.032c-24.413 0-44.231 18.716-44.231 41.936z" fill="#F8F8F8"/><path d="M217.449 253.356c0-15.339 13.212-27.864 29.44-27.864h253.327c16.228 0 29.44 12.525 29.44 27.864v571.627c0 15.34-13.212 27.864-29.44 27.864H247.032c-16.228 0-29.44-12.524-29.44-27.864V253.356h-.143zm-14.074 0v571.627c0 22.798 19.531 41.374 43.657 41.374h253.184c24.126 0 43.657-18.435 43.657-41.374V253.356c0-22.798-19.531-41.373-43.657-41.373H247.032c-24.126 0-43.657 18.435-43.657 41.373z" fill="#F5F5F5"/><path d="M217.593 253.356c0-15.339 13.212-27.864 29.44-27.864h253.183c16.228 0 29.44 12.525 29.44 27.864v571.627c0 15.339-13.212 27.864-29.44 27.864H247.033c-16.228 0-29.44-12.525-29.44-27.864V253.356zm-13.499 0v571.627c0 22.516 19.243 40.67 42.939 40.67h253.183c23.696 0 42.939-18.294 42.939-40.67V253.356c0-22.516-19.243-40.67-42.939-40.67H247.033c-23.696-.14-42.939 18.154-42.939 40.67z" fill="#F1F1F1"/><path d="M217.593 253.356c0-15.339 13.212-27.723 29.44-27.723h253.183c16.228 0 29.44 12.384 29.44 27.723v571.627c0 15.339-13.212 27.723-29.44 27.723H247.033c-16.228 0-29.44-12.384-29.44-27.723V253.356zm-12.925 0v571.627c0 22.094 18.956 40.107 42.365 40.107h253.183c23.408 0 42.365-18.013 42.365-40.107V253.356c0-22.094-18.957-40.107-42.365-40.107H247.033c-23.409-.14-42.365 17.873-42.365 40.107z" fill="#EEE"/><path d="M217.736 253.356c0-15.198 13.212-27.723 29.297-27.723h253.183c16.228 0 29.296 12.384 29.296 27.723v571.627c0 15.198-13.212 27.723-29.296 27.723H247.033c-16.228 0-29.297-12.384-29.297-27.723V253.356zm-12.494 0v571.627c0 21.813 18.669 39.544 41.647 39.544h253.327c22.977 0 41.647-17.731 41.647-39.544V253.356c0-21.813-18.67-39.544-41.647-39.544H247.033c-23.122 0-41.791 17.731-41.791 39.544z" fill="#EAEAEA"/><path d="M217.737 253.356c0-15.198 13.068-27.582 29.296-27.582h253.184c16.084 0 29.296 12.384 29.296 27.582v571.627c0 15.199-13.069 27.582-29.296 27.582H247.033c-16.084 0-29.296-12.383-29.296-27.582V253.356zm-11.776 0v571.627c0 21.531 18.382 38.84 41.072 38.84h253.184c22.69 0 41.072-17.45 41.072-38.84V253.356c0-21.531-18.382-38.981-41.072-38.981H247.033c-22.69 0-41.072 17.45-41.072 38.981z" fill="#E7E7E7"/><path d="M217.737 253.356c0-15.199 13.068-27.582 29.152-27.582h253.327c16.085 0 29.153 12.383 29.153 27.582v571.627c0 15.199-13.068 27.582-29.153 27.582H247.033c-16.084 0-29.153-12.383-29.153-27.582V253.356h-.143zm-11.202 0v571.627c0 21.109 18.095 38.278 40.354 38.278h253.327c22.26 0 40.355-17.169 40.355-38.278V253.356c0-21.109-18.095-38.278-40.355-38.278H247.033c-22.403-.14-40.498 17.028-40.498 38.278z" fill="#E3E3E3"/><path d="M217.881 253.356c0-15.198 13.068-27.582 29.153-27.582h253.183c16.084 0 29.153 12.384 29.153 27.582v571.627c0 15.199-13.069 27.582-29.153 27.582H247.034c-16.085 0-29.153-12.383-29.153-27.582V253.356zm-10.627 0v571.627c0 20.828 17.807 37.715 39.78 37.715h253.183c21.972 0 39.78-16.887 39.78-37.715V253.356c0-20.827-17.808-37.714-39.78-37.714H247.034c-21.973 0-39.78 16.887-39.78 37.714z" fill="#E0E0E0"/><path d="M217.881 253.356c0-15.198 13.068-27.441 29.152-27.441h253.184c16.084 0 29.153 12.384 29.153 27.441v571.627c0 15.199-13.069 27.442-29.153 27.442H247.033c-16.084 0-29.152-12.384-29.152-27.442V253.356zm-10.053 0v571.627c0 20.405 17.52 37.152 39.205 37.152h253.184c21.685 0 39.205-16.606 39.205-37.152V253.356c0-20.405-17.52-37.151-39.205-37.151H247.033c-21.685 0-39.205 16.605-39.205 37.151z" fill="#DCDCDC"/><path d="M218.022 253.356c0-15.058 13.069-27.441 29.009-27.441h253.184c15.94 0 29.009 12.243 29.009 27.441v571.627c0 15.058-13.069 27.442-29.009 27.442H247.031c-15.94 0-29.009-12.243-29.009-27.442V253.356zm-9.622 0v571.627c0 20.124 17.234 36.448 38.488 36.448h253.327c21.254 0 38.487-16.324 38.487-36.448V253.356c0-20.124-17.233-36.448-38.487-36.448H247.031c-21.254-.141-38.631 16.184-38.631 36.448z" fill="#D9D9D9"/><path d="M218.023 253.356c0-15.058 13.068-27.301 29.009-27.301h253.183c15.941 0 29.009 12.243 29.009 27.301v571.627c0 15.058-13.068 27.301-29.009 27.301H247.032c-15.941 0-29.009-12.243-29.009-27.301V253.356zm-8.904 0v571.627c0 19.843 16.946 35.885 37.913 35.885h253.183c20.967 0 37.913-16.042 37.913-35.885V253.356c0-19.842-16.946-35.885-37.913-35.885H247.032c-20.967 0-37.913 16.043-37.913 35.885z" fill="#D5D5D5"/><path d="M218.023 253.356c0-15.058 12.925-27.301 28.865-27.301h253.327c15.941 0 28.866 12.243 28.866 27.301v571.627c0 15.058-12.925 27.301-28.866 27.301H247.032c-15.941 0-28.866-12.243-28.866-27.301V253.356h-.143zm-8.33 0v571.627c0 19.42 16.659 35.322 37.195 35.322h253.327c20.536 0 37.195-15.761 37.195-35.322V253.356c0-19.42-16.659-35.322-37.195-35.322H247.032c-20.536 0-37.339 15.761-37.339 35.322z" fill="#D2D2D2"/><path d="M218.167 253.356c0-15.058 12.925-27.301 28.865-27.301h253.184c15.94 0 28.865 12.243 28.865 27.301v571.627c0 15.058-12.925 27.301-28.865 27.301H247.032c-15.94 0-28.865-12.243-28.865-27.301V253.356zm-7.755 0v571.627c0 19.139 16.372 34.619 36.62 34.619h253.184c20.249 0 36.62-15.48 36.62-34.619V253.356c0-19.139-16.371-34.759-36.62-34.759H247.032c-20.248 0-36.62 15.62-36.62 34.759z" fill="#CECECE"/><path d="M218.167 253.356c0-15.058 12.925-27.16 28.865-27.16h253.184c15.94 0 28.865 12.243 28.865 27.16v571.627c0 15.058-12.925 27.16-28.865 27.16H247.032c-15.94 0-28.865-12.243-28.865-27.16V253.356zm-7.181 0v571.627c0 18.857 16.085 34.056 36.046 34.056h253.184c19.818 0 36.046-15.199 36.046-34.056V253.356c0-18.857-16.085-34.056-36.046-34.056H247.032c-19.961-.14-36.046 15.199-36.046 34.056z" fill="#CBCBCB"/><path d="M218.31 253.356c0-14.917 12.925-27.16 28.722-27.16h253.183c15.797 0 28.722 12.102 28.722 27.16v571.627c0 14.917-12.925 27.16-28.722 27.16H247.032c-15.797 0-28.722-12.102-28.722-27.16V253.356zm-6.749 0v571.627c0 18.435 15.797 33.493 35.327 33.493h253.327c19.531 0 35.328-15.058 35.328-33.493V253.356c0-18.435-15.797-33.493-35.328-33.493H247.032c-19.531 0-35.471 14.917-35.471 33.493z" fill="#C7C7C7"/><path d="M218.311 253.356c0-14.917 12.925-27.019 28.722-27.019h253.183c15.797 0 28.722 12.102 28.722 27.019v571.627c0 14.917-12.925 27.02-28.722 27.02H247.033c-15.797 0-28.722-12.103-28.722-27.02V253.356zm-6.032 0v571.627c0 18.154 15.51 32.789 34.754 32.789h253.183c19.1 0 34.754-14.776 34.754-32.789V253.356c0-18.154-15.51-32.789-34.754-32.789H247.033c-19.244-.141-34.754 14.635-34.754 32.789z" fill="#C4C4C4"/><path d="M218.311 253.356c0-14.917 12.781-27.019 28.578-27.019h253.327c15.797 0 28.578 12.102 28.578 27.019v571.627c0 14.917-12.781 27.02-28.578 27.02H247.033c-15.797 0-28.579-12.103-28.579-27.02V253.356h-.143zm-5.457 0v571.627c0 17.732 15.222 32.227 34.035 32.227h253.327c18.813 0 34.035-14.495 34.035-32.227V253.356c0-17.731-15.222-32.226-34.035-32.226H247.033c-18.813-.141-34.179 14.354-34.179 32.226z" fill="silver"/><path d="M218.455 253.356c0-14.917 12.781-27.019 28.578-27.019h253.184c15.797 0 28.578 12.102 28.578 27.019v571.627c0 14.917-12.781 27.019-28.578 27.019H247.033c-15.797 0-28.578-12.102-28.578-27.019V253.356zm-4.883 0v571.627c0 17.45 14.936 31.663 33.461 31.663h253.184c18.525 0 33.461-14.213 33.461-31.663V253.356c0-17.45-14.936-31.663-33.461-31.663H247.033c-18.525 0-33.461 14.072-33.461 31.663z" fill="#BDBDBD"/><path d="M218.453 253.356c0-14.776 12.781-26.878 28.578-26.878h253.183c15.654 0 28.579 12.102 28.579 26.878v571.627c0 14.777-12.782 26.879-28.579 26.879H247.031c-15.653 0-28.578-12.102-28.578-26.879V253.356zm-4.308 0v571.627c0 17.169 14.648 31.101 32.886 31.101h253.183c18.095 0 32.887-13.932 32.887-31.101V253.356c0-17.168-14.648-31.1-32.887-31.1H247.031c-18.095 0-32.886 13.932-32.886 31.1z" fill="#B9B9B9"/><path d="M218.597 253.356c0-14.776 12.781-26.879 28.435-26.879h253.183c15.654 0 28.435 12.103 28.435 26.879v571.627c0 14.776-12.781 26.879-28.435 26.879H247.032c-15.654 0-28.435-12.103-28.435-26.879V253.356zm-3.734 0v571.627c0 16.747 14.505 30.397 32.169 30.397h253.183c17.808 0 32.169-13.65 32.169-30.397V253.356c0-16.887-14.361-30.537-32.169-30.537H247.032c-17.808 0-32.169 13.65-32.169 30.537z" fill="#B6B6B6"/><path d="M218.597 253.356c0-14.776 12.781-26.738 28.435-26.738h253.183c15.653 0 28.435 11.962 28.435 26.738v571.627c0 14.776-12.782 26.738-28.435 26.738H247.032c-15.654 0-28.435-11.962-28.435-26.738V253.356zm-3.159 0v571.627c0 16.465 14.217 29.834 31.594 29.834h253.183c17.377 0 31.594-13.369 31.594-29.834V253.356c0-16.465-14.217-29.834-31.594-29.834H247.032c-17.521 0-31.594 13.369-31.594 29.834z" fill="#B2B2B2"/><path d="M218.597 253.356c0-14.776 12.781-26.738 28.291-26.738h253.327c15.653 0 28.291 11.962 28.291 26.738v571.627c0 14.776-12.782 26.738-28.291 26.738H247.031c-15.653 0-28.291-11.962-28.291-26.738V253.356h-.143zm-2.585 0v571.627c0 16.184 13.93 29.271 30.876 29.271h253.327c17.089 0 30.876-13.087 30.876-29.271V253.356c0-16.184-13.93-29.271-30.876-29.271H247.031c-17.089 0-31.019 13.087-31.019 29.271z" fill="#AFAFAF"/><path d="M218.741 253.356c0-14.776 12.638-26.738 28.291-26.738h253.183c15.654 0 28.291 11.962 28.291 26.738v571.627c0 14.776-12.637 26.738-28.291 26.738H247.032c-15.653 0-28.291-11.962-28.291-26.738V253.356zm-2.011 0v571.627c0 15.762 13.643 28.568 30.302 28.568h253.183c16.659 0 30.302-12.806 30.302-28.568V253.356c0-15.761-13.643-28.567-30.302-28.567H247.032c-16.802-.141-30.302 12.665-30.302 28.567z" fill="#ABABAB"/><path d="M218.743 253.356c0-14.635 12.637-26.597 28.291-26.597h253.183c15.51 0 28.291 11.962 28.291 26.597v571.627c0 14.636-12.637 26.597-28.291 26.597H247.034c-15.51 0-28.291-11.961-28.291-26.597V253.356zm-1.436 0v571.627c0 15.48 13.355 28.005 29.727 28.005h253.183c16.372 0 29.727-12.525 29.727-28.005V253.356c0-15.48-13.355-28.004-29.727-28.004H247.034c-16.372-.141-29.727 12.524-29.727 28.004z" fill="#A8A8A8"/></g><path d="M213.615 335.934c0 1.098-.701 2.059-1.543 2.059-.841 0-1.543-.961-1.543-2.059v-25.805c0-1.098.702-2.059 1.543-2.059.842 0 1.543.961 1.543 2.059v25.805z" fill="url(#paint0_linear)"/><path d="M213.614 402.507c0 1.784-.982 3.157-2.104 3.157s-2.104-1.373-2.104-3.157v-39.12c0-1.785.982-3.157 2.104-3.157s2.104 1.372 2.104 3.157v39.12z" fill="url(#paint1_linear)"/><path d="M213.614 470.864c0 1.784-.982 3.157-2.104 3.157s-2.104-1.373-2.104-3.157v-39.12c0-1.784.982-3.157 2.104-3.157s2.104 1.373 2.104 3.157v39.12z" fill="url(#paint2_linear)"/><path d="M531.326 387.408c0-2.608.982-4.667 2.104-4.667s2.104 2.059 2.104 4.667v58.749c0 2.608-.982 4.667-2.104 4.667s-2.104-2.059-2.104-4.667v-58.749z" fill="url(#paint3_linear)"/><path d="M491.629 223.104H254.853c-23.565 0-42.501 18.531-42.501 41.316v547.131c0 22.785 19.076 41.316 42.501 41.316h236.776c23.426 0 42.502-18.531 42.502-41.316V264.42c0-22.785-19.076-41.316-42.502-41.316z" fill="#ECF1F5"/><path d="M227.08 264.42c0-14.824 12.484-26.766 27.773-26.766h236.776c15.29 0 27.774 12.079 27.774 26.766v547.131c0 14.824-12.484 26.766-27.774 26.766H254.853c-15.289 0-27.773-12.079-27.773-26.766V264.42zm-14.728 0v547.131c0 22.785 19.076 41.316 42.501 41.316h236.776c23.426 0 42.502-18.531 42.502-41.316V264.42c0-22.785-19.076-41.316-42.502-41.316H254.853c-23.565 0-42.501 18.531-42.501 41.316z" fill="#DBDBDA"/><path d="M227.22 264.421c0-14.687 12.484-26.766 27.633-26.766h236.776c15.289 0 27.633 11.942 27.633 26.766v547.13c0 14.687-12.484 26.767-27.633 26.767H254.853c-15.29 0-27.633-11.942-27.633-26.767v-547.13zm-14.308 0v547.13c0 22.511 18.796 40.767 41.941 40.767h236.776c23.145 0 41.941-18.256 41.941-40.767v-547.13c0-22.511-18.796-40.767-41.941-40.767H254.853c-23.145 0-41.941 18.256-41.941 40.767z" fill="#DCDCDB"/><path d="M227.219 264.42c0-14.687 12.344-26.766 27.633-26.766h236.776c15.29 0 27.634 11.942 27.634 26.766v547.13c0 14.688-12.344 26.767-27.634 26.767H254.852c-15.289 0-27.633-11.942-27.633-26.767V264.42zm-13.746 0v547.13c0 22.1 18.515 40.081 41.379 40.081h236.776c22.864 0 41.38-17.981 41.38-40.081V264.42c0-22.099-18.516-40.08-41.38-40.08H254.852c-22.864-.138-41.379 17.844-41.379 40.08z" fill="#DEDEDD"/><path d="M227.221 264.42c0-14.687 12.343-26.629 27.633-26.629H491.63c15.149 0 27.633 11.942 27.633 26.629v547.131c0 14.687-12.344 26.629-27.633 26.629H254.854c-15.149 0-27.633-11.942-27.633-26.629V264.42zm-13.186 0v547.131c0 21.824 18.235 39.531 40.819 39.531H491.63c22.443 0 40.818-17.707 40.818-39.531V264.42c0-21.824-18.235-39.531-40.818-39.531H254.854c-22.584 0-40.819 17.707-40.819 39.531z" fill="#DFDFDE"/><path d="M227.361 264.42c0-14.687 12.343-26.629 27.493-26.629H491.63c15.149 0 27.493 11.942 27.493 26.629v547.13c0 14.687-12.344 26.629-27.493 26.629H254.854c-15.15 0-27.493-11.942-27.493-26.629V264.42zm-12.625 0v547.13c0 21.551 17.955 38.983 40.118 38.983H491.63c22.162 0 40.117-17.432 40.117-38.983V264.42c0-21.55-17.955-38.982-40.117-38.982H254.854c-22.163 0-40.118 17.432-40.118 38.982z" fill="#E1E1E0"/><path d="M227.36 264.42c0-14.687 12.344-26.491 27.493-26.491h236.776c15.149 0 27.493 11.942 27.493 26.491v547.131c0 14.687-12.344 26.491-27.493 26.491H254.853c-15.149 0-27.493-11.942-27.493-26.491V264.42zm-12.063 0v547.131c0 21.138 17.674 38.433 39.556 38.433h236.776c21.882 0 39.556-17.158 39.556-38.433V264.42c0-21.138-17.674-38.433-39.556-38.433H254.853c-21.882 0-39.556 17.158-39.556 38.433z" fill="#E2E2E1"/><path d="M227.36 264.421c0-14.55 12.343-26.492 27.352-26.492h236.776c15.149 0 27.353 11.942 27.353 26.492v547.13c0 14.55-12.344 26.491-27.353 26.491H254.853c-15.15 0-27.353-11.941-27.353-26.491v-547.13h-.14zm-11.503 0v547.13c0 20.864 17.394 37.747 38.996 37.747h236.776c21.461 0 38.995-16.883 38.995-37.747v-547.13c0-20.864-17.394-37.748-38.995-37.748H254.853c-21.602-.137-38.996 16.884-38.996 37.748z" fill="#E4E4E3"/><path d="M227.499 264.42c0-14.549 12.204-26.491 27.353-26.491h236.776c15.149 0 27.353 11.804 27.353 26.491v547.131c0 14.549-12.204 26.491-27.353 26.491H254.852c-15.149 0-27.353-11.804-27.353-26.491V264.42zm-11.081 0v547.131c0 20.589 17.253 37.198 38.434 37.198h236.776c21.181 0 38.434-16.609 38.434-37.198V264.42c0-20.589-17.253-37.198-38.434-37.198H254.852c-21.181 0-38.434 16.609-38.434 37.198z" fill="#E5E5E4"/><path d="M227.499 264.421c0-14.55 12.203-26.355 27.352-26.355h236.776c15.009 0 27.353 11.805 27.353 26.355v547.13c0 14.55-12.203 26.354-27.353 26.354H254.851c-15.008 0-27.352-11.804-27.352-26.354v-547.13zm-10.52 0v547.13c0 20.178 16.972 36.649 37.732 36.649h236.776c20.9 0 37.733-16.471 37.733-36.649v-547.13c0-20.178-16.973-36.65-37.733-36.65H254.851c-20.9 0-37.872 16.335-37.872 36.65z" fill="#E7E7E6"/><path d="M227.639 264.42c0-14.549 12.203-26.354 27.212-26.354h236.776c15.009 0 27.213 11.805 27.213 26.354v547.13c0 14.55-12.204 26.355-27.213 26.355H254.851c-15.009 0-27.212-11.805-27.212-26.355V264.42zm-9.959 0v547.13c0 19.903 16.692 36.1 37.171 36.1h236.776c20.48 0 37.172-16.197 37.172-36.1V264.42c0-19.903-16.692-36.1-37.172-36.1H254.851c-20.619 0-37.171 16.197-37.171 36.1z" fill="#E8E8E7"/><path d="M227.64 264.42c0-14.55 12.204-26.217 27.213-26.217h236.776c15.009 0 27.212 11.805 27.212 26.217v547.13c0 14.55-12.203 26.218-27.212 26.218H254.853c-15.009 0-27.213-11.805-27.213-26.218V264.42zm-9.398 0v547.13c0 19.629 16.412 35.552 36.611 35.552h236.776c20.199 0 36.61-15.923 36.61-35.552V264.42c0-19.628-16.411-35.551-36.61-35.551H254.853c-20.199 0-36.611 15.923-36.611 35.551z" fill="#E9E9E9"/><path d="M227.64 264.42c0-14.412 12.203-26.217 27.212-26.217h236.776c15.009 0 27.213 11.805 27.213 26.217v547.13c0 14.413-12.204 26.218-27.213 26.218H254.852c-15.009 0-27.212-11.805-27.212-26.218V264.42zm-8.837 0v547.13c0 19.217 16.131 34.865 36.049 34.865h236.776c19.919 0 36.05-15.648 36.05-34.865V264.42c0-19.216-16.131-34.864-36.05-34.864H254.852c-19.918-.138-36.049 15.51-36.049 34.864z" fill="#EBEBEA"/><path d="M227.781 264.42c0-14.412 12.064-26.217 27.073-26.217H491.63c14.868 0 27.072 11.805 27.072 26.217v547.131c0 14.412-12.204 26.217-27.072 26.217H254.854c-14.869 0-27.073-11.805-27.073-26.217V264.42zm-8.416 0v547.131c0 18.942 15.851 34.315 35.489 34.315H491.63c19.497 0 35.488-15.373 35.488-34.315V264.42c0-18.942-15.851-34.315-35.488-34.315H254.854c-19.638 0-35.489 15.373-35.489 34.315z" fill="#ECECEC"/><path d="M227.781 264.42c0-14.412 12.063-26.079 27.072-26.079h236.776c14.869 0 27.073 11.667 27.073 26.079v547.131c0 14.412-12.064 26.08-27.073 26.08H254.853c-14.868 0-27.072-11.668-27.072-26.08V264.42zm-7.715 0v547.131c0 18.667 15.57 33.766 34.787 33.766h236.776c19.217 0 34.787-15.099 34.787-33.766V264.42c0-18.667-15.57-33.766-34.787-33.766H254.853c-19.217 0-34.787 15.099-34.787 33.766z" fill="#EEEEED"/><path d="M227.781 264.42c0-14.412 12.063-26.08 26.932-26.08h236.776c14.868 0 26.931 11.668 26.931 26.08v547.13c0 14.413-12.063 26.08-26.931 26.08H254.853c-14.869 0-26.932-11.667-26.932-26.08V264.42h-.14zm-7.154 0v547.13c0 18.256 15.289 33.218 34.226 33.218h236.776c18.936 0 34.226-14.824 34.226-33.218V264.42c0-18.256-15.29-33.217-34.226-33.217H254.853c-18.937 0-34.226 14.824-34.226 33.217z" fill="#EFEFEF"/><path d="M227.92 264.42c0-14.412 12.064-26.08 26.932-26.08h236.776c14.869 0 26.932 11.668 26.932 26.08v547.13c0 14.413-12.063 26.08-26.932 26.08H254.852c-14.868 0-26.932-11.667-26.932-26.08V264.42zm-6.732 0v547.13c0 17.982 15.149 32.669 33.664 32.669h236.776c18.516 0 33.665-14.55 33.665-32.669V264.42c0-17.981-15.149-32.668-33.665-32.668H254.852c-18.656 0-33.664 14.687-33.664 32.668z" fill="#F1F1F0"/><path d="M227.92 264.42c0-14.275 12.063-25.942 26.932-25.942h236.776c14.868 0 26.932 11.667 26.932 25.942v547.13c0 14.276-12.064 25.943-26.932 25.943H254.852c-14.869 0-26.932-11.667-26.932-25.943V264.42zm-6.172 0v547.13c0 17.707 14.869 31.983 33.104 31.983h236.776c18.235 0 33.104-14.413 33.104-31.983V264.42c0-17.706-14.869-31.982-33.104-31.982H254.852c-18.235-.137-33.104 14.276-33.104 31.982z" fill="#F2F2F2"/><path d="M228.06 264.421c0-14.276 12.063-25.943 26.791-25.943h236.776c14.729 0 26.792 11.667 26.792 25.943V811.55c0 14.276-12.063 25.943-26.792 25.943H254.851c-14.728 0-26.791-11.667-26.791-25.943V264.421zm-5.751 0V811.55c0 17.296 14.588 31.434 32.402 31.434h236.776c17.955 0 32.402-14.138 32.402-31.434V264.421c0-17.296-14.588-31.434-32.402-31.434H254.851c-17.954 0-32.542 14.001-32.542 31.434z" fill="#F3F3F3"/><path d="M228.059 264.42c0-14.275 12.064-25.805 26.792-25.805h236.776c14.728 0 26.792 11.667 26.792 25.805v547.13c0 14.276-12.064 25.806-26.792 25.806H254.851c-14.728 0-26.792-11.668-26.792-25.806V264.42zm-5.049 0v547.13c0 17.021 14.307 30.885 31.841 30.885h236.776c17.534 0 31.841-13.864 31.841-30.885V264.42c0-17.02-14.307-30.884-31.841-30.884H254.851c-17.674 0-31.841 13.864-31.841 30.884z" fill="#F5F5F5"/><path d="M228.061 264.421c0-14.276 11.923-25.806 26.651-25.806h236.776c14.729 0 26.652 11.53 26.652 25.806v547.13c0 14.275-11.923 25.805-26.652 25.805H254.853c-14.729 0-26.652-11.53-26.652-25.805v-547.13h-.14zm-4.489 0v547.13c0 16.746 14.027 30.335 31.281 30.335h236.776c17.253 0 31.28-13.589 31.28-30.335v-547.13c0-16.747-14.027-30.336-31.28-30.336H254.853c-17.254 0-31.281 13.589-31.281 30.336z" fill="#F6F6F6"/><path d="M228.201 264.421c0-14.138 11.923-25.806 26.651-25.806h236.776c14.728 0 26.651 11.53 26.651 25.806v547.13c0 14.138-11.923 25.805-26.651 25.805H254.852c-14.728 0-26.651-11.53-26.651-25.805v-547.13zm-4.068 0v547.13c0 16.334 13.746 29.648 30.719 29.648h236.776c16.973 0 30.719-13.314 30.719-29.648v-547.13c0-16.335-13.746-29.649-30.719-29.649H254.852c-16.973-.137-30.719 13.177-30.719 29.649z" fill="#F8F8F8"/><path d="M228.202 264.421c0-14.139 11.923-25.669 26.651-25.669h236.776c14.729 0 26.652 11.53 26.652 25.669v547.13c0 14.138-11.923 25.668-26.652 25.668H254.853c-14.728 0-26.651-11.53-26.651-25.668v-547.13zm-3.507 0v547.13c0 16.059 13.466 29.099 30.158 29.099h236.776c16.552 0 30.159-13.04 30.159-29.099v-547.13c0-16.06-13.466-29.1-30.159-29.1H254.853c-16.692 0-30.158 13.04-30.158 29.1z" fill="#F9F9F9"/><path d="M228.342 264.42c0-14.138 11.923-25.668 26.511-25.668h236.776c14.588 0 26.511 11.53 26.511 25.668v547.131c0 14.138-11.923 25.668-26.511 25.668H254.853c-14.588 0-26.511-11.53-26.511-25.668V264.42zm-3.086 0v547.131c0 15.785 13.185 28.55 29.457 28.55h236.776c16.271 0 29.456-12.765 29.456-28.55V264.42c0-15.785-13.185-28.55-29.456-28.55H254.853c-16.271 0-29.597 12.765-29.597 28.55z" fill="#FBFBFB"/><path d="M228.342 264.421c0-14.138 11.923-25.669 26.511-25.669h236.776c14.588 0 26.511 11.531 26.511 25.669v547.13c0 14.138-11.923 25.668-26.511 25.668H254.853c-14.588 0-26.511-11.53-26.511-25.668v-547.13zm-2.385 0v547.13c0 15.373 12.905 28.001 28.896 28.001h236.776c15.991 0 28.895-12.49 28.895-28.001v-547.13c0-15.374-12.904-28.002-28.895-28.002H254.853c-15.991 0-28.896 12.491-28.896 28.002z" fill="#FCFCFC"/><path d="M228.341 264.42c0-14.138 11.923-25.531 26.511-25.531h236.776c14.588 0 26.511 11.393 26.511 25.531v547.13c0 14.139-11.923 25.531-26.511 25.531H254.852c-14.588 0-26.511-11.392-26.511-25.531V264.42zm-1.823 0v547.13c0 15.099 12.764 27.453 28.334 27.453h236.776c15.57 0 28.335-12.354 28.335-27.453V264.42c0-15.099-12.765-27.452-28.335-27.452H254.852c-15.71 0-28.334 12.353-28.334 27.452z" fill="#FEFEFE"/><path d="M228.483 264.42c0-14.001 11.782-25.531 26.371-25.531H491.63c14.588 0 26.37 11.393 26.37 25.531v547.13c0 14.001-11.782 25.531-26.37 25.531H254.854c-14.589 0-26.371-11.393-26.371-25.531V264.42zm-1.403 0v547.13c0 14.825 12.484 26.767 27.774 26.767H491.63c15.289 0 27.773-12.08 27.773-26.767V264.42c0-14.824-12.484-26.766-27.773-26.766H254.854c-15.29-.137-27.774 11.942-27.774 26.766z" fill="#fff"/><path d="M396.806 256.491c0 2.333-1.823 4.118-4.208 4.118h-38.855c-2.384 0-4.208-1.785-4.208-4.118 0-2.334 1.824-4.118 4.208-4.118h38.855c2.385 0 4.208 1.922 4.208 4.118z" fill="#DCDCDC"/><path d="M354.585 259.236c-1.683 0-3.085-1.51-2.805-3.157.14-1.373 1.543-2.333 2.946-2.333h36.891c1.402 0 2.805.96 2.945 2.333.281 1.647-1.122 3.157-2.805 3.157h-37.172z" fill="#fff"/><g filter="url(#filter0_d)"><rect x="335.609" y="14" width="78.637" height="70.454" rx="7" fill="#fff"/></g><g clip-path="url(#clip0)"><path fill-rule="evenodd" clip-rule="evenodd" d="M351.596 26.412c0-1.58 1.313-2.882 2.909-2.882h41.052c1.595 0 2.909 1.301 2.909 2.881v46.24c0 1.58-1.314 2.881-2.909 2.881h-41.052c-1.596 0-2.909-1.3-2.909-2.88v-46.24z" fill="#9E9E9E"/><path d="M392.742 59.035h-22.333v-3.439h10.275c.892 0 1.642-.744 1.642-1.627v-9.852c0-.883-.75-1.626-1.642-1.626h-10.275v-3.393h21.957c.892 0 1.643-.743 1.643-1.626v-8.226c0-.883-.751-1.626-1.643-1.626h-34.671c-.892 0-1.642.743-1.642 1.626v40.43c0 .884.75 1.627 1.642 1.627h35.047c.891 0 1.642-.743 1.642-1.626v-9.062c0-.883-.751-1.58-1.642-1.58z" fill="#fff"/><path fill-rule="evenodd" clip-rule="evenodd" d="M367.547 52.761v9.155h24.397v7.064h-33.311V30.13h32.982v6.134h-24.068V45h12.105v7.761h-12.105z" fill="#9E9E9E"/></g><g filter="url(#filter1_d)"><rect x="18.475" y="324.835" width="54.074" height="53.069" rx="7" transform="rotate(-77.592 18.475 324.835)" fill="#fff"/></g><g clip-path="url(#clip1)" fill="#9E9E9E"><path d="M41.748 321.546l.216-.98 2.865-.886-2.24-1.959.184-.836 3.115 2.775-.127.579-4.013 1.307zm1.817-4.806l.12-.547 2.383-1.918-1.87-.412.151-.691 2.83.623-.12.546-2.4 1.915 1.888.415-.152.691-2.83-.622zm.263-4.643l.817-3.713.802.177-.63 2.86.535.118.368-1.671.739.162-.368 1.672.692.152.636-2.893.787.173-.824 3.745-3.554-.782zm3.321-4.982l-1.707 1.091.201-.916 1.152-.741-.724-1.204.174-.787 1.048 1.679 1.8-1.137-.206.932-1.244.788.792 1.269-.177.804-1.11-1.778zm-.817-2.959l.551-2.507c.025-.113.043-.193.072-.254a.593.593 0 01.102-.163.379.379 0 01.224-.119.995.995 0 01.373.031l.518.114a.863.863 0 01.217.065.35.35 0 01.147.083.294.294 0 01.146.234c.01.104.013.239-.026.416l-.4 1.816 1.07.235-.152.691-2.846-.626.004-.016zm1.284-.442l.353-1.607c.014-.065.01-.116-.003-.136-.012-.019-.056-.046-.119-.06l-.157-.034c-.063-.014-.113-.008-.133.004-.019.013-.045.058-.06.122l-.353 1.607.472.104zm2.398-2.808l-2.83-.623.551-2.507c.025-.112.043-.192.072-.253a.588.588 0 01.102-.163.373.373 0 01.224-.119.995.995 0 01.372.031l.52.114c.094.021.172.038.216.065.047.01.09.036.147.082a.294.294 0 01.146.235c.01.103.013.239-.026.415l-.077.354 1.355-1.067-.219.997-1.33.954-.128.578 1.07.236-.15.675-.015-.004zm-1.196-2.656c.014-.064.009-.115-.003-.135-.013-.02-.056-.046-.12-.06l-.156-.034c-.063-.014-.114-.009-.133.004-.023.029-.046.057-.06.122l-.353 1.607.487.107.354-1.607-.016-.004zm-.775-1.872l.658-2.989.644.141-.505 2.298.393.087.293-1.334.613.135-.293 1.334.519.114.509-2.314.66.145-.66 3.005-2.831-.622zm3.547-5.623l-.52-.114-.406 1.848c-.053.241-.136.391-.251.467-.116.076-.284.089-.52.038l-.44-.097a1.68 1.68 0 01-.291-.098.392.392 0 01-.164-.154.575.575 0 01-.068-.217 1.56 1.56 0 01.032-.296l.41-1.865c.053-.241.136-.391.252-.467.115-.075.283-.089.519-.037l.157.034-.01.723-.3-.066-.385 1.752.504.11.406-1.848c.053-.241.136-.391.251-.467.116-.076.284-.089.504-.041l.471.104c.236.052.383.135.456.252.073.117.085.288.032.529l-.435 1.977a1.708 1.708 0 01-.099.298.398.398 0 01-.152.169.553.553 0 01-.213.071 1.412 1.412 0 01-.29-.03l-.174-.038-.02-.729.33.072.413-1.88zm.84-3.824l-.52-.115-.406 1.849c-.053.241-.136.391-.251.467-.116.075-.284.089-.52.037l-.44-.097a1.526 1.526 0 01-.292-.098.38.38 0 01-.163-.154.562.562 0 01-.068-.217 1.5 1.5 0 01.032-.296l.41-1.864c.053-.241.136-.392.251-.467.116-.076.284-.089.52-.038l.157.035-.01.722-.3-.066-.385 1.752.503.111.407-1.848c.053-.241.136-.392.251-.467.116-.076.283-.09.504-.041l.471.104c.236.051.383.134.456.251.073.118.085.289.032.53l-.435 1.976a1.694 1.694 0 01-.099.299.398.398 0 01-.152.169.572.572 0 01-.214.071 1.421 1.421 0 01-.29-.031l-.173-.038-.02-.729.33.073.413-1.88zm1.413-5.519c-.58-.212-1.026-.361-1.026-.361-.373-.924-.864-1.841-1.188-2.165-.325-.324-.646-.21-.77-.102-.138.104-.045.209.105.427.15.219.372.554.205.568-.153.017-.949-.26.077.32.475.239.648.58.648.58-1.225-.353-2.182.177-2.484-.024-.286-.197-.58-.515-.58-.515.15-.675-.047-.684-.345-.75-.3-.065-.437-.113-.437-.113.017-.08.083-.302-.134-.214-.217.087-.338.262-.668.189-.315-.069-.675.071-.675.071-.367-.283-.543.369-.595.678-.21.729.086 1.636.86 1.638.77.018 1.285-.223 1.463-.133-.245.738.004 1.18.06 1.53.054.349-.177.5.005 1.096.186.58.096 1.066.146 1.363.05.297.528-.002.832-.036.292-.054 1.75-.39 2.305-.588.376-.136.817-.191 1.225-.32.153-2.123.799-2.958.97-3.139zm-1.86 2.455l-.005.251s-1.817.241-2.491.008c0 0 .267-.615.237-1.077.092.257.998.406 2.26.818zm4.023 14.987l2.304.018a19.785 19.785 0 00-.283-1.561l-1.712.061-.325 1.479.016.003zm-5.882 16.01l-.286 1.302 1.565 1.052.308-1.398-1.587-.956zm2.29 3.014l1.048.702c.154-.472.323-.94.504-1.389l-1.25-.763-.318 1.446.016.004zm2.201-23.424l3.907-.522.343-1.559-2.489.446c.37.79.64 1.287.64 1.287s-.371-.486-.878-1.255l-1.219.221-.304 1.382z"/><path d="M59.89 280.299c-.45-.503-.269-.43-.692-.304-.42.11-2.868 1.122-3.633 2.2a3.448 3.448 0 00-.443-.232c-.133.156-.82 1.032-1.072 2.847.22.2.452.42.972.602.201.061.391.17.594.299l-1.538.622c.174 1.083.583 2.369 1.042 3.582l2.838-1.886-3.095.953.255-1.157 6.541-2.234.02-.012-.337 1.527-4 2.523 3.661-.981-.311 1.415-5.022 1.169c.079.169.153.354.216.519l3.304-.705c.362-.072.645-.01.857.223.213.232.279.533.197.902l-.357 1.623c-.081.37-.292.728-.624 1.042-.33.298-.666.477-1.002.505l-.776.081s.17.206.413.597l1.526-.119-.311 1.414-.5.025a12.26 12.26 0 011.114 5.35c-.067 6-3.357 10.314-3.357 10.314s-1.74 4.166-2.159 8.539c-.273 2.888.334 5.6.334 5.6s-1.605-1.769-1.645-4.962l-2.494-1.998 1.554 2.6-2.047-.434 3.083 2.768-.31 1.414-5-4.773.257-1.173 1.751.284-1.317-2.328.258-1.174 4.35 3.232c.033-.228.067-.457.117-.682l-3.532-2.529c-.227-.168-.385-.422-.503-.785a1.959 1.959 0 01-.063-.991l.276-1.253c.067-.306.218-.542.43-.681a.591.591 0 01.68-.018l4.14 2.309a9.39 9.39 0 01.312-.589l-5.164-2.753.52-2.363a1.28 1.28 0 01.44-.728c.235-.168.46-.219.701-.116l1.14.437c.214.08.394.238.524.468.146.235.219.504.241.778l2.855-.164-.332 1.511-2.745.036-.088.402 2.472 1.201-.106.482c.598-.997 1.061-1.603 1.061-1.603s1.695-3.654 2.094-8.991a25.66 25.66 0 00.018-3.753l-.018.08-5.986-.289.258-1.173 2.19.01.315-1.431-2.211.087.258-1.174 4.427-.34c-.127-.398-.226-.622-.226-.622l-3.133.304a.614.614 0 01-.613-.286c-.134-.215-.175-.477-.105-.798l.294-1.334c.067-.305.232-.606.476-.889.259-.28.513-.46.79-.517l.276-.057c-.098-.157-.192-.329-.29-.485l-.851.2.272-1.238a20.585 20.585 0 01-1.1-2.415l-7.61 34.584 8.418 8.945 10.9-49.546-2.711 1.088c-.207-.112-.458-.319-.747-.652-.659-.752-1.407-1.473-1.857-1.976zm-7.576 20.27l.944.056-.266 1.206 4.976.538-.311 1.414-4.93-.747-.265 1.205-.915-.184.767-3.488zm-.806 8.011c-.245-.087-.418-.277-.55-.576a1.548 1.548 0 01-.08-.91l.276-1.254a1.41 1.41 0 01.448-.76c.242-.2.474-.284.726-.228l4.862 1.053-.311 1.414-2.042-.534-.319 1.447 2.021.63-.304 1.382-4.727-1.664zm9.167-25.783c.375.167.688.32.95.479l-3.727 1.505c-.227-.32-.441-.62-.614-.809 1.089-1.125 1.291-1.822 1.55-2.102.26-.28.728-.16.728-.16s.434.803 1.113 1.087z"/><path d="M52.062 306.057l-.286 1.302 1.682.521.304-1.382-1.7-.441zm-1.003 4.564l-.269 1.221 1.132.553.282-1.286-1.145-.488z"/></g><g filter="url(#filter2_d)"><rect x="63.332" y="189.364" width="55.722" height="55.722" rx="7" transform="rotate(-56.592 63.332 189.364)" fill="#fff"/><path d="M122.738 186.063l-7.961 12.452-25.63-17.438 3.071-4.805.435-.68a22.896 22.896 0 012.486-3.193c.539-.495 1.233-.885 1.901-1.062.862-.218 1.789-.277 2.665-.083a7.563 7.563 0 012.707 1.153 5.323 5.323 0 012.409 3.706 6.967 6.967 0 01-.069 2.367 6.704 6.704 0 01-.906 2.199l-.153.24-2.868 4.484 21.913.66zm-11.007 17.217l-.794 1.241c-2.125 3.323-6.434 4.24-9.647 2.054l-23.424-15.937c-3.213-2.186-4.092-6.634-1.968-9.957l7.168-11.21c7.73-9.048 20.323-11.626 30.782-6.348l10.609 7.218c3.174 2.16 4.079 6.567 2.019 9.877l-8.935-.104-7.145-.207c.649-1.972.628-4.112.003-6.088-.834-2.693-2.529-4.996-4.839-6.51-1.587-1.08-3.405-1.8-5.324-2.013-3.271-.445-6.614.613-9 2.954-1.09 1.097-2.051 2.339-2.96 3.674l-.282.44-6.579 10.29 30.316 20.626zm-6.71-46.163a12.496 12.496 0 00-1.263-.284c-4.947-.953-10.053.169-14.278 3.04-.18.108-.32.242-.526.389l2.432-3.804c2.124-3.323 6.434-4.24 9.647-2.054l3.988 2.713z" fill="#9E9E9E"/><rect x="546.879" y="50.34" width="61.393" height="61.393" rx="7" transform="rotate(31.672 546.879 50.34)" fill="#fff"/><path d="M554.1 93.638l32.978 2.606-29.348-14.516 4.467-11.825-12.913 7.639-11.534-5.705.36 1.876.523.858 4.914 8.372 10.155-4.007s2.644-1.085 1.487 1.846l-10.309 27.566 1.365 7.008 7.855-21.718z" fill="#9E9E9E"/><path d="M530.881 90.664l3.107 1.98 7.191-3.5-.582-2.992-9.716 4.512zm9.717-4.511l.581 2.991-.581-2.99z" fill="#9E9E9E"/><path d="M540.598 86.153l.581 2.991-.581-2.99z" fill="#9E9E9E"/><path d="M541.298 89.07l3.28 16.315 9.175-24.92-10.5 4.46-4.379-7.657 1.756 8.83-.086.02.582 2.992.172-.04zm7.277-3.522l-2.718 4.556-1.345-2.58 4.063-1.976z" fill="#9E9E9E"/><path d="M541.298 89.07l3.28 16.315 9.175-24.92-10.5 4.46-4.379-7.657 1.756 8.83-.086.02.582 2.992.172-.04zm7.277-3.522l-2.718 4.556-1.345-2.58 4.063-1.976z" fill="#9E9E9E"/><rect x="680.916" y="171.657" width="55.248" height="55.248" rx="7" transform="rotate(55.569 680.916 171.657)" fill="#fff"/><path d="M674.448 228.251c-.406-.606-.551-1.247-.502-2.024.049-.776.466-1.217 1.048-1.625l8.441-5.91a.916.916 0 00.35-.542c-.039-.27-.077-.54-.213-.742l-2.576-3.837 9.702-6.794c.388-.272.611-.577.699-1.084.088-.507-.019-.877-.29-1.281l-1.491-2.222-15.33 10.734-4.61-6.867 8.635-6.047-1.627-2.423c-.136-.202-.368-.336-.601-.47a.88.88 0 00-.621.137l-12.806 8.968c-.291.204-.553.239-.912.342-.359.103-.689.037-1.018-.029-.33-.066-.563-.201-.96-.368-.3-.235-.533-.369-.736-.672l-8.671-12.916.166.036-.067-.101s.097-.068.029-.169l.097-.068s.068.101.165.033l.192-.139 9.079 12.037a.921.921 0 00.533.369.877.877 0 00.62-.137l13.389-9.376c.583-.408 1.203-.545 1.863-.413.659.132 1.26.602 1.599 1.107l3.186 4.746-8.635 6.047 2.102 3.131 15.426-10.803 3.39 5.05c.407.606.619 1.347.473 2.192-.117.676-.495 1.386-1.078 1.794l-8.829 6.183 1.899 2.827c.339.505.484 1.146.396 1.653-.088.507-.437 1.048-.825 1.32l-9.314 6.522a.912.912 0 00-.35.542.96.96 0 00.145.641l7.403 11.301-.913.491c.068.101.068.101-.029.169l-.097.068c-.097.068-.097.068-.165-.033l-.068-.101.066.25-7.411-10.98-.348-.517z" fill="#9E9E9E"/><rect x="161.344" y="77.302" width="60.381" height="60.381" rx="7" transform="rotate(-34.14 161.344 77.302)" fill="#fff"/><path fill-rule="evenodd" clip-rule="evenodd" d="M203.073 99.811c2.727 4.094 7.031 3.902 10.162 1.826 3.189-2.115 5.014-6.404 2.21-10.613l-2.612-3.92c-2.765-4.152-7.394-4.073-10.506-1.842-3.016 2.249-4.785 6.246-2.058 10.34l2.804 4.209zm-9.485-27.792c-1.146.79-2.004 1.635-2.537 2.592-.971 1.68-1.253 3.641-.674 5.514.502 1.757 1.577 3.372 3.129 4.321 2.491 1.48 5.57 1.207 7.975-.452l.172-.119c2.349-1.62 3.603-4.505 3.309-7.331-.254-2.013-1.598-4.031-3.284-5.056-1.648-.968-3.581-1.233-5.454-.783a9.864 9.864 0 00-2.636 1.314z" fill="#AAA"/><rect x="18.84" y="463.781" width="53.449" height="53.449" rx="7" transform="rotate(-101.437 18.84 463.781)" fill="#fff"/><path d="M38.977 446.628s4.613-2.495 5.15-10.259c.713-7.642 5.19-12.298 16.206-8.435-4.9-.414-12-.539-12.21 8.095-.622 8.093-2.692 9.762-9.145 10.599z" fill="#9E9E9E"/><path d="M33.014 431.279c-2.646 8.502-5.249 9.029-7.509 9.018-7.335-.546-7.81-8.104-7.81-8.104.579 12.536 7.205 14.788 10.652 14.715 5.593.117 8.481-7.185 8.481-7.185s2.828-7.602 4.481-10.592c3.115-4.692 14.436-2.297 18.705-1.287-.815-.304-2.998-1.424-9.547-4.784-10.536-5.21-14.777-.133-17.453 8.219z" fill="#9E9E9E"/><rect x="688.422" y="327.922" width="56.091" height="42.165" rx="9" fill="#9E9E9E"/><path d="M735.125 371.321c5.907-.035 10.606-4.939 10.571-11.034l-.002-.366-.128-22.795c-.033-5.973-4.787-10.943-10.694-10.908l-.118.001-.026-4.632-35.678.213c-8.506.051-15.436 7.284-15.387 16.061l.127 22.552c.05 8.777 7.06 15.927 15.566 15.876l35.796-.213-.027-4.755zm-5.452-3.258l-.046-8.046 1.418-.008c2.245-.014 4.006-1.975 3.993-4.291l-.077-13.653c-.013-2.316-1.796-4.256-4.041-4.242l-1.654.01c-1.535.009-2.947 1.114-3.647 2.582l-12.515 22.505c-1.755 3.18-4.697 5.148-7.769 5.166l-4.253.025c-5.198.031-9.475-4.332-9.506-9.817l-.105-18.651c-.03-5.363 4.198-9.777 9.396-9.808l3.426-.021.045 7.924-1.418.008c-2.126.013-4.006 1.975-3.993 4.291l.078 13.774c.013 2.317 1.795 4.134 4.04 4.121l1.654-.01c1.89-.011 2.946-1.236 3.766-2.582l12.278-22.626c1.754-3.18 4.696-5.148 7.768-5.166l4.253-.026c5.198-.031 9.476 4.332 9.506 9.696l.106 18.894c.031 5.486-4.197 9.9-9.396 9.931l-3.307.02z" fill="#fff"/><rect x="733.1" y="470.471" width="53.047" height="53.047" rx="7" transform="rotate(107.438 733.1 470.471)" fill="#fff"/><path d="M709.317 478.489a.918.918 0 001.191.32l.019-.009a.78.78 0 00.293-1.104c-2.708-4.322-8.426-6.071-13.188-4.033a.797.797 0 00-.455.48.778.778 0 00.047.589.916.916 0 001.165.401c3.948-1.668 8.689-.218 10.928 3.356zm-5.547 9.504l-2.175 6.734 1.911.584 2.902-8.987-11.205-3.427-2.903 8.988 1.911.584 2.175-6.734 2.614.8-1.013 3.139 2.154.659 1.014-3.139.69.21 1.925.589z" fill="#9E9E9E"/><path d="M714.638 476.577a.918.918 0 001.191.32l.005-.013a.77.77 0 00.293-1.104c-4.474-7.116-13.898-9.998-21.765-6.655a.797.797 0 00-.455.48.779.779 0 00.047.589.915.915 0 001.165.4c7.071-2.981 15.519-.399 19.519 5.983zm-4.89 15.632c1.746-5.406-1.568-11.224-7.415-13.012-5.847-1.788-11.986 1.14-13.732 6.546-1.745 5.406 1.569 11.224 7.416 13.012 5.833 1.783 11.986-1.14 13.731-6.546zm-8.91-1.59c-.121.376-.539.499-.942.376l-2.14-.655-.058-.017a.637.637 0 01-.437-.797l.819-2.536-1.193-.364-1.979 6.13c-.121.376-.54.498-.942.375l-1.911-.584a1.25 1.25 0 01-.057-.018.637.637 0 01-.438-.796l2.903-8.988c.121-.376.54-.646.928-.527l11.205 3.426c.388.119.63.591.509.967l-2.902 8.987c-.122.376-.54.498-.942.375l-1.911-.584-.057-.017a.637.637 0 01-.438-.797l1.98-6.131-1.192-.364-.819 2.535.014.004zm1.259 14.092a.784.784 0 00.408-1.069l-.01-.018a.916.916 0 00-1.165-.401c-3.952 1.681-8.678.236-10.932-3.343a.92.92 0 00-1.192-.319.799.799 0 00-.384.457.75.75 0 00.091.647c2.709 4.321 8.426 6.069 13.184 4.046z" fill="#9E9E9E"/><path d="M705.339 509.24a.783.783 0 00.408-1.069l.005-.013a.915.915 0 00-1.165-.4c-7.047 3.003-15.48.425-19.495-5.961a.917.917 0 00-1.191-.32.8.8 0 00-.385.457.75.75 0 00.091.647c4.451 7.138 13.875 10.02 21.732 6.659z" fill="#9E9E9E"/></g><path d="M442.487 439.569c0-.161-.174-.161-.174-.323 0 0 0-.161-.173-.161a13.953 13.953 0 00-2.604-4.033h-.173l-.521-.484c-1.388-1.291-3.124-2.582-5.554-3.711-1.388-.646-2.256-.807-2.256-.807-1.041-.161-1.909-.323-2.95-.323-1.215 0-2.256 0-3.298.162h-.347c-.173 0-.521 0-.694.161-5.033.968-8.504 3.872-10.587 6.131l-.347.323-.694.645c-2.43 2.42-5.033 4.195-7.29 5.647-2.429 1.452-5.206 2.904-8.504 4.033h-.173c-2.43.968-5.207 1.775-7.984 2.42-8.157 1.775-15.967 1.129-22.388-.484-.695-.161-1.562-.484-2.083-.645-.694-.162-1.388-.484-1.909-.646-.521-.161-1.041-.322-1.388-.484-.868-.161-1.736-.322-2.604-.806 0 0-.173 0-.173-.162-6.943-3.226-12.149-7.421-15.62-11.132-4.686-5.001-7.984-10.648-9.546-15.972-4.165-12.584-1.735-23.394-1.735-23.394s5.727-37.107 49.116-37.914c12.843.323 22.735 5.808 27.074 8.712-24.992 23.878-57.794 54.855-57.794 54.855s5.034 10.325 19.612 15.165c4.686-4.517 73.761-70.343 73.761-70.343s-6.595-10.97-15.794-17.263c-4.859-4.033-17.702-13.229-38.182-15.972-37.314-4.679-75.322 17.747-83.479 59.211-6.422 38.882 19.785 75.828 61.091 82.765 25.339 4.356 58.661-6.292 77.058-33.558-.347-.161-.521-.645-.694-1.613z" fill="#00747B"/><circle cx="377" cy="403" r="108.25" stroke="#fff" stroke-width="1.5" stroke-linecap="round" stroke-dasharray="5 5"/><defs><linearGradient id="paint0_linear" x1="210.502" y1="323.039" x2="213.685" y2="323.039" gradientUnits="userSpaceOnUse"><stop stop-color="#D9D9D9"/><stop offset=".565" stop-color="#CBCBCB"/><stop offset="1" stop-color="#8A8A8A"/></linearGradient><linearGradient id="paint1_linear" x1="209.547" y1="382.922" x2="213.684" y2="382.922" gradientUnits="userSpaceOnUse"><stop stop-color="#D9D9D9"/><stop offset=".565" stop-color="#CBCBCB"/><stop offset="1" stop-color="#8A8A8A"/></linearGradient><linearGradient id="paint2_linear" x1="209.547" y1="451.319" x2="213.684" y2="451.319" gradientUnits="userSpaceOnUse"><stop stop-color="#D9D9D9"/><stop offset=".565" stop-color="#CBCBCB"/><stop offset="1" stop-color="#8A8A8A"/></linearGradient><linearGradient id="paint3_linear" x1="535.495" y1="416.864" x2="531.357" y2="416.864" gradientUnits="userSpaceOnUse"><stop stop-color="#D9D9D9"/><stop offset=".565" stop-color="#CBCBCB"/><stop offset="1" stop-color="#8A8A8A"/></linearGradient><filter id="filter0_d" x="317.609" y="0" width="114.637" height="106.454" filterUnits="userSpaceOnUse" color-interpolation-filters="sRGB"><feFlood flood-opacity="0" result="BackgroundImageFix"/><feColorMatrix in="SourceAlpha" values="0 0 0 0 0 0 0 0 0 0 0 0 0 0 0 0 0 0 127 0"/><feMorphology radius="3" operator="dilate" in="SourceAlpha" result="effect1_dropShadow"/><feOffset dy="4"/><feGaussianBlur stdDeviation="7.5"/><feColorMatrix values="0 0 0 0 0 0 0 0 0 0 0 0 0 0 0 0 0 0 0.1 0"/><feBlend in2="BackgroundImageFix" result="effect1_dropShadow"/><feBlend in="SourceGraphic" in2="effect1_dropShadow" result="shape"/></filter><filter id="filter1_d" x=".475" y="258.024" width="99.449" height="100.214" filterUnits="userSpaceOnUse" color-interpolation-filters="sRGB"><feFlood flood-opacity="0" result="BackgroundImageFix"/><feColorMatrix in="SourceAlpha" values="0 0 0 0 0 0 0 0 0 0 0 0 0 0 0 0 0 0 127 0"/><feMorphology radius="3" operator="dilate" in="SourceAlpha" result="effect1_dropShadow"/><feOffset dy="4"/><feGaussianBlur stdDeviation="7.5"/><feColorMatrix values="0 0 0 0 0 0 0 0 0 0 0 0 0 0 0 0 0 0 0.1 0"/><feBlend in2="BackgroundImageFix" result="effect1_dropShadow"/><feBlend in="SourceGraphic" in2="effect1_dropShadow" result="shape"/></filter><filter id="filter2_d" x=".242" y="35.415" width="757.455" height="497.666" filterUnits="userSpaceOnUse" color-interpolation-filters="sRGB"><feFlood flood-opacity="0" result="BackgroundImageFix"/><feColorMatrix in="SourceAlpha" values="0 0 0 0 0 0 0 0 0 0 0 0 0 0 0 0 0 0 127 0"/><feOffset dx="2" dy="2"/><feGaussianBlur stdDeviation="5"/><feColorMatrix values="0 0 0 0 0 0 0 0 0 0 0 0 0 0 0 0 0 0 0.15 0"/><feBlend in2="BackgroundImageFix" result="effect1_dropShadow"/><feBlend in="SourceGraphic" in2="effect1_dropShadow" result="shape"/></filter><clipPath id="clip0"><path fill="#fff" transform="translate(351.596 23.53)" d="M0 0h46.917v52.048H0z"/></clipPath><clipPath id="clip1"><path fill="#fff" transform="rotate(-77.592 221.346 141.496)" d="M0 0h51.405v19.159H0z"/></clipPath></defs></svg>