<svg width="55" height="52" fill="none" xmlns="http://www.w3.org/2000/svg"><path d="M54.52 24.393L27.84 50.39l-.578.568-.471-.461L0 24.393l.02-12.768 27.216 26.831h.045l27.216-26.83.024 12.767z" fill="url(#paint0_linear)"/><path d="M54.52 33.182L36.05 51.134h8.747l9.724-9.582v-8.37z" fill="url(#paint1_linear)"/><path d="M0 33.182l18.471 17.952H9.724L0 41.552v-8.37z" fill="url(#paint2_linear)"/><path d="M34.346 4.8a.895.895 0 010 .135 2.425 2.425 0 01-1.14 2.06 2.424 2.424 0 01-2.587 0 2.424 2.424 0 01.593-4.39L27.499 0l-3.715 2.608a2.424 2.424 0 01.585 4.387 2.424 2.424 0 01-2.59 0 2.424 2.424 0 01-1.14-2.06.72.72 0 010-.125l-3.116 2.185.041.121.374 1.088.949 2.801h17.225l.467-1.354.87-2.535.041-.12L34.346 4.8z" fill="url(#paint3_linear)"/><path d="M30.91 14.198h-.038l.035-.003.003.003z" fill="url(#paint4_linear)"/><path d="M30.907 14.195l-.003.003h-.032l.035-.003z" fill="url(#paint5_linear)"/><path d="M36.652 17.917l-2.597-.762h-3.39l-.586-2.018 3.84 1.793-2.011-3.463-8.45 1.676-4.069-1.81 4.7 10.406-2.896 3.532.025.024 6.181 6.12 6.199-6.12-2.92-3.563 3.463-3.183 1.926-.61 1.416.541-.831-2.563z" fill="url(#paint6_linear)"/><path d="M20.518 27.648h-.041l.006-.01.01-.014.025.024z" fill="url(#paint7_linear)"/><defs><linearGradient id="paint0_linear" x1="59.539" y1="-11.078" x2="-3.106" y2="46.75" gradientUnits="userSpaceOnUse"><stop stop-color="#E1A94F"/><stop offset="1" stop-color="#BC834E"/></linearGradient><linearGradient id="paint1_linear" x1="4384.6" y1="693.636" x2="1131" y2="3783.97" gradientUnits="userSpaceOnUse"><stop stop-color="#E1A94F"/><stop offset="1" stop-color="#BC834E"/></linearGradient><linearGradient id="paint2_linear" x1="3356.63" y1="-350.632" x2="103.021" y2="2739.52" gradientUnits="userSpaceOnUse"><stop stop-color="#E1A94F"/><stop offset="1" stop-color="#BC834E"/></linearGradient><linearGradient id="paint3_linear" x1="5077.67" y1="3745.99" x2="3573.72" y2="6264.84" gradientUnits="userSpaceOnUse"><stop stop-color="#E1A94F"/><stop offset="1" stop-color="#BC834E"/></linearGradient><linearGradient id="paint4_linear" x1="34.272" y1="14.337" x2="34.272" y2="14.337" gradientUnits="userSpaceOnUse"><stop stop-color="#E1A94F"/><stop offset="1" stop-color="#BC834E"/></linearGradient><linearGradient id="paint5_linear" x1="33.962" y1="14.337" x2="33.962" y2="14.337" gradientUnits="userSpaceOnUse"><stop stop-color="#E1A94F"/><stop offset="1" stop-color="#BC834E"/></linearGradient><linearGradient id="paint6_linear" x1="3443.49" y1="8688.44" x2="2699.08" y2="9307.59" gradientUnits="userSpaceOnUse"><stop stop-color="#E1A94F"/><stop offset="1" stop-color="#BC834E"/></linearGradient><linearGradient id="paint7_linear" x1="22.939" y1="29.558" x2="22.936" y2="29.562" gradientUnits="userSpaceOnUse"><stop stop-color="#E1A94F"/><stop offset="1" stop-color="#BC834E"/></linearGradient></defs></svg>