<svg width="60" height="60" fill="none" xmlns="http://www.w3.org/2000/svg"><path d="M47.68 18.346c-3.07 0-5.73 1.893-6.806 4.555-.064.148-.254.71-.254.71L36.315 41h9.877c3.387 0 6.268-2.277 7.06-5.353l4.305-17.302H47.68z" fill="#16B14B"/><path d="M31.25 13.318c-3.293 0-6.079 2.1-6.965 4.94a4.873 4.873 0 00-.158.65L17.415 46h9.878c3.387 0 6.204-2.189 7.028-5.146l6.806-27.536H31.25z" fill="#F27227"/><path d="M12.35 18.346c-3.197 0-5.92 2.04-6.9 4.85-.032.06-.032.119-.064.178l-.158.592-4.21 17.006h10.098c3.008 0 5.604-1.863 6.617-4.496l.411-1.626 4.084-16.504h-9.877z" fill="#1169B0"/><path d="M10.514 23.995l-.158.03c-.696 0-1.361.237-1.963.71-.57.443-.981.976-1.108 1.449l-2.247 9.198h.126c.697 0 1.393-.236 1.995-.71.601-.473 1.013-1.035 1.171-1.685l.506-1.982h4.496c.696 0 1.393-.237 1.994-.71.602-.473 1.013-1.035 1.172-1.686l.031-.118H9.47l.475-1.893h6.11c.697 0 1.362-.237 1.963-.68.602-.473.982-1.035 1.14-1.686l.032-.118-8.675-.119zm24.947.562c-.38-.355-.886-.562-1.52-.562H25.3l-2.754 11.298v.03h.126c.729 0 1.393-.237 1.995-.71.601-.473 1.013-1.035 1.171-1.686l.507-2.01h5.983c.696 0 1.33-.09 1.931-.533.601-.444 1.045-1.183 1.203-1.864l.538-2.1c.032-.177.063-.325.063-.502 0-.533-.19-1.006-.601-1.36zm-2.69 3.845h-5.826l.475-1.893h5.825l-.475 1.893zm20.26-3.845c-.38-.355-.886-.562-1.488-.562h-9.117l-.032.09a3.08 3.08 0 00-.063.502c0 .562.19 1.006.57 1.39.38.355.886.562 1.52.562h1.899l-2.184 8.814h.126c.697 0 1.393-.237 1.995-.71.601-.474 1.013-1.035 1.17-1.686l1.584-6.418h4.495l.032-.089c.032-.177.063-.355.063-.503 0-.562-.19-1.035-.57-1.39z" fill="#fff"/><path d="M54.804 39.02c0-1.065.95-1.952 2.09-1.952 1.139 0 2.089.887 2.089 1.952s-.95 1.952-2.09 1.952c-1.171 0-2.09-.857-2.09-1.952zm3.672 0c0-.917-.697-1.568-1.583-1.568s-1.583.651-1.583 1.568.697 1.568 1.583 1.568c.855 0 1.583-.65 1.583-1.568zm-2.406-1.095h.886c.57 0 .887.178.887.651 0 .385-.222.562-.633.592l.633.976H57.4l-.602-.947h-.253v.947h-.443v-2.218h-.032zm.443.947h.38c.253 0 .475-.03.475-.325 0-.266-.253-.296-.475-.296h-.38v.621z" fill="#1169B0"/></svg>