<svg width="121" height="44" fill="none" xmlns="http://www.w3.org/2000/svg"><g clip-path="url(#clip0)"><path d="M59.425 6.77c-3.855 0-7.193 2.548-8.544 6.131-.08.2-.318.956-.318.956l-5.405 23.414h12.4c4.252 0 7.869-3.066 8.862-7.208L71.825 6.77h-12.4z" fill="#16B14B"/><path d="M38.799 0c-4.133 0-7.63 2.827-8.744 6.65a6.73 6.73 0 00-.198.876L21.43 44h12.4c4.252 0 7.79-2.947 8.823-6.928L51.199 0h-12.4z" fill="#F27227"/><path d="M15.072 6.77c-4.014 0-7.432 2.747-8.664 6.53-.04.08-.04.159-.08.239l-.198.796L.844 37.23h12.678c3.776 0 7.035-2.509 8.306-6.053l.517-2.19L27.472 6.77h-12.4z" fill="#1169B0"/><path d="M12.767 14.375l-.199.04c-.874 0-1.708.318-2.464.955-.715.597-1.232 1.314-1.39 1.951L5.891 29.705h.159c.874 0 1.748-.319 2.503-.956.755-.637 1.272-1.393 1.47-2.27l.637-2.667h5.643c.875 0 1.749-.319 2.504-.956.755-.637 1.272-1.394 1.47-2.27l.04-.159h-8.862l.596-2.548h7.67c.874 0 1.71-.319 2.464-.916.755-.637 1.232-1.394 1.43-2.27l.04-.16-10.889-.158zm31.318.756c-.477-.478-1.113-.756-1.908-.756h-10.85l-3.457 15.21v.04h.159c.914 0 1.748-.318 2.503-.955.756-.637 1.272-1.394 1.47-2.27l.637-2.708h7.511c.875 0 1.67-.12 2.425-.716.755-.598 1.311-1.593 1.51-2.51l.675-2.826c.04-.24.08-.438.08-.677 0-.717-.239-1.354-.755-1.832zm-3.378 5.177h-7.313l.596-2.549h7.313l-.596 2.549zm25.435-5.177c-.477-.478-1.113-.756-1.868-.756H52.828l-.04.12c-.04.238-.079.477-.079.676 0 .757.238 1.354.715 1.872.477.477 1.113.756 1.908.756h2.385l-2.743 11.866h.16c.874 0 1.748-.318 2.503-.956.755-.637 1.272-1.393 1.47-2.27l1.988-8.64h5.643l.04-.12c.04-.238.08-.477.08-.676 0-.757-.239-1.394-.716-1.872z" fill="#fff"/><path d="M68.368 34.603c0-1.434 1.192-2.628 2.623-2.628 1.43 0 2.623 1.194 2.623 2.628 0 1.433-1.193 2.628-2.623 2.628a2.598 2.598 0 01-2.623-2.628zm4.61 0c0-1.235-.874-2.11-1.987-2.11s-1.987.875-1.987 2.11c0 1.234.874 2.11 1.987 2.11 1.073 0 1.987-.876 1.987-2.11zm-3.02-1.474h1.112c.716 0 1.113.24 1.113.876 0 .518-.278.757-.795.797l.795 1.314h-.556l-.755-1.274h-.319v1.274h-.556v-2.987h-.04zm.556 1.275h.477c.318 0 .596-.04.596-.438 0-.359-.318-.399-.596-.399h-.477v.837z" fill="#1169B0"/><path d="M86.967 27.993c-.795 1.194-1.947 1.752-3.418 1.752-1.47 0-2.583-.598-3.418-1.752-.755-1.075-1.112-2.509-1.112-4.3 0-1.793.357-3.226 1.112-4.301.795-1.155 1.948-1.752 3.418-1.752 1.47 0 2.583.597 3.418 1.752.755 1.075 1.113 2.508 1.113 4.3 0 1.792-.358 3.186-1.113 4.3zm-1.39-7.486c-.478-.837-1.153-1.235-1.988-1.235s-1.51.399-2.027 1.235c-.437.796-.675 1.871-.675 3.185s.238 2.39.675 3.186c.477.836 1.153 1.234 2.027 1.234.835 0 1.51-.398 1.987-1.234.437-.797.676-1.872.676-3.186 0-1.314-.199-2.389-.676-3.185zm8.981 9.039v-5.814c0-1.115-.596-1.672-1.828-1.672-.636 0-1.192.08-1.59.278v7.247h-1.748v-8.322c.993-.398 2.106-.597 3.338-.597 2.424 0 3.617.956 3.617 2.907v6.012h-1.789v-.04zm3.378 0V16.804h1.788v12.742h-1.788zm5.047-10.592c-.198.199-.437.279-.755.279-.278 0-.556-.08-.755-.28-.198-.198-.318-.437-.318-.716 0-.279.12-.518.318-.717.199-.199.437-.278.755-.278.279 0 .557.08.755.278.199.2.318.438.318.717 0 .279-.119.518-.318.717zm-1.629 10.592v-8.76h1.788v8.76h-1.788zm8.545 0v-5.814c0-1.115-.596-1.672-1.828-1.672-.636 0-1.192.08-1.59.278v7.247h-1.749v-8.322c.994-.398 2.107-.597 3.339-.597 2.424 0 3.616.956 3.616 2.907v6.012h-1.788v-.04zm10.532-4.38l-5.803.796c.199 1.593 1.073 2.35 2.663 2.35.954 0 1.749-.16 2.424-.518l.517 1.314c-.795.398-1.789.597-3.06.597-1.352 0-2.425-.398-3.18-1.234-.755-.797-1.113-1.912-1.113-3.305 0-1.354.358-2.43 1.034-3.266.715-.836 1.669-1.274 2.901-1.274 1.113 0 1.987.359 2.663 1.035.636.677.954 1.633.954 2.788.039.318 0 .557 0 .717zm-1.67-.956c0-1.513-.675-2.27-1.947-2.27-.676 0-1.232.24-1.63.757-.437.518-.635 1.194-.635 2.11l4.212-.597z" fill="#1268B1"/></g><defs><clipPath id="clip0"><path fill="#fff" transform="translate(.844)" d="M0 0h119.626v44H0z"/></clipPath></defs></svg>