<svg width="142" height="47" fill="none" xmlns="http://www.w3.org/2000/svg"><path d="M64.235 30.267c-1.22-1.508-2.848-2.262-4.83-2.262-1.577 0-2.849.553-3.815 1.608-.966 1.056-1.474 2.413-1.474 4.121 0 1.709.508 3.116 1.474 4.222.966 1.055 2.187 1.608 3.712 1.608 2.238 0 3.916-.854 5.035-2.513l4.27 2.865c-.914 1.508-2.186 2.664-3.864 3.518-1.627.804-3.56 1.256-5.746 1.256-2.186 0-4.119-.452-5.746-1.357-1.678-.904-2.949-2.16-3.915-3.82-.916-1.658-1.373-3.567-1.373-5.678 0-2.161.457-4.071 1.373-5.73.966-1.658 2.237-2.965 3.915-3.87 1.678-.954 3.661-1.406 5.848-1.406 2.085 0 3.915.402 5.543 1.206a9.145 9.145 0 013.864 3.317l-4.271 2.915zm8.443-17.892h6.203V44.39h-6.203V12.375zM85.137 22.98h6.203v21.459h-6.203v-21.46zm26.645 7.287c-1.221-1.508-2.848-2.262-4.831-2.262-1.576 0-2.848.553-3.814 1.608-.966 1.056-1.474 2.413-1.474 4.121 0 1.709.508 3.116 1.474 4.222.966 1.055 2.187 1.608 3.712 1.608 2.238 0 3.916-.854 5.034-2.513l4.272 2.865c-.916 1.508-2.187 2.664-3.865 3.518-1.627.804-3.559 1.256-5.746 1.256-2.186 0-4.119-.452-5.746-1.357-1.678-.904-2.95-2.16-3.915-3.82-.916-1.658-1.373-3.567-1.373-5.678 0-2.161.457-4.071 1.373-5.73.966-1.658 2.237-2.965 3.915-3.87 1.678-.954 3.661-1.406 5.848-1.406 2.085 0 3.915.402 5.542 1.206a9.14 9.14 0 013.865 3.317l-4.271 2.915zm22.679 14.122l-5.238-8.745-2.797 2.915v5.83h-6.203V12.024h6.203V31.07l7.933-8.091h7.068l-7.933 8.292 8.289 13.167h-7.322v-.05z" fill="gray"/><path d="M90.629 13.18c-.61-.654-1.424-.956-2.44-.956-.967 0-1.78.302-2.442.955-.61.654-.915 1.458-.915 2.463 0 1.005.305 1.81.915 2.462.661.654 1.475.955 2.441.955 1.017 0 1.78-.301 2.44-.955.662-.653.967-1.457.967-2.462 0-1.005-.356-1.86-.966-2.463z" fill="#80C6C6"/><path d="M43.541 34.987c0-.05-.05-.05-.05-.1 0 0 0-.05-.052-.05a3.595 3.595 0 00-.813-1.257l-.051-.05-.153-.151c-.406-.402-.966-.804-1.729-1.156a2.801 2.801 0 00-.712-.251c-.305-.05-.61-.1-.915-.1-.356 0-.712 0-1.017.05h-.102c-.05 0-.152 0-.203.05a5.526 5.526 0 00-3.254 1.96l-.102.1-.203.201c-.763.754-1.577 1.357-2.238 1.81-.762.452-1.627.904-2.644 1.306h-.05c-.764.302-1.628.553-2.492.754-2.543.553-4.933.352-6.916-.15-.203-.051-.458-.152-.661-.202-.203-.05-.407-.15-.61-.2-.153-.051-.305-.101-.407-.152-.254-.1-.509-.2-.763-.352 0 0-.05 0-.05-.05a15.855 15.855 0 01-4.831-3.518c-1.424-1.608-2.441-3.367-2.95-5.076-1.27-4.02-.559-7.438-.559-7.438s1.78-11.81 15.153-12.061c3.966.1 7.017 1.86 8.34 2.764-7.679 7.589-17.798 17.439-17.798 17.439s1.577 3.267 6.051 4.825c1.475-1.408 22.781-22.365 22.781-22.365S41.507 8.1 38.659 6.09c-1.525-1.306-5.491-4.221-11.797-5.075C15.37-.444 3.624 6.693 1.082 19.86-.902 32.223 7.183 43.933 19.947 46.144c7.83 1.407 18.102-2.01 23.797-10.654-.05-.05-.101-.202-.203-.503z" fill="#00747B"/></svg>