<svg width="144" height="53" fill="none" xmlns="http://www.w3.org/2000/svg"><path d="M17.243 8.154c-4.818 0-8.92 3.31-10.399 7.866-.047.096-.047.192-.095.288l-.239.959-6.344 27.58h15.217c4.532 0 8.443-3.023 9.97-7.291l.62-2.638 6.153-26.764H17.243zm8.491 12.087c-.906.767-1.908 1.103-2.957 1.103H13.57l-.763 3.117h10.637l-.047.192c-.239 1.056-.811 1.967-1.765 2.734-.907.768-1.956 1.151-3.006 1.151h-6.773l-.716 3.262a4.65 4.65 0 01-1.765 2.734c-.906.767-1.955 1.151-3.005 1.151h-.19l3.386-14.917c.191-.72.763-1.582 1.67-2.35.906-.767 1.908-1.151 2.957-1.151h.287v-.048h13.022l-.048.192c-.238 1.151-.81 2.11-1.717 2.83zm13.5 4.221h8.777l.715-3.07H39.95l-.715 3.07z" fill="#fff"/><path d="M45.721 0c-4.96 0-9.159 3.405-10.494 8.01a8.38 8.38 0 00-.239 1.055L24.875 53h14.883c5.104 0 9.35-3.55 10.59-8.346L60.604 0H45.721zm6.344 24.653a5.69 5.69 0 01-1.812 3.022c-.907.72-1.86.863-2.91.863h-9.016l-.763 3.262a4.65 4.65 0 01-1.765 2.734c-.906.767-1.956 1.151-3.005 1.151h-.19v-.048l4.197-18.37h13.022c.907 0 1.67.288 2.29.911.572.576.859 1.343.859 2.207 0 .287-.048.575-.096.815l-.81 3.453zM85.361 8.154H70.478c-4.627 0-8.634 3.07-10.255 7.386-.096.24-.382 1.151-.382 1.151l-6.488 28.203h14.883c5.105 0 9.445-3.693 10.638-8.681l6.487-28.06zm-12.88 13.238L70.098 31.8a4.651 4.651 0 01-1.765 2.734c-.906.767-1.956 1.151-3.005 1.151h-.191l3.291-14.293h-2.862c-.906 0-1.67-.288-2.29-.912-.572-.575-.858-1.343-.858-2.254 0-.24.047-.527.095-.815l.048-.144h13.738c.906 0 1.67.288 2.242.911.572.576.859 1.343.859 2.207 0 .287-.048.575-.096.815l-.047.144h-6.774v.048zm8.73 20.288c0-1.726 1.431-3.165 3.149-3.165 1.717 0 3.148 1.439 3.148 3.165 0 1.727-1.431 3.166-3.148 3.166-1.765 0-3.149-1.391-3.149-3.166zm5.534 0c0-1.487-1.05-2.542-2.385-2.542-1.336 0-2.385 1.055-2.385 2.542 0 1.487 1.05 2.542 2.385 2.542 1.288 0 2.385-1.055 2.385-2.542zm-3.626-1.774h1.336c.859 0 1.336.287 1.336 1.055 0 .623-.334.911-.954.96l.954 1.582h-.668l-.906-1.535h-.382v1.535h-.668v-3.597h-.047zm.668 1.534h.573c.381 0 .715-.047.715-.527 0-.432-.381-.48-.715-.48h-.573v1.007zm19.748-7.721c-.954 1.438-2.337 2.11-4.102 2.11-1.765 0-3.1-.72-4.102-2.11-.907-1.295-1.336-3.022-1.336-5.18 0-2.159.43-3.886 1.336-5.18.954-1.392 2.337-2.111 4.102-2.111 1.765 0 3.101.72 4.102 2.11.907 1.296 1.336 3.022 1.336 5.18 0 2.159-.429 3.838-1.336 5.18zm-1.669-9.018c-.573-1.007-1.383-1.486-2.385-1.486-1.002 0-1.813.48-2.433 1.486-.525.96-.81 2.255-.81 3.837 0 1.583.285 2.878.81 3.838.572 1.007 1.383 1.486 2.433 1.486 1.002 0 1.812-.48 2.385-1.486.525-.96.811-2.255.811-3.837 0-1.583-.239-2.878-.811-3.838zm10.781 10.888v-7.003c0-1.343-.716-2.014-2.195-2.014-.763 0-1.431.096-1.908.335v8.73h-2.099V25.613c1.193-.48 2.528-.72 4.007-.72 2.91 0 4.341 1.151 4.341 3.501v7.243h-2.146v-.048zm4.054 0V20.24h2.147v15.35h-2.147zm6.058-12.759c-.238.24-.524.336-.906.336-.334 0-.668-.096-.906-.335-.239-.24-.382-.528-.382-.864 0-.336.143-.623.382-.863.238-.24.524-.336.906-.336.334 0 .668.096.906.336.239.24.382.527.382.863 0 .336-.143.624-.382.864zm-1.956 12.759V25.037h2.147v10.552h-2.147zm10.257 0v-7.003c0-1.343-.716-2.014-2.195-2.014-.763 0-1.431.096-1.908.335v8.73h-2.099V25.613c1.193-.48 2.529-.72 4.007-.72 2.91 0 4.341 1.151 4.341 3.501v7.243h-2.146v-.048zm12.64-5.276l-6.964.96c.238 1.918 1.288 2.83 3.196 2.83 1.144 0 2.098-.193 2.909-.624l.621 1.583c-.955.48-2.147.719-3.673.719-1.622 0-2.91-.48-3.817-1.487-.906-.96-1.335-2.302-1.335-3.98 0-1.632.429-2.927 1.24-3.934.859-1.007 2.003-1.535 3.482-1.535 1.336 0 2.385.432 3.196 1.247.763.816 1.145 1.967 1.145 3.358.048.383 0 .671 0 .863zm-2.003-1.151c0-1.823-.811-2.734-2.338-2.734-.811 0-1.479.288-1.956.911-.524.624-.763 1.44-.763 2.542l5.057-.719z" fill="#fff"/></svg>