<svg width="120" height="44" fill="none" xmlns="http://www.w3.org/2000/svg"><g clip-path="url(#clip0)"><path d="M58.631 6.77c-3.855 0-7.194 2.548-8.545 6.131-.08.2-.318.956-.318.956l-5.405 23.414h12.4c4.253 0 7.87-3.066 8.863-7.208L71.03 6.77h-12.4z" fill="#16B14B"/><path d="M38.004 0c-4.133 0-7.63 2.827-8.743 6.65-.08.279-.159.597-.199.876L20.637 44h12.4c4.252 0 7.79-2.947 8.822-6.928L50.404 0h-12.4z" fill="#F27227"/><path d="M14.279 6.77c-4.014 0-7.432 2.747-8.664 6.53-.04.08-.04.159-.08.239l-.198.796L.05 37.23h12.678c3.775 0 7.034-2.509 8.306-6.053l.517-2.19L26.679 6.77h-12.4z" fill="#1169B0"/><path d="M11.973 14.374l-.199.04c-.874 0-1.708.319-2.464.956-.715.597-1.232 1.314-1.39 1.951L5.097 29.705h.159c.874 0 1.748-.319 2.503-.956.756-.637 1.272-1.393 1.47-2.27l.637-2.667h5.643c.875 0 1.749-.319 2.504-.956.755-.637 1.272-1.394 1.47-2.27l.04-.159h-8.862l.596-2.548h7.67c.874 0 1.71-.319 2.464-.916.755-.637 1.232-1.394 1.431-2.27l.04-.16-10.89-.159zm31.318.757c-.477-.478-1.112-.757-1.907-.757h-10.85l-3.458 15.211v.04h.16c.913 0 1.748-.318 2.503-.956.755-.637 1.272-1.393 1.47-2.27l.636-2.707h7.512c.874 0 1.669-.12 2.424-.717.755-.597 1.312-1.592 1.51-2.508l.676-2.827c.04-.24.08-.438.08-.677 0-.717-.24-1.354-.756-1.832zm-3.378 5.177H32.6l.597-2.549h7.312l-.596 2.549zm25.437-5.177a2.578 2.578 0 00-1.869-.757H52.035l-.04.12c-.04.239-.079.478-.079.677 0 .757.239 1.354.715 1.871.477.478 1.113.757 1.908.757h2.385L54.18 29.665h.16c.874 0 1.748-.319 2.503-.956.755-.637 1.272-1.393 1.47-2.27l1.988-8.64h5.643l.04-.12c.04-.238.08-.477.08-.676 0-.757-.239-1.394-.716-1.872zm2.224 19.472c0-1.434 1.192-2.628 2.623-2.628 1.431 0 2.623 1.194 2.623 2.628 0 1.433-1.192 2.628-2.623 2.628a2.598 2.598 0 01-2.623-2.628zm4.61 0c0-1.235-.874-2.11-1.987-2.11-1.112 0-1.987.875-1.987 2.11 0 1.234.875 2.11 1.987 2.11 1.073 0 1.987-.876 1.987-2.11zm-3.02-1.474h1.113c.715 0 1.112.24 1.112.876 0 .518-.278.757-.794.797l.794 1.314h-.556l-.755-1.274h-.318v1.274h-.556v-2.987h-.04zm.556 1.275h.477c.318 0 .596-.04.596-.438 0-.359-.318-.399-.596-.399h-.477v.837zm16.453-6.411c-.795 1.194-1.947 1.752-3.418 1.752-1.47 0-2.583-.597-3.418-1.752-.755-1.075-1.112-2.509-1.112-4.3 0-1.793.357-3.226 1.112-4.301.795-1.155 1.948-1.752 3.418-1.752 1.47 0 2.584.597 3.418 1.752.755 1.075 1.113 2.509 1.113 4.3 0 1.792-.358 3.186-1.113 4.3zm-1.39-7.486c-.478-.836-1.153-1.235-1.988-1.235s-1.51.399-2.027 1.235c-.437.796-.675 1.871-.675 3.185s.238 2.39.675 3.186c.477.836 1.153 1.234 2.027 1.234.835 0 1.51-.398 1.987-1.234.437-.797.676-1.872.676-3.186 0-1.314-.199-2.389-.676-3.185zm8.981 9.039v-5.814c0-1.115-.596-1.672-1.828-1.672-.636 0-1.192.08-1.59.279v7.247h-1.748v-8.322c.993-.399 2.106-.598 3.338-.598 2.424 0 3.617.956 3.617 2.907v6.013h-1.789v-.04zm3.379 0V16.804h1.788v12.742h-1.788zm5.047-10.592c-.199.199-.438.279-.756.279-.278 0-.556-.08-.755-.28-.198-.198-.318-.437-.318-.716 0-.279.12-.517.318-.717.199-.199.437-.278.755-.278.279 0 .557.08.756.278.198.2.317.438.317.717 0 .279-.119.518-.317.717zm-1.63 10.592v-8.76h1.788v8.76h-1.788zm8.544 0v-5.814c0-1.115-.596-1.672-1.828-1.672-.636 0-1.192.08-1.59.279v7.247h-1.748v-8.322c.993-.399 2.106-.598 3.338-.598 2.424 0 3.616.956 3.616 2.907v6.013h-1.788v-.04zm10.533-4.38l-5.802.796c.198 1.593 1.073 2.35 2.662 2.35.954 0 1.749-.16 2.425-.518l.516 1.314c-.794.398-1.788.597-3.06.597-1.351 0-2.424-.398-3.179-1.234-.755-.797-1.113-1.912-1.113-3.305 0-1.354.358-2.43 1.033-3.266.716-.836 1.669-1.274 2.901-1.274 1.113 0 1.988.359 2.663 1.035.636.677.954 1.633.954 2.788.04.318 0 .557 0 .717zm-1.669-.956c0-1.513-.676-2.27-1.948-2.27-.675 0-1.232.24-1.629.757-.437.518-.636 1.194-.636 2.11l4.213-.597z" fill="#fff"/></g><defs><clipPath id="clip0"><path fill="#fff" transform="translate(.05)" d="M0 0h119.626v44H0z"/></clipPath></defs></svg>