<svg width="142" height="49" fill="none" xmlns="http://www.w3.org/2000/svg"><path d="M69.56 7.441c-4.544 0-8.48 2.802-10.073 6.741-.094.22-.375 1.05-.375 1.05l-6.372 25.74h14.618c5.013 0 9.277-3.37 10.448-7.923l6.372-25.607H69.56zM45.243 0c-4.873 0-8.996 3.108-10.307 7.31a7.208 7.208 0 00-.235.963L24.77 48.368h14.618c5.013 0 9.183-3.239 10.4-7.616L59.862 0H45.243zm-27.97 7.441c-4.732 0-8.761 3.02-10.214 7.179-.046.088-.046.175-.093.263l-.235.875L.5 40.927h14.946c4.45 0 8.293-2.758 9.792-6.653l.61-2.408L31.89 7.441H17.273z" fill="#fff"/><path d="M14.555 15.8l-.235.045c-1.03 0-2.014.35-2.904 1.05-.844.657-1.453 1.445-1.64 2.145L6.449 32.653h.188c1.03 0 2.061-.35 2.951-1.05.89-.7 1.5-1.533 1.734-2.495l.75-2.933h6.653c1.03 0 2.061-.35 2.951-1.05.89-.701 1.5-1.533 1.734-2.496l.047-.175H13.009l.702-2.801h9.043c1.03 0 2.015-.35 2.905-1.007.89-.7 1.452-1.532 1.686-2.495l.047-.175-12.837-.175zm36.92.833c-.562-.526-1.312-.832-2.249-.832h-12.79l-4.077 16.72v.044h.188c1.077 0 2.061-.35 2.952-1.05.89-.7 1.499-1.532 1.733-2.495l.75-2.977h8.855c1.03 0 1.968-.13 2.858-.787.89-.657 1.546-1.751 1.78-2.758l.797-3.108c.047-.262.093-.481.093-.744 0-.788-.28-1.488-.89-2.014zm-3.982 5.69h-8.621l.703-2.802h8.62l-.702 2.802zm29.987-5.69c-.563-.526-1.312-.832-2.202-.832H61.784l-.047.131c-.047.263-.093.525-.093.744 0 .832.28 1.489.843 2.058.562.525 1.312.831 2.249.831h2.811L64.314 32.61h.188c1.03 0 2.061-.35 2.951-1.05.89-.7 1.5-1.532 1.734-2.495l2.342-9.499h6.654l.046-.131c.047-.263.094-.525.094-.744 0-.832-.281-1.532-.843-2.058z" fill="#1169B0"/><path d="M80.103 38.038c0-1.576 1.406-2.89 3.093-2.89 1.686 0 3.092 1.314 3.092 2.89s-1.406 2.89-3.092 2.89c-1.734 0-3.093-1.27-3.093-2.89zm5.435 0c0-1.357-1.03-2.32-2.342-2.32s-2.343.963-2.343 2.32c0 1.357 1.03 2.32 2.343 2.32 1.265 0 2.342-.963 2.342-2.32zm-3.56-1.62h1.312c.843 0 1.311.263 1.311.963 0 .57-.328.832-.937.876l.937 1.445h-.656l-.89-1.401h-.375v1.4h-.656v-3.283h-.046zm.656 1.401h.562c.375 0 .703-.044.703-.482 0-.394-.375-.437-.703-.437h-.562v.92zm19.395-7.044c-.937 1.313-2.296 1.926-4.03 1.926-1.733 0-3.045-.656-4.029-1.926-.89-1.182-1.312-2.757-1.312-4.727 0-1.97.422-3.546 1.312-4.727.937-1.27 2.296-1.927 4.03-1.927 1.733 0 3.045.657 4.029 1.927.89 1.181 1.312 2.757 1.312 4.727 0 1.97-.422 3.502-1.312 4.727zm-1.64-8.229c-.562-.92-1.359-1.357-2.343-1.357s-1.78.438-2.39 1.357c-.515.876-.796 2.057-.796 3.502 0 1.444.281 2.626.797 3.502.562.919 1.359 1.357 2.39 1.357.983 0 1.78-.438 2.342-1.357.515-.876.796-2.058.796-3.502 0-1.445-.234-2.626-.796-3.502zm10.589 9.934v-6.39c0-1.226-.703-1.84-2.156-1.84-.749 0-1.405.088-1.874.307v7.967h-2.061v-9.149c1.171-.437 2.483-.656 3.935-.656 2.858 0 4.264 1.05 4.264 3.195v6.61h-2.108v-.044zm3.983 0V18.473h2.108V32.48h-2.108zm5.949-11.64c-.234.218-.515.306-.89.306-.328 0-.656-.088-.89-.307-.235-.219-.375-.481-.375-.788 0-.306.14-.569.375-.788.234-.218.515-.306.89-.306.328 0 .656.088.89.306.234.22.375.482.375.788 0 .307-.141.57-.375.788zm-1.921 11.643v-9.63h2.109v9.63h-2.109zm10.073-.003v-6.39c0-1.226-.703-1.84-2.156-1.84-.749 0-1.405.088-1.874.307v7.967h-2.061v-9.149c1.171-.437 2.483-.656 3.935-.656 2.858 0 4.264 1.05 4.264 3.195v6.61h-2.108v-.044zm12.417-4.814l-6.84.875c.234 1.751 1.265 2.583 3.139 2.583 1.124 0 2.061-.175 2.858-.57l.609 1.445c-.937.438-2.108.657-3.608.657-1.593 0-2.858-.438-3.748-1.357-.89-.876-1.312-2.101-1.312-3.633 0-1.489.422-2.67 1.218-3.59.844-.919 1.968-1.4 3.421-1.4 1.311 0 2.342.394 3.139 1.138.749.744 1.124 1.794 1.124 3.064.047.35 0 .613 0 .788zm-1.968-1.05c0-1.664-.796-2.496-2.295-2.496-.797 0-1.453.263-1.921.832-.516.569-.75 1.313-.75 2.32l4.966-.657z" fill="#fff"/></svg>