<svg width="54" height="63" fill="none" xmlns="http://www.w3.org/2000/svg"><path fill-rule="evenodd" clip-rule="evenodd" d="M20.923 53.26c.379 0 .686.308.686.687v8.152a.686.686 0 11-1.373 0v-8.152c0-.38.308-.687.687-.687z" fill="#fff"/><path d="M26.02 62.565h12.743c3.055 0 3.055-2.384 2.932-5.44-.165-4.151.972-9.865.027-13.482-1.384-5.371 7.536-4.96 8.139-15.524v.137c0-13.112-9.44-20.758-20.703-20.758-11.277 0-20.416 8.152-20.416 18.21 0 2.808.15 4.795 1.425 7.166l2.96.3s-1.33 6.016 1.973 8.441c3.302 2.425 1.658 7.865 4.357 8.577 2.7.713 5.7-3.576 5.7-3.576s1.15 12.36.863 15.949z" fill="#F8A87A"/><path fill-rule="evenodd" clip-rule="evenodd" d="M5.974 22.104c0 3.13.166 5.197 1.48 7.686a.822.822 0 01-1.453.768c-1.508-2.854-1.67-5.254-1.67-8.454v-.001C4.343 10.259 14.885.798 27.732.798c12.826 0 25.443 9.198 25.443 24.512v.008c-.055 5.526-1.062 11.027-5.795 15.973v20.205a.822.822 0 01-1.645 0V40.62l.237-.24c4.516-4.581 5.505-9.676 5.56-15.074-.003-14.224-11.691-22.864-23.8-22.864-12.091 0-21.745 8.871-21.759 19.662zm18.923 29.161a.822.822 0 01-.045 1.161c-2.941 2.72-7.028 3.515-10.295 3.603a22.775 22.775 0 01-4.216-.27 11.019 11.019 0 01-1.345-.296 3.342 3.342 0 01-.469-.175 1.405 1.405 0 01-.237-.142.933.933 0 01-.328-.446.822.822 0 011.33-.872c.04.015.098.036.18.061.254.077.64.166 1.137.248.99.164 2.366.29 3.903.248 3.104-.083 6.711-.843 9.223-3.166a.822.822 0 011.162.046zM9.235 53.804h.003-.003z" fill="#fff"/><path fill-rule="evenodd" clip-rule="evenodd" d="M6.443 30.299a.822.822 0 011.392.874l-.696-.437.696.437-.026.042-.076.12-.296.462c-.26.406-.645 1-1.145 1.758a279.522 279.522 0 01-4.289 6.311v.002c-.394.56-.369.826-.347.907.023.086.119.248.487.43.755.376 2.012.52 3.055.562h.024l.024.003c.233.023.443.055.627.102.174.044.377.114.557.242.198.141.392.373.44.702a1.11 1.11 0 01-.13.68c-.133.25-.36.478-.498.615l-.01.011-.072.071c-.067.067-.128.128-.184.187.063.069.153.153.272.25a5.721 5.721 0 00.804.534l.057.031.01.006.003.001.002.001.393.207.16 1.65-.086.187a.368.368 0 00-.02.145.071.071 0 00.022.045c.018.02.094.093.316.16h.003l.004.001c.686.212 1.054.795 1.255 1.312.207.531.31 1.17.366 1.797.086.975.067 2.091.05 3.01-.004.261-.008.507-.01.728a.822.822 0 01-1.644-.01c.002-.258.007-.53.012-.808.015-.907.032-1.896-.046-2.775-.05-.572-.137-1.03-.26-1.345a1.038 1.038 0 00-.16-.295.224.224 0 00-.048-.043c-.44-.132-.798-.341-1.06-.632a1.712 1.712 0 01-.429-.925 1.954 1.954 0 01.06-.791l-.038-.39a7.298 7.298 0 01-.747-.52c-.257-.208-.57-.498-.768-.844a1.494 1.494 0 01-.207-.697 1.26 1.26 0 01.28-.828l.003-.003.002-.003c.042-.051.086-.102.13-.151-1.006-.066-2.3-.238-3.244-.706-.56-.278-1.147-.736-1.346-1.48-.2-.75.064-1.527.589-2.275a277.678 277.678 0 004.263-6.273 182.648 182.648 0 001.5-2.314l.024-.038zm-.572 13.94z" fill="#fff"/><path d="M36.377 30.078c-2.11 0-3.836-.657-4.7-1.822a5.627 5.627 0 00-1.562-1.411c-1.589.644-3.37.986-5.192.986-6.111 0-11.099-3.809-11.099-8.495v-.11c-.055-1.973 1.096-4.151 3.152-5.96C20.88 9.827 27.183 8.32 33.829 9.211c5.124.685 8.727 2.575 10.714 5.617 2.85 4.344 1.33 9.4 1.26 9.605-1.205 3.426-4.973 5.125-7.823 5.536-.534.068-1.082.11-1.603.11z" fill="#F27227"/><path d="M37.282 13.554c0-.082-.013-.15-.013-.233-.178-1.63-1.508-2.904-3.097-2.987-1.26-.068-2.384.603-2.987 1.63-.603-1.027-1.726-1.698-3-1.63-1.604.096-2.933 1.398-3.083 3.056-.041.438 0 .85.11 1.247.068.246.191.466.355.644l5.577 5.85 5.412-5.686a2.496 2.496 0 00.726-1.89z" fill="#F5FAFC"/><path d="M38.351 14.39c0-.069-.014-.15-.014-.22-.164-1.589-1.411-2.835-2.904-2.918-1.179-.068-2.467 1.137-3.029 2.138-.561-1-1.397-2.206-2.59-2.124-1.506.082-2.753 1.37-2.89 2.973-.041.425 0 .836.11 1.22.068.233.178.452.342.616l5.234 5.7 5.07-5.535a2.597 2.597 0 00.671-1.85z" fill="#F8A87A"/><path fill-rule="evenodd" clip-rule="evenodd" d="M31.143 10.613c.788-.853 1.908-1.37 3.159-1.307 2.046.101 3.687 1.81 3.896 3.892l.003.034v.035c0 .007 0 .02.005.066v.006a3.558 3.558 0 01-.922 2.703v.001l-6.18 6.777-6.357-6.951a2.35 2.35 0 01-.543-.99v-.003l-.002-.004a4.816 4.816 0 01-.127-1.595c.176-2.112 1.816-3.852 3.877-3.97 1.266-.077 2.4.448 3.191 1.306zm-.598 1.496c-.517-.921-1.46-1.496-2.511-1.432h-.003c-1.31.075-2.463 1.211-2.589 2.715v.002c-.034.4 0 .774.09 1.14a.98.98 0 00.223.403l.001.002 5.346 5.846 5.163-5.663h.002a2.185 2.185 0 00.576-1.572v-.037l-.005-.066v-.006a2.222 2.222 0 01-.009-.133c-.159-1.466-1.306-2.567-2.595-2.63h-.002c-1.042-.055-1.974.51-2.49 1.43l-.599 1.068-.598-1.067zm4.216 18.586h1.234v4.042c0 1.445-1.334 2.439-2.754 2.439h-7.317c-.933 0-1.52.633-1.52 1.206v.26c0 .583.584 1.205 1.52 1.205h14.181c1.424 0 2.754 1.011 2.754 2.44 0 1.444-1.333 2.438-2.754 2.438h-11.29c-.933 0-1.52.634-1.52 1.206v.137c0 .583.584 1.206 1.52 1.206h8.851v6.864h-1.233v-5.631h-7.618c-1.42 0-2.754-.994-2.754-2.439v-.137c0-1.428 1.33-2.439 2.754-2.439h11.29c.936 0 1.521-.623 1.521-1.206 0-.572-.588-1.205-1.52-1.205H25.923c-1.42 0-2.754-.994-2.754-2.44v-.26c0-1.428 1.33-2.438 2.754-2.438h7.317c.935 0 1.52-.623 1.52-1.206v-4.042z" fill="#fff"/><path d="M31.268 31.6h8.001l-4-6.55-4.001 6.55z" fill="#fff"/></svg>