<svg width="54" height="63" fill="none" xmlns="http://www.w3.org/2000/svg"><path fill-rule="evenodd" clip-rule="evenodd" d="M20.923 53.26c.379 0 .686.308.686.687v8.152a.686.686 0 11-1.373 0v-8.152c0-.38.308-.687.687-.687z" fill="#fff"/><path opacity=".62" d="M26.02 62.565h12.742c3.056 0 3.056-2.384 2.932-5.44-.164-4.151.973-9.865.028-13.482-1.384-5.371 7.536-4.96 8.139-15.524v.137c0-13.113-9.44-20.758-20.704-20.758-11.276 0-20.415 8.152-20.415 18.21 0 2.808.15 4.795 1.425 7.165l2.96.302s-1.33 6.015 1.973 8.44c3.302 2.425 1.657 7.865 4.357 8.577 2.699.713 5.7-3.576 5.7-3.576s1.15 12.359.863 15.949z" fill="#22D2FF"/><path fill-rule="evenodd" clip-rule="evenodd" d="M5.974 22.104c0 3.13.166 5.197 1.48 7.686a.822.822 0 01-1.453.768c-1.508-2.854-1.67-5.254-1.67-8.454v-.001C4.343 10.259 14.885.798 27.732.798c12.826 0 25.443 9.198 25.443 24.512v.008c-.055 5.526-1.062 11.027-5.795 15.973v20.205a.822.822 0 01-1.645 0V40.62l.237-.24c4.516-4.581 5.505-9.676 5.56-15.074-.003-14.224-11.691-22.864-23.8-22.864-12.091 0-21.745 8.871-21.759 19.662zm18.923 29.161a.822.822 0 01-.045 1.161c-2.941 2.72-7.028 3.515-10.295 3.603a22.784 22.784 0 01-4.216-.27 11.038 11.038 0 01-1.345-.296 3.329 3.329 0 01-.469-.175 1.403 1.403 0 01-.237-.142.934.934 0 01-.328-.446.822.822 0 011.33-.872c.04.015.098.036.18.061.254.077.64.166 1.137.248.99.164 2.366.29 3.903.248 3.104-.083 6.711-.843 9.223-3.166a.822.822 0 011.162.046zM9.235 53.804z" fill="#fff"/><path fill-rule="evenodd" clip-rule="evenodd" d="M6.443 30.299a.822.822 0 111.392.874l-.696-.437.696.437-.026.042a52.661 52.661 0 01-.372.582c-.26.406-.645 1-1.144 1.758a279.718 279.718 0 01-4.29 6.311v.002c-.393.56-.369.826-.347.907.023.086.12.248.488.43.755.376 2.011.52 3.054.561l.024.001.024.003c.233.023.443.055.627.102.175.044.377.114.557.242.199.141.392.373.44.702a1.12 1.12 0 01-.13.68c-.133.25-.36.478-.497.615l-.011.011-.071.071c-.067.067-.129.128-.185.187.063.069.153.153.273.25a5.705 5.705 0 00.803.534l.057.031a.38.38 0 01.013.007l.002.001.393.207.16 1.65-.086.187a.379.379 0 00-.02.145.07.07 0 00.022.045c.018.02.094.093.316.159l.004.001.003.001c.686.212 1.054.795 1.255 1.312.207.531.31 1.17.366 1.797.086.975.067 2.091.051 3.01-.004.261-.009.507-.01.728a.822.822 0 01-1.644-.01c.001-.258.006-.53.01-.808.016-.907.033-1.896-.045-2.775-.05-.572-.137-1.03-.26-1.345a1.038 1.038 0 00-.16-.295.22.22 0 00-.048-.043c-.44-.132-.798-.341-1.06-.632a1.713 1.713 0 01-.429-.925 1.954 1.954 0 01.06-.791l-.038-.39a7.283 7.283 0 01-.747-.52c-.257-.208-.57-.498-.768-.844a1.494 1.494 0 01-.206-.697 1.26 1.26 0 01.28-.828l.002-.003.003-.003c.041-.051.085-.102.13-.151-1.006-.066-2.301-.238-3.245-.706-.56-.278-1.147-.736-1.346-1.48-.2-.75.064-1.527.59-2.275A278.155 278.155 0 004.92 32.65a181.51 181.51 0 001.499-2.314l.024-.038zm-.572 13.94z" fill="#fff"/><path d="M36.378 30.078c-2.11 0-3.836-.657-4.7-1.822a5.629 5.629 0 00-1.562-1.411c-1.589.644-3.37.986-5.192.986-6.111 0-11.099-3.809-11.099-8.495v-.11c-.055-1.973 1.096-4.151 3.152-5.96C20.88 9.827 27.184 8.32 33.83 9.211c5.124.685 8.727 2.575 10.714 5.617 2.85 4.344 1.33 9.4 1.26 9.605-1.205 3.426-4.973 5.125-7.823 5.536a12.76 12.76 0 01-1.603.11z" fill="#1169B0"/><path d="M37.282 13.554c0-.082-.013-.15-.013-.233-.178-1.63-1.508-2.905-3.097-2.987-1.26-.068-2.384.603-2.987 1.63-.603-1.027-1.726-1.698-3-1.63-1.604.096-2.933 1.398-3.083 3.056-.041.438 0 .85.11 1.247.068.246.191.465.355.644l5.577 5.85 5.412-5.686a2.496 2.496 0 00.726-1.89z" fill="#F5FAFC"/><path d="M38.443 14.14c0-.068-.014-.15-.014-.219-.164-1.59-1.411-2.836-2.905-2.918-1.178-.069-2.466 1.137-3.028 2.137-.562-1-1.397-2.206-2.59-2.123-1.506.082-2.753 1.37-2.89 2.973-.041.425 0 .836.11 1.22.068.232.177.451.342.616l5.234 5.7 5.07-5.536a2.597 2.597 0 00.67-1.85z" fill="#F27227"/><path fill-rule="evenodd" clip-rule="evenodd" d="M31.144 10.613c.788-.853 1.908-1.37 3.159-1.307 2.046.101 3.687 1.81 3.896 3.892l.003.034v.034c0 .008 0 .02.004.067l.001.006a3.558 3.558 0 01-.922 2.703v.001l-6.181 6.777-6.356-6.951a2.351 2.351 0 01-.543-.99v-.003l-.002-.005a4.816 4.816 0 01-.127-1.594c.176-2.113 1.816-3.852 3.877-3.97 1.266-.077 2.4.448 3.191 1.306zm-.598 1.496c-.517-.921-1.46-1.497-2.511-1.432h-.002c-1.31.074-2.464 1.211-2.59 2.715v.002c-.034.4 0 .774.09 1.14a.98.98 0 00.223.403l.001.002 5.346 5.846 5.163-5.663.002-.001a2.185 2.185 0 00.576-1.571v-.037l-.005-.066v-.006a2.222 2.222 0 01-.009-.133c-.16-1.466-1.306-2.567-2.595-2.63l-.002-.001c-1.042-.054-1.974.512-2.49 1.432l-.598 1.066-.599-1.066zm4.215 18.586h1.234v4.042c0 1.445-1.334 2.439-2.754 2.439h-7.317c-.933 0-1.52.633-1.52 1.206v.26c0 .583.584 1.206 1.52 1.206h14.181c1.424 0 2.754 1.01 2.754 2.438 0 1.445-1.333 2.44-2.754 2.44h-11.29c-.933 0-1.52.633-1.52 1.205v.137c0 .583.584 1.206 1.52 1.206h8.851v6.864h-1.233v-5.631h-7.618c-1.42 0-2.754-.994-2.754-2.439v-.137c0-1.428 1.33-2.439 2.754-2.439h11.29c.936 0 1.521-.622 1.521-1.206 0-.572-.588-1.205-1.52-1.205H25.923c-1.42 0-2.754-.994-2.754-2.44v-.26c0-1.428 1.33-2.438 2.754-2.438h7.317c.935 0 1.52-.623 1.52-1.206v-4.042z" fill="#fff"/><path d="M31.268 31.6h8.002l-4.001-6.55-4.001 6.55z" fill="#fff"/></svg>