<svg width="340" height="272" fill="none" xmlns="http://www.w3.org/2000/svg"><path d="M108.353 235.234c-41.265-18.385-55.182-76.187-38.541-118.084 18.456-46.466 68.774-58.959 77.422-60.922 30.084-6.828 82.62-5.776 103.43 28.927 23.128 38.569-9.994 90.252-32.838 113.556-5.989 6.108-59.222 58.91-109.473 36.523z" fill="#ECF3FE" fill-opacity=".6"/><path d="M216.948 183.384l-91.253-27.991 22.995-83.33 94.545 16.084-26.287 95.237zm-90.309-28.509l89.776 27.538 25.848-93.648-93.015-15.823-22.609 81.933z" fill="#3B82F4"/><path opacity=".2" d="M260.403 82.361c14.107 0 25.543-11.436 25.543-25.544 0-14.107-11.436-25.543-25.543-25.543s-25.544 11.436-25.544 25.543c0 14.108 11.437 25.544 25.544 25.544z" fill="#1169B0"/><path d="M257.876 82.361c14.107 0 25.543-11.436 25.543-25.544 0-14.107-11.436-25.543-25.543-25.543-14.108 0-25.544 11.436-25.544 25.543 0 14.108 11.436 25.544 25.544 25.544z" fill="#3B82F4"/><path opacity=".2" d="M210.801 178.046s27.141-83.142 26.37-83.142c-.772 0-9.072-1.544-9.072-1.544l-17.298 84.686zm-50.067 45.869l32.235-51.27-32.235-9.026v60.296z" fill="#1169B0"/><path opacity=".2" d="M184.385 196.967c-2.177 0-4.201.535-5.896 1.451l-5.367-4.292c.916-1.31 1.441-2.828 1.441-4.449 0-4.924-4.83-8.915-10.787-8.915-5.958 0-10.788 3.991-10.788 8.915 0 4.923 4.83 8.914 10.788 8.914 2.932 0 5.589-.968 7.534-2.537l4.955 3.963c-1.66 1.568-2.668 3.619-2.668 5.865 0 4.923 4.83 8.915 10.788 8.915s10.787-3.991 10.787-8.915c0-4.923-4.829-8.915-10.787-8.915zM83.81 170.13l-4.815 9.631-2.367 4.733-6.298 12.595-.826 1.65.117-1.27.896-9.699.336-3.644.9-9.73.194-2.116.25-2.702.123-1.338.608-6.572 4.928-2.642 5.954 11.104z" fill="#1169B0"/><path d="M251.033 69.103c-.917-.09-1.8-.53-2.432-1.298l-6.899-8.398a3.603 3.603 0 015.567-4.574l4.612 5.614 14.361-11.8a3.604 3.604 0 014.575 5.567l-17.145 14.087a3.594 3.594 0 01-2.639.802z" fill="#fff"/><path d="M187.315 210.3a1.306 1.306 0 01-.092-1.845c1.254-1.385-.85-3.562-.871-3.584l-30.669-27.785a1.306 1.306 0 011.754-1.936l30.724 27.839c1.392 1.416 3.309 4.669.998 7.219a1.305 1.305 0 01-1.844.092z" fill="#636466"/><path d="M156.827 182.679a1.307 1.307 0 001.845-.091c1.254-1.385 3.629.495 3.653.515l30.665 27.789a1.307 1.307 0 001.754-1.936l-30.725-27.839c-1.546-1.246-4.971-2.834-7.282-.283a1.306 1.306 0 00.09 1.845z" fill="#636466"/><path opacity=".28" d="M170.662 189.546a9.74 9.74 0 000-13.775 9.74 9.74 0 10-13.775 13.775 9.74 9.74 0 0013.775 0zm23.008 20.846a9.74 9.74 0 10-13.775-13.775 9.74 9.74 0 000 13.775 9.74 9.74 0 0013.775 0z" fill="#F2F2F2"/><path d="M194.385 195.118c-3.78-3.426-9.273-3.809-13.427-1.311a8.612 8.612 0 00-6.955-6.302c2.077-4.38 1.163-9.802-2.625-13.233-4.626-4.192-11.801-3.832-15.986.787-4.192 4.626-3.839 11.796.787 15.987a11.216 11.216 0 005.254 2.681c.474.1.958.175 1.441.213.55.04 1.1.044 1.653.004a11.278 11.278 0 007.639-3.686c.082-.09.17-.187.245-.284.265.006.525.018.785.042 1.345.15 2.554.669 3.489 1.517.936.848 1.572 2 1.853 3.323.05.257.093.52.113.784-.088.084-.17.174-.252.265a11.274 11.274 0 00-2.912 7.959 11.209 11.209 0 00.515 3.063 11.217 11.217 0 003.184 4.965c4.626 4.192 11.795 3.838 15.987-.787 4.186-4.619 3.839-11.796-.788-15.987zm-31.01-3.767a8.633 8.633 0 01-5.442-2.241c-3.561-3.227-3.833-8.737-.606-12.298 3.221-3.555 8.736-3.833 12.298-.606 3.219 2.918 3.745 7.718 1.422 11.241l-.005.006a8.46 8.46 0 01-1.358 1.601 8.515 8.515 0 01-4.154 2.122 8.708 8.708 0 01-2.155.175zm17.565 18.606a8.635 8.635 0 01-2.765-5.195 8.788 8.788 0 01-.039-2.162 8.522 8.522 0 011.703-4.343c.15-.205.32-.404.494-.598a8.17 8.17 0 01.967-.91l.005-.007c3.278-2.658 8.106-2.606 11.326.311 3.561 3.228 3.827 8.743.606 12.298-3.227 3.561-8.736 3.833-12.297.606z" fill="#636466"/><path d="M234.852 91.044l-23.813 86.276a7.653 7.653 0 01-12.696 3.463 7.645 7.645 0 01-2.052-7.533l4.312-15.625-76.482-21.105 16.952-61.43 93.779 15.954z" fill="#fff"/><path opacity=".2" d="M204.328 108.16l-.532 1.929-67.261-18.56 1.922-6.965c11.479 4.067 65.871 23.596 65.871 23.596z" fill="#1169B0"/><path opacity=".2" d="M208.768 110.225a10.358 10.358 0 00-6.779.433l-9.985 36.183 10.755 2.968-6.469 23.441c-.77 2.791-.343 5.523.93 7.221 1.984-.823 3.782-3.011 4.573-5.878l6.424-23.278 7.684-27.846.125-.453c1.529-5.536-1.722-11.263-7.258-12.791z" fill="#1169B0"/><path d="M201.628 182.661l-80.946-22.337c-5.681-1.568-9.015-7.444-7.447-13.127l16.455-59.631 63.807 17.607-2.766 10.026a10.354 10.354 0 014.893-6.279 10.364 10.364 0 017.899-.98c5.536 1.527 8.787 7.254 7.259 12.791L196.29 173.25a7.649 7.649 0 005.338 9.411z" fill="#5B97EF"/><path d="M189.129 179.212l-14.926-4.119 16.592-60.125a10.332 10.332 0 014.085-5.581c5.171 1.746 8.16 7.292 6.691 12.614l-13.891 50.337a7.649 7.649 0 001.449 6.874z" fill="#3B82F4"/><path d="M160.732 223.915l30-108.716c1.528-5.537 7.257-8.787 12.793-7.259l-91.309-25.198c-5.492-1.515-11.178 1.711-12.695 7.206L69.5 198.739l91.232 25.176z" fill="#fff"/><path d="M112.847 108.646a4.914 4.914 0 10-6.95-6.949 4.914 4.914 0 106.95 6.949zm63.206 17.475l-56.441-15.575a2.41 2.41 0 01-1.678-2.957l.028-.102a2.41 2.41 0 012.957-1.678l56.442 15.575a2.411 2.411 0 011.678 2.957l-.028.102a2.412 2.412 0 01-2.958 1.678zm-71.162.207a4.915 4.915 0 10-.002-9.83 4.915 4.915 0 00.002 9.83zm66.678 16.035l-56.441-15.576a2.41 2.41 0 01-1.678-2.957l.027-.102a2.412 2.412 0 012.958-1.678l56.441 15.575a2.41 2.41 0 011.678 2.957l-.027.102a2.413 2.413 0 01-2.958 1.679zm-71.159.207a4.915 4.915 0 100-9.83 4.915 4.915 0 000 9.83zm66.679 16.035l-56.442-15.576a2.411 2.411 0 01-1.678-2.957l.028-.102a2.41 2.41 0 012.957-1.678l56.442 15.575a2.411 2.411 0 011.678 2.957l-.028.102a2.412 2.412 0 01-2.957 1.679zm-67.688-1.234a4.914 4.914 0 10-6.95-6.95 4.914 4.914 0 006.95 6.95zm63.207 17.475l-56.441-15.576a2.41 2.41 0 01-1.678-2.957l.028-.102a2.41 2.41 0 012.957-1.678l56.441 15.575a2.41 2.41 0 011.678 2.957l-.027.102a2.412 2.412 0 01-2.958 1.679zm-67.691-1.234a4.914 4.914 0 10-6.95-6.95 4.914 4.914 0 006.95 6.95zm63.207 17.476l-56.441-15.576a2.411 2.411 0 01-1.679-2.957l.028-.102a2.41 2.41 0 012.957-1.678l56.442 15.575a2.41 2.41 0 011.678 2.957l-.028.102a2.412 2.412 0 01-2.957 1.679zm-67.687-1.234a4.915 4.915 0 10-6.95-6.95 4.915 4.915 0 006.95 6.95zm63.206 17.475l-56.441-15.575a2.411 2.411 0 01-1.678-2.957l.028-.102a2.412 2.412 0 012.957-1.679l56.441 15.576a2.412 2.412 0 011.679 2.957l-.028.102a2.412 2.412 0 01-2.958 1.678z" fill="#E4ECF9"/><path d="M102.563 124.352a1.32 1.32 0 01-.795-.62l-1.96-3.454a1.316 1.316 0 112.29-1.3l1.311 2.31 5.907-3.353a1.317 1.317 0 011.299 2.29l-7.052 4.001a1.309 1.309 0 01-1 .126zm-8.699 31.524a1.312 1.312 0 01-.795-.619l-1.96-3.455a1.315 1.315 0 112.29-1.299l1.31 2.309 5.907-3.352a1.316 1.316 0 111.3 2.289l-7.052 4.002c-.317.18-.676.214-1 .125zm-4.614 16.721a1.313 1.313 0 01-.794-.62l-1.96-3.454a1.316 1.316 0 112.29-1.299l1.31 2.309 5.907-3.353a1.318 1.318 0 011.3 2.29l-7.053 4.002a1.303 1.303 0 01-1 .125zm-4.35 15.762a1.312 1.312 0 01-.796-.619l-1.96-3.455a1.316 1.316 0 112.29-1.299l1.31 2.309 5.908-3.352a1.316 1.316 0 011.3 2.289l-7.053 4.002c-.316.18-.675.215-1 .125z" fill="#F9C067"/><path d="M162.004 60.088a5.895 5.895 0 100-11.79 5.895 5.895 0 000 11.79zM53.465 133.772a4.835 4.835 0 10-9.448-2.058 4.835 4.835 0 009.448 2.058zm170.528 84.333a5.895 5.895 0 10-.002-11.79 5.895 5.895 0 00.002 11.79z" fill="#4786D1"/></svg>